<svg width="30" height="35" viewBox="0 0 30 35" fill="none" xmlns="http://www.w3.org/2000/svg">
<path d="M15.6836 25.9492C14.3351 25.9515 12.9994 25.6876 11.7532 25.1724C10.5069 24.6572 9.37475 23.9009 8.42155 22.9471L3.04691 17.5748C2.9581 17.4859 2.9082 17.3655 2.9082 17.2398C2.9082 17.1142 2.9581 16.9937 3.04691 16.9049L16.9007 3.0431C16.9895 2.95425 17.11 2.90432 17.2356 2.9043C17.3612 2.9042 17.4816 2.95395 17.5705 3.04263L22.9456 8.41491C24.3835 9.85078 25.363 11.681 25.7601 13.6738C26.1573 15.6666 25.9542 17.7325 25.1767 19.6099C24.3992 21.4873 23.0821 23.0917 21.3922 24.2202C19.7023 25.3487 17.7156 25.9504 15.6836 25.9492ZM4.0522 17.2394L9.09143 22.2767C10.8407 24.0251 13.2129 25.0069 15.6861 25.0062C18.1593 25.0056 20.531 24.0224 22.2793 22.2731C24.0277 20.5239 25.0095 18.1517 25.0088 15.6785C25.0082 13.2053 24.0251 10.8336 22.2758 9.08526L17.2361 4.04792L4.0522 17.2394Z" fill="#1AB248" stroke="#1AB248" stroke-width="0.4"/>
<path d="M6.26767 14.8251C6.14211 14.8252 6.02164 14.7754 5.93274 14.6868L1.1389 9.89531C1.05001 9.80648 1.00004 9.68597 1 9.5603C0.999956 9.43463 1.04984 9.31409 1.13867 9.2252C1.2275 9.1363 1.348 9.08634 1.47367 9.08629C1.59934 9.08625 1.71989 9.13613 1.80878 9.22496L6.2672 13.6815L13.6794 6.26547L9.22053 1.80942C9.13157 1.72059 9.08155 1.60006 9.08146 1.47434C9.08137 1.34863 9.13123 1.22803 9.22006 1.13907C9.30889 1.05011 9.42942 1.00009 9.55513 1C9.68085 0.999911 9.80145 1.04977 9.89041 1.1386L14.6842 5.93006C14.7731 6.0189 14.8229 6.13938 14.8229 6.265C14.8229 6.39062 14.7731 6.5111 14.6842 6.59994L6.60261 14.6863C6.51379 14.7752 6.39331 14.8251 6.26767 14.8251Z" fill="#1AB248" stroke="#1AB248" stroke-width="0.4"/>
<path d="M15.9999 19.0809C15.3895 19.081 14.7928 18.9002 14.2851 18.5612C13.7775 18.2221 13.3818 17.7402 13.1482 17.1763C12.9145 16.6124 12.8533 15.9918 12.9723 15.3931C13.0914 14.7944 13.3853 14.2445 13.8169 13.8128C14.1027 13.5252 14.4427 13.2972 14.8173 13.142C15.1919 12.9867 15.5935 12.9073 15.999 12.9084C16.4075 12.9034 16.8129 12.9795 17.1918 13.1323C17.5707 13.2851 17.9154 13.5116 18.2061 13.7987C18.4968 14.0858 18.7275 14.4277 18.8851 14.8047C19.0426 15.1816 19.1237 15.5861 19.1237 15.9947C19.1237 16.4032 19.0426 16.8077 18.8851 17.1846C18.7275 17.5616 18.4968 17.9035 18.2061 18.1906C17.9154 18.4777 17.5707 18.7042 17.1918 18.857C16.8129 19.0098 16.4075 19.0859 15.999 19.0809H15.9999ZM15.9999 13.8559C15.7189 13.8552 15.4405 13.9102 15.1808 14.0178C14.9212 14.1254 14.6854 14.2834 14.4873 14.4827C14.1373 14.8327 13.9195 15.2932 13.8711 15.7858C13.8226 16.2784 13.9464 16.7725 14.2214 17.1841C14.4964 17.5956 14.9056 17.899 15.3792 18.0427C15.8528 18.1864 16.3617 18.1614 16.8189 17.9719C17.2762 17.7825 17.6537 17.4404 17.887 17.0039C18.1203 16.5674 18.1951 16.0635 18.0985 15.5781C18.002 15.0926 17.7401 14.6557 17.3576 14.3417C16.975 14.0276 16.4954 13.856 16.0004 13.8559H15.9999Z" fill="#1AB248" stroke="#1AB248" stroke-width="0.4"/>
<path d="M22.2474 27.3307C22.0387 27.3311 21.8319 27.2903 21.639 27.2105C21.446 27.1308 21.2708 27.0137 21.1232 26.866L19.26 25.0046C19.216 24.9607 19.1811 24.9084 19.1572 24.851C19.1334 24.7935 19.1211 24.7319 19.1211 24.6696C19.1211 24.6074 19.1333 24.5458 19.1571 24.4883C19.1809 24.4308 19.2158 24.3785 19.2598 24.3345C19.3037 24.2905 19.356 24.2556 19.4134 24.2318C19.4709 24.2079 19.5325 24.1956 19.5948 24.1956C19.657 24.1956 19.7186 24.2078 19.7761 24.2316C19.8336 24.2554 19.8859 24.2903 19.9299 24.3343L21.7917 26.1956C21.9125 26.316 22.0762 26.3836 22.2467 26.3836C22.4173 26.3836 22.5809 26.316 22.7018 26.1956L26.2018 22.6932C26.2616 22.6335 26.309 22.5626 26.3413 22.4845C26.3737 22.4064 26.3903 22.3227 26.3903 22.2382C26.3903 22.1537 26.3737 22.07 26.3413 21.9919C26.309 21.9139 26.2616 21.8429 26.2018 21.7832L24.3395 19.9223C24.2506 19.8335 24.2006 19.713 24.2006 19.5873C24.2005 19.4616 24.2504 19.3411 24.3393 19.2522C24.4281 19.1633 24.5486 19.1133 24.6743 19.1133C24.7999 19.1132 24.9205 19.1631 25.0094 19.2519L26.8717 21.1128C27.1698 21.4114 27.3373 21.816 27.3373 22.238C27.3373 22.6599 27.1698 23.0646 26.8717 23.3631L23.3731 26.8669C23.2251 27.0144 23.0496 27.1313 22.8564 27.2109C22.6633 27.2905 22.4563 27.3312 22.2474 27.3307Z" fill="#1AB248" stroke="#1AB248" stroke-width="0.4"/>
<path d="M28.1575 34.1622C28.1257 34.1625 28.094 34.1593 28.0628 34.1528C28.0017 34.1405 27.9436 34.1163 27.8919 34.0815C27.8401 34.0468 27.7958 34.0022 27.7613 33.9502C27.7269 33.8983 27.703 33.8401 27.6911 33.7789C27.6791 33.7177 27.6794 33.6548 27.6919 33.5938C27.9619 32.2492 27.895 30.8587 27.4973 29.5462C27.0995 28.2337 26.3832 27.0401 25.4122 26.0716L24.4524 25.1137C24.4084 25.0697 24.3734 25.0175 24.3496 24.96C24.3258 24.9025 24.3135 24.8409 24.3135 24.7787C24.3135 24.7165 24.3257 24.6548 24.3495 24.5974C24.3733 24.5399 24.4082 24.4876 24.4521 24.4436C24.4961 24.3996 24.5484 24.3647 24.6058 24.3408C24.6633 24.317 24.7249 24.3047 24.7871 24.3047C24.8494 24.3047 24.911 24.3169 24.9685 24.3407C25.026 24.3645 25.0782 24.3994 25.1223 24.4434L26.0811 25.4036C27.1631 26.4823 27.9613 27.812 28.4045 29.2741C28.8478 30.7363 28.9222 32.2853 28.6213 33.7832C28.5995 33.8902 28.5414 33.9863 28.4569 34.0553C28.3724 34.1244 28.2667 34.1622 28.1575 34.1622Z" fill="#1AB248" stroke="#1AB248" stroke-width="0.4"/>
</svg>
