<svg width="43" height="43" viewBox="0 0 43 43" fill="none" xmlns="http://www.w3.org/2000/svg">
<g clip-path="url(#clip0)">
<path d="M21.7816 42.6624C33.4696 42.6624 42.9446 33.1874 42.9446 21.4994C42.9446 9.81142 33.4696 0.336426 21.7816 0.336426C10.0936 0.336426 0.618652 9.81142 0.618652 21.4994C0.618652 33.1874 10.0936 42.6624 21.7816 42.6624Z" fill="#F0F0F0"/>
<path d="M12.5801 28.8604L14.4203 41.3462C16.7129 42.1969 19.1927 42.6623 21.7813 42.6623C30.8806 42.6623 38.6378 36.9192 41.6279 28.8604H12.5801Z" fill="#2F444A"/>
<path d="M12.5801 14.1384L14.4203 1.65258C16.7129 0.801846 19.1927 0.336426 21.7813 0.336426C30.8806 0.336426 38.6378 6.07953 41.6279 14.1384H12.5801Z" fill="#01BB4D"/>
<path d="M0.618652 21.4992C0.618652 30.5986 6.36184 38.3557 14.4206 41.3459V1.65259C6.36184 4.64277 0.618652 12.3999 0.618652 21.4992Z" fill="#FF2E2E"/>
</g>
<defs>
<clipPath id="clip0">
<rect width="42.326" height="42.326" fill="white" transform="translate(0.618652 0.336426)"/>
</clipPath>
</defs>
</svg>
