<svg width="43" height="43" viewBox="0 0 43 43" fill="none" xmlns="http://www.w3.org/2000/svg">
<path d="M0.491417 21.163C0.491417 18.5743 0.957005 16.0946 1.80774 13.802L21.6544 12.8818L41.5011 13.8019C42.3517 16.0946 42.8174 18.5743 42.8174 21.163C42.8174 23.7517 42.3517 26.2315 41.5011 28.524L21.6544 29.4442L1.80774 28.5241C0.957005 26.2315 0.491417 23.7517 0.491417 21.163Z" fill="#0052B4"/>
<path d="M21.6538 42.3257C12.5545 42.3257 4.79734 36.5826 1.80716 28.5237H41.5005C38.5103 36.5826 30.7532 42.3257 21.6538 42.3257Z" fill="#FF9811"/>
<path d="M41.5005 13.8017H1.80708C4.79734 5.74286 12.5545 -0.000244141 21.6538 -0.000244141C30.7532 -0.000244141 38.5103 5.74286 41.5005 13.8017Z" fill="#D80027"/>
</svg>
