<svg width="27" height="18" viewBox="0 0 27 18" fill="none" xmlns="http://www.w3.org/2000/svg">
<path d="M25.8467 9.3535L17.9987 16.8535C17.7943 17.0488 17.4632 17.0488 17.2589 16.8535C17.0545 16.6582 17.0545 16.3418 17.2589 16.1465L24.2138 9.49999H1.52322C1.23402 9.49999 1 9.27634 1 8.99997C1 8.72359 1.23402 8.49995 1.52322 8.49995H24.2138L17.2589 1.8535C17.0545 1.65817 17.0545 1.34176 17.2589 1.14648C17.361 1.04884 17.4949 1 17.6288 1C17.7627 1 17.8965 1.04884 17.9987 1.14648L25.8468 8.64649C26.0511 8.84177 26.0511 9.15817 25.8467 9.3535Z" fill="#999999" stroke="#999999"/>
</svg>
