<svg width="43" height="43" viewBox="0 0 43 43" fill="none" xmlns="http://www.w3.org/2000/svg">
<path d="M42.326 21.1619C42.326 18.5732 41.8604 16.0935 41.0096 13.8009L21.163 12.8807L1.31632 13.8008C0.465668 16.0935 0 18.5732 0 21.1619C0 23.7506 0.465668 26.2304 1.31632 28.5229L21.163 29.4431L41.0096 28.523C41.8604 26.2304 42.326 23.7506 42.326 21.1619Z" fill="#D80027"/>
<path d="M21.1631 42.3254C30.2624 42.3254 38.0196 36.5823 41.0097 28.5234H1.31641C4.30659 36.5823 12.0637 42.3254 21.1631 42.3254Z" fill="#6DA544"/>
<path d="M1.31641 13.8015H41.0098C38.0196 5.74262 30.2624 -0.000488281 21.1631 -0.000488281C12.0637 -0.000488281 4.30659 5.74262 1.31641 13.8015Z" fill="#338AF3"/>
<path d="M21.6213 27.1432C18.3182 27.1432 15.6404 24.4654 15.6404 21.1624C15.6404 17.8593 18.3182 15.1815 21.6213 15.1815C22.6512 15.1815 23.6203 15.4419 24.4663 15.9004C23.139 14.6024 21.3239 13.8013 19.321 13.8013C15.2555 13.8013 11.96 17.0969 11.96 21.1623C11.96 25.2276 15.2556 28.5233 19.321 28.5233C21.324 28.5233 23.1391 27.7221 24.4663 26.4242C23.6203 26.8828 22.6512 27.1432 21.6213 27.1432Z" fill="#F0F0F0"/>
<path d="M26.2216 17.0222L27.0138 19.2502L29.1495 18.2349L28.1342 20.3705L30.3622 21.1628L28.1342 21.9551L29.1495 24.0907L27.0138 23.0754L26.2216 25.3034L25.4295 23.0754L23.2938 24.0907L24.3091 21.9551L22.0811 21.1628L24.3091 20.3705L23.2938 18.2349L25.4295 19.2502L26.2216 17.0222Z" fill="#F0F0F0"/>
</svg>
