<svg width="32" height="36" viewBox="0 0 32 36" fill="none" xmlns="http://www.w3.org/2000/svg">
<path d="M30.8746 15.8754C30.4836 15.8754 30.1662 15.5581 30.1662 15.1671C30.1662 11.0049 28.5456 7.09064 25.6017 4.14822C25.3255 3.87197 25.3255 3.42289 25.6017 3.14664C25.878 2.87039 26.3271 2.87039 26.6033 3.14664C29.8149 6.35681 31.5829 10.6252 31.5829 15.1671C31.5829 15.5581 31.2656 15.8754 30.8746 15.8754Z" fill="#222222" stroke="#222222" stroke-width="0.4"/>
<path d="M1.12533 15.8754C0.734325 15.8754 0.416992 15.5581 0.416992 15.1671C0.416992 10.6252 2.18499 6.35681 5.39657 3.14664C5.67282 2.87039 6.12191 2.87039 6.39816 3.14664C6.67441 3.42289 6.67441 3.87197 6.39816 4.14822C3.45433 7.09064 1.83366 11.0049 1.83366 15.1671C1.83366 15.5581 1.51633 15.8754 1.12533 15.8754Z" fill="#222222" stroke="#222222" stroke-width="0.4"/>
<path d="M18.1253 6.92167C17.7343 6.92167 17.417 6.60433 17.417 6.21333V3.83333C17.417 3.05275 16.7809 2.41667 16.0003 2.41667C15.2197 2.41667 14.5837 3.05275 14.5837 3.83333V6.21333C14.5837 6.60433 14.2663 6.92167 13.8753 6.92167C13.4843 6.92167 13.167 6.60575 13.167 6.21333V3.83333C13.167 2.27075 14.4377 1 16.0003 1C17.5629 1 18.8337 2.27075 18.8337 3.83333V6.21333C18.8337 6.60575 18.5163 6.92167 18.1253 6.92167Z" fill="#222222" stroke="#222222" stroke-width="0.4"/>
<path d="M16.0003 34.9997C13.2662 34.9997 11.042 32.7755 11.042 30.0413C11.042 29.6503 11.3593 29.333 11.7503 29.333C12.1413 29.333 12.4587 29.6503 12.4587 30.0413C12.4587 31.9935 14.0482 33.583 16.0003 33.583C17.9525 33.583 19.542 31.9935 19.542 30.0413C19.542 29.6503 19.8593 29.333 20.2503 29.333C20.6413 29.333 20.9587 29.6503 20.9587 30.0413C20.9587 32.7755 18.7345 34.9997 16.0003 34.9997Z" fill="#222222" stroke="#222222" stroke-width="0.4"/>
<path d="M28.0423 30.75H3.95898C2.7874 30.75 1.83398 29.7966 1.83398 28.625C1.83398 28.0031 2.10457 27.4152 2.57773 27.01C4.8104 25.123 6.08398 22.3775 6.08398 19.4705V15.1667C6.08398 9.69833 10.5323 5.25 16.0007 5.25C21.469 5.25 25.9173 9.69833 25.9173 15.1667V19.4705C25.9173 22.3789 27.1909 25.123 29.4122 27.0001C29.8967 27.4152 30.1673 28.0031 30.1673 28.625C30.1673 29.7966 29.2153 30.75 28.0423 30.75ZM16.0007 6.66667C11.3129 6.66667 7.50065 10.4789 7.50065 15.1667V19.4705C7.50065 22.7968 6.04432 25.9347 3.50423 28.0824C3.34132 28.2213 3.25065 28.4182 3.25065 28.625C3.25065 29.016 3.56798 29.3333 3.95898 29.3333H28.0423C28.4333 29.3333 28.7507 29.016 28.7507 28.625C28.7507 28.4182 28.66 28.2213 28.5027 28.0867C25.9584 25.9347 24.5007 22.7954 24.5007 19.4705V15.1667C24.5007 10.4789 20.6884 6.66667 16.0007 6.66667Z" fill="#222222" stroke="#222222" stroke-width="0.4"/>
</svg>
