<svg width="87" height="225" viewBox="0 0 87 225" fill="none" xmlns="http://www.w3.org/2000/svg">
<circle cx="83.4189" cy="3.49622" r="2.5" fill="#334045"/>
<circle cx="83.4189" cy="34.7207" r="2.5" fill="#334045"/>
<circle cx="83.4189" cy="65.9451" r="2.5" fill="#334045"/>
<circle cx="50.8926" cy="3.49609" r="2.5" fill="#334045"/>
<circle cx="50.8926" cy="34.7206" r="2.5" fill="#334045"/>
<circle cx="50.8926" cy="65.9451" r="2.5" fill="#334045"/>
<circle cx="50.8926" cy="97.1698" r="2.5" fill="#334045"/>
<circle cx="83.8418" cy="97.1698" r="2.5" fill="#334045"/>
<circle cx="18.3672" cy="3.49609" r="2.5" fill="#334045"/>
<circle cx="18.3672" cy="34.7206" r="2.5" fill="#334045"/>
<circle cx="18.3672" cy="65.9453" r="2.5" fill="#334045"/>
<circle cx="18.3672" cy="97.1698" r="2.5" fill="#334045"/>
<circle cx="83.4189" cy="128.496" r="2.5" fill="#334045"/>
<circle cx="83.4189" cy="159.721" r="2.5" fill="#334045"/>
<circle cx="83.4189" cy="190.945" r="2.5" fill="#334045"/>
<circle cx="50.8926" cy="128.496" r="2.5" fill="#334045"/>
<circle cx="50.8926" cy="159.721" r="2.5" fill="#334045"/>
<circle cx="50.8926" cy="190.945" r="2.5" fill="#334045"/>
<circle cx="50.8926" cy="222.17" r="2.5" fill="#334045"/>
<circle cx="83.8418" cy="222.17" r="2.5" fill="#334045"/>
<circle cx="18.3672" cy="128.496" r="2.5" fill="#334045"/>
<circle cx="18.3672" cy="159.721" r="2.5" fill="#334045"/>
<circle cx="18.3672" cy="190.945" r="2.5" fill="#334045"/>
<circle cx="18.3672" cy="222.17" r="2.5" fill="#334045"/>
</svg>
