<svg width="123" height="34" viewBox="0 0 123 34" fill="none" xmlns="http://www.w3.org/2000/svg">
<path d="M19.0021 9.31351C18.0304 8.42594 16.4589 7.31647 14.8874 6.94765C13.0159 6.50386 10.5477 6.43189 8.67931 6.43189H8.45438V10.1261H9.80096C11.7443 10.1261 13.091 10.0511 15.0374 11.2356C15.7841 11.6793 16.9087 12.7889 17.3556 13.8234C17.7305 14.7829 17.9555 15.8923 17.9555 17.2207C17.9555 18.4771 17.7305 19.5866 17.3556 20.549C16.9808 21.4337 16.4589 22.2493 15.7841 22.84C15.1123 23.4306 14.3625 23.8745 13.6158 24.1683C12.0442 24.6871 10.2478 24.6871 8.67931 24.1683C7.85456 23.8745 7.10779 23.4306 6.50798 22.84C5.83619 22.2493 5.31135 21.5086 4.93647 20.549C4.26467 19.2177 4.03975 18.1083 4.03975 17.0018V0H0V16.3361V17.0738C0 18.699 0.299907 20.1773 0.821746 21.4337C1.34659 22.765 2.16833 23.8745 3.14302 24.8341C4.11472 25.7966 5.31135 26.5342 6.65793 27.125C8.00452 27.6437 9.50105 27.9405 11.0726 27.9405C12.5691 27.9405 14.1406 27.6437 15.4872 27.125C16.8338 26.6092 18.0304 25.7966 19.0021 24.8341C19.9738 23.8745 20.7985 22.69 21.3204 21.4337C21.8453 20.1053 22.1452 18.699 22.1452 17.0738C22.1452 15.4486 21.8453 14.0452 21.3204 12.7138C20.7235 11.3825 19.9738 10.273 19.0021 9.31351Z" fill="#222222"/>
<path d="M122.241 12.7133C121.717 11.382 120.895 10.2755 119.924 9.31293C118.949 8.35339 117.752 7.61276 116.405 7.02204C113.712 5.91258 110.347 5.91258 107.579 7.02204C106.233 7.54079 105.036 8.35339 104.061 9.31293C103.09 10.2755 102.268 11.4569 101.743 12.7133C101.218 14.0446 100.921 15.448 100.921 17.0732C100.921 18.7014 101.218 20.1048 101.743 21.4361C102.268 22.7645 103.09 23.8739 104.061 24.8335C105.036 25.721 106.608 26.8304 108.176 27.1993C110.048 27.6431 112.441 27.7181 114.387 27.7181H114.612V24.0208H113.266C111.319 24.0208 109.973 24.0958 108.026 22.9144C107.279 22.4706 106.158 21.3611 105.708 20.3266C105.333 19.364 105.111 18.2577 105.111 16.9262C105.111 15.6698 105.333 14.5604 105.708 13.6009C106.083 12.7133 106.608 11.9007 107.279 11.31C107.954 10.7163 108.701 10.2755 109.448 9.97861C111.019 9.45986 112.816 9.45986 114.387 9.97861C115.208 10.2755 115.959 10.7163 116.556 11.31C117.23 11.9007 117.752 12.6384 118.127 13.6009C118.651 14.8572 118.949 15.9667 118.949 17.0013V34H122.988V17.0013C123.063 15.5229 122.767 14.0446 122.241 12.7133Z" fill="#222222"/>
<path d="M32.1681 6.80017H28.1283V27.1994H32.1681V6.80017Z" fill="#222222"/>
<path d="M94.9355 6.80017H90.8958V27.1994H94.9355V6.80017Z" fill="#222222"/>
<path d="M81.6191 8.72214C81.0942 8.20339 80.4974 7.76261 79.8977 7.39078C79.3009 7.02196 78.701 6.80007 78.1042 6.65314C77.5044 6.5062 76.9045 6.35628 76.3828 6.28432C75.8579 6.20935 75.486 6.20935 75.1112 6.20935C74.7363 6.20935 74.2864 6.20935 73.6895 6.28432C73.1648 6.35628 72.5679 6.43125 71.9681 6.65314C71.3713 6.80007 70.7714 7.09692 70.0997 7.39078C69.4998 7.68764 68.9 8.13143 68.3782 8.72214C67.4035 9.75664 66.7318 10.7911 66.5068 11.9006C66.2818 13.0101 66.2069 14.1916 66.2069 15.4479V27.3491H70.2467V15.5229C70.2467 14.8572 70.3216 14.1916 70.3966 13.4539C70.4715 12.7132 70.7714 11.9755 71.2963 11.3099C71.6682 10.7911 72.1931 10.4223 72.7929 10.1255C73.3896 9.83161 74.1395 9.68168 74.9611 9.68168C75.7829 9.68168 76.5327 9.83161 77.1295 10.1255C77.7293 10.4223 78.2511 10.7911 78.6261 11.3099C79.1508 11.9755 79.4508 12.6382 79.5257 13.4539C79.5978 14.1165 79.6727 14.8572 79.6727 15.5229V27.3491H83.7124V15.3729C83.7124 14.1165 83.5655 12.9351 83.4156 11.8256C83.2656 10.7911 82.6658 9.75664 81.6191 8.72214Z" fill="#222222"/>
<path d="M49.1511 24.5393C49.9728 24.5393 50.7976 24.3923 51.6193 24.0955C52.4441 23.7986 53.1159 23.3579 53.7907 22.7641C54.4624 22.1734 54.9873 21.4358 55.3592 20.4732C55.7341 19.5857 55.959 18.4042 55.959 17.1478C55.959 15.8165 55.7341 14.6351 55.3592 13.7475C54.9873 12.788 54.4624 12.0473 53.7907 11.4565C53.1159 10.8659 52.3692 10.4221 51.5444 10.1252C50.7227 9.83136 49.8979 9.68444 49.0761 9.68444C48.2544 9.68444 47.4296 9.83136 46.6079 10.1252C45.7831 10.4221 45.0364 10.8659 44.3646 11.4565C43.6898 12.0473 43.165 12.788 42.7931 13.7475C42.4182 14.71 42.1933 15.8165 42.1933 17.1478C42.1933 18.4792 42.4182 19.5857 42.7931 20.4732C43.165 21.3608 43.6898 22.1734 44.3646 22.7641C45.0364 23.3579 45.7112 23.7986 46.533 24.0955C47.4296 24.3923 48.3293 24.5393 49.1511 24.5393ZM49.1511 6.20911C50.7227 6.20911 52.2191 6.50597 53.5657 7.02172C54.9124 7.54047 56.1089 8.27811 57.0806 9.24065C58.0523 10.2002 58.8771 11.3097 59.3989 12.7129C59.9987 14.0444 60.2237 15.5226 60.2237 17.0729C60.2237 18.6261 59.9238 20.1044 59.3989 21.4358C58.8022 22.7641 58.0523 23.8736 57.0806 24.9081C56.1089 25.8706 54.9124 26.6083 53.5657 27.199C52.2191 27.7177 50.7227 28.0116 49.1511 28.0116C47.5796 28.0116 46.083 27.7177 44.7365 27.199C43.3899 26.6832 42.1933 25.8706 41.2216 24.9081C40.2499 23.9486 39.4252 22.7641 38.9033 21.4358C38.3035 20.1044 38.0785 18.7011 38.0785 17.0729C38.0785 15.5226 38.3784 14.0444 38.9033 12.7129C39.5001 11.3816 40.2499 10.2002 41.2216 9.24065C42.1933 8.27811 43.3899 7.54047 44.7365 7.02172C46.083 6.50597 47.5796 6.20911 49.1511 6.20911Z" fill="#222222"/>
</svg>
