<svg width="36" height="41" viewBox="0 0 36 41" fill="none" xmlns="http://www.w3.org/2000/svg">
<path d="M34.6738 10.5489L18.2676 1.07693C18.1803 1.02653 18.0813 1 17.9805 1C17.8797 1 17.7807 1.02653 17.6934 1.07693L1.28711 10.5489C1.19982 10.5993 1.12733 10.6718 1.07693 10.7591C1.02654 10.8464 1 10.9454 1 11.0462V29.9905C1 30.0913 1.02654 30.1903 1.07693 30.2776C1.12733 30.3649 1.19982 30.4374 1.28711 30.4878L17.6934 39.9597C17.7807 40.0101 17.8797 40.0366 17.9805 40.0366C18.0813 40.0366 18.1803 40.0101 18.2676 39.9597L34.6738 30.4875C34.7611 30.4371 34.8336 30.3646 34.884 30.2773C34.9344 30.1901 34.9609 30.091 34.9609 29.9902V11.0462C34.9609 10.9454 34.9344 10.8464 34.884 10.7591C34.8336 10.6718 34.7611 10.5993 34.6738 10.5489ZM27.5244 7.74722L12.2677 16.5557L9.23413 14.8043L24.4909 5.99585L27.5244 7.74722ZM11.6641 17.5333V26.9332L10.5029 25.6142C10.4206 25.5241 10.3128 25.4613 10.1937 25.4342C10.0747 25.4071 9.9503 25.4171 9.83714 25.4629L8.62891 25.9558V15.7989L11.6641 17.5333ZM17.9805 2.2371L23.3424 5.33279L8.0857 14.1412L2.7238 11.0455L17.9805 2.2371ZM17.4062 38.4681L2.14844 29.659V12.0394L7.48047 15.1359V26.8142C7.48399 26.9097 7.51041 27.0029 7.5575 27.0859C7.60459 27.169 7.67098 27.2396 7.75106 27.2916C7.83113 27.3436 7.92255 27.3757 8.0176 27.3849C8.11265 27.3942 8.20853 27.3805 8.29717 27.345L9.90802 26.6813L11.8053 28.8343C11.8826 28.9219 11.9846 28.984 12.098 29.0122C12.2113 29.0404 12.3306 29.0335 12.4399 28.9923C12.5492 28.9511 12.6434 28.8777 12.71 28.7817C12.7765 28.6857 12.8123 28.5717 12.8125 28.4549V18.1964L17.4062 20.8486V38.4681ZM17.9805 19.8539L13.4162 17.2187L28.6728 8.41053L33.2371 11.0457L17.9805 19.8539ZM33.8125 29.659L18.5547 38.4681V20.8486L33.8125 12.0394V29.659Z" fill="#222222" stroke="#222222" stroke-width="0.5"/>
</svg>
