<svg width="43" height="43" viewBox="0 0 43 43" fill="none" xmlns="http://www.w3.org/2000/svg">
<path d="M21.2177 42.3257C32.9057 42.3257 42.3807 32.8507 42.3807 21.1627C42.3807 9.47475 32.9057 -0.000244141 21.2177 -0.000244141C9.52968 -0.000244141 0.0546875 9.47475 0.0546875 21.1627C0.0546875 32.8507 9.52968 42.3257 21.2177 42.3257Z" fill="#F0F0F0"/>
<path d="M8.79592 19.6293L6.49561 15.456L8.79592 11.3481L11.0962 15.456L8.79592 19.6293Z" fill="#A2001D"/>
<path d="M4.19534 19.6293L1.89502 15.456L4.19534 11.3481L6.49565 15.456L4.19534 19.6293Z" fill="#A2001D"/>
<path d="M8.79592 30.9767L6.49561 26.8034L8.79592 22.6956L11.0962 26.8034L8.79592 30.9767Z" fill="#A2001D"/>
<path d="M4.19534 30.9767L1.89502 26.8034L4.19534 22.6956L6.49565 26.8034L4.19534 30.9767Z" fill="#A2001D"/>
<path d="M11.0963 4.10706L10.445 2.94409C9.27693 3.63619 8.18133 4.43749 7.17188 5.33394L8.79597 8.28031L11.0963 4.10706Z" fill="#A2001D"/>
<path d="M8.79607 34.0449L7.15479 36.976C8.16333 37.8736 9.25819 38.6761 10.4258 39.3696L11.0965 38.1529L8.79607 34.0449Z" fill="#A2001D"/>
<path d="M12.9365 26.6838V40.6434C15.4801 41.7261 18.2787 42.326 21.2177 42.326C30.317 42.326 38.0742 36.5829 41.0644 28.524L12.9365 26.6838Z" fill="#6DA544"/>
<path d="M41.0644 28.5237C41.9151 26.2311 42.3807 23.7514 42.3807 21.1627C42.3807 9.47482 32.9056 -0.000244141 21.2177 -0.000244141C18.2789 -0.000244141 15.4801 0.599346 12.9365 1.68188V28.5238H41.0644V28.5237Z" fill="#A2001D"/>
</svg>
