<svg width="34" height="28" viewBox="0 0 34 28" fill="none" xmlns="http://www.w3.org/2000/svg">
<path d="M31.3989 8.89083H28.3281L27.4662 2.38728C27.3428 1.51409 26.5409 0.901884 25.666 1.01303L2.39022 4.09776C1.9684 4.15433 1.58641 4.37647 1.32871 4.71523C1.06987 5.05173 0.956857 5.47794 1.0149 5.89843L2.97888 20.7099C3.08321 21.5076 3.7632 22.104 4.56767 22.1034C4.63658 22.1033 4.70536 22.0986 4.77368 22.0895L6.31551 21.8862V25.4352C6.31551 26.3195 7.03232 27.0363 7.91658 27.0363H31.3989C32.2832 27.0363 33 26.3195 33 25.4352V10.4919C33 9.60764 32.2832 8.89083 31.3989 8.89083ZM27.2516 8.89083H23.0841L27.1796 8.34806L27.2516 8.89083ZM2.0716 5.75433C2.05286 5.61504 2.09088 5.47401 2.17727 5.36313C2.26313 5.24899 2.39115 5.17401 2.53271 5.155L25.8043 2.07133C26.0969 2.03424 26.3654 2.23838 26.4079 2.53031L26.6187 4.11964L2.28241 7.34686L2.0716 5.75433ZM6.31551 20.8097L4.63652 21.0312C4.34432 21.07 4.07601 20.8646 4.03718 20.5724C4.03718 20.5724 4.03718 20.5723 4.03718 20.5722L2.84652 11.5753L6.31551 11.1168V20.8097ZM6.38595 10.0313L2.70349 10.517L2.4233 8.4057L26.7596 5.17794L26.9197 6.40116L27.0382 7.28976L14.9613 8.89083H7.91658C7.21077 8.8921 6.58902 9.35534 6.38595 10.0313ZM31.9326 25.4352C31.9326 25.73 31.6937 25.9689 31.3989 25.9689H7.91658C7.62185 25.9689 7.38289 25.73 7.38289 25.4352V10.5079C7.38289 10.5026 7.38556 10.4972 7.38556 10.4919C7.38556 10.1972 7.62452 9.95821 7.91925 9.95821H31.3989C31.6937 9.95821 31.9326 10.1972 31.9326 10.4919V25.4352Z" fill="#1AB248" stroke="#1AB248" stroke-width="0.1"/>
<path d="M24.4319 16.9075C24.6464 16.7491 24.8361 16.5595 24.9944 16.345C25.8719 17.5261 27.5407 17.7723 28.7218 16.8948C29.903 16.0173 30.1491 14.3485 29.2716 13.1673C28.7681 12.4897 27.9733 12.0908 27.1292 12.092C26.2859 12.0943 25.4939 12.4965 24.9944 13.1759C24.1193 11.9901 22.4486 11.7382 21.2628 12.6134C20.077 13.4885 19.8252 15.1591 20.7003 16.345C21.5754 17.5307 23.2461 17.7826 24.4319 16.9075ZM27.1292 13.1593C28.0134 13.1593 28.7302 13.8761 28.7302 14.7604C28.7302 15.6447 28.0134 16.3615 27.1292 16.3615C26.2449 16.3615 25.5281 15.6447 25.5281 14.7604C25.5281 13.8761 26.2449 13.1593 27.1292 13.1593ZM22.8597 13.1593C23.7439 13.1593 24.4607 13.8761 24.4607 14.7604C24.4607 15.6447 23.7439 16.3615 22.8597 16.3615C21.9754 16.3615 21.2586 15.6447 21.2586 14.7604C21.2586 13.8761 21.9754 13.1593 22.8597 13.1593Z" fill="#1AB248" stroke="#1AB248" stroke-width="0.1"/>
<path d="M10.585 12.627H9.51758V13.6943H10.585V12.627Z" fill="#1AB248" stroke="#1AB248" stroke-width="0.1"/>
<path d="M18.0566 12.627H11.6523V13.6943H18.0566V12.627Z" fill="#1AB248" stroke="#1AB248" stroke-width="0.1"/>
<path d="M18.0566 14.7617H9.51758V15.8291H18.0566V14.7617Z" fill="#1AB248" stroke="#1AB248" stroke-width="0.1"/>
<path d="M29.2641 19.5645H10.0513C9.75654 19.5645 9.51758 19.8034 9.51758 20.0981V23.3003C9.51758 23.595 9.75654 23.834 10.0513 23.834H29.2641C29.5588 23.834 29.7978 23.595 29.7978 23.3003V20.0981C29.7978 19.8034 29.5589 19.5645 29.2641 19.5645ZM28.7304 22.7666H10.585V20.6318H28.7304V22.7666Z" fill="#1AB248" stroke="#1AB248" stroke-width="0.1"/>
</svg>
