<svg width="34" height="32" viewBox="0 0 34 32" fill="none" xmlns="http://www.w3.org/2000/svg">
<path d="M32.3461 4.59287H23.4288C23.1129 2.56112 21.3598 1 19.2458 1H14.7548C12.6407 1 10.8883 2.56112 10.5719 4.59287H1.65393C1.29226 4.59287 1 4.88651 1 5.24829V17.7964V30.3446C1 30.707 1.29226 31 1.65393 31H32.3461C32.7077 31 33 30.7071 33 30.3446V17.7957V5.24829C32.9999 4.88587 32.7077 4.59287 32.3461 4.59287ZM14.7541 2.31077H19.2451C20.6366 2.31077 21.8044 3.28734 22.1026 4.59287H11.8966C12.1941 3.28734 13.3633 2.31077 14.7541 2.31077ZM2.30779 5.90364H11.1694H22.8304H31.692V17.141H19.1797V16.4974C19.1797 16.135 18.8874 15.842 18.5258 15.842H15.474C15.1124 15.842 14.8201 16.1349 14.8201 16.4974V17.1404H2.30779V5.90364ZM16.128 17.7957V17.1528H17.872V17.7957V19.4479H16.128V17.7957ZM31.6921 29.6884H2.30779V18.4511H14.8202V20.1034C14.8202 20.4658 15.1124 20.7588 15.4741 20.7588H18.5258C18.8874 20.7588 19.1798 20.4659 19.1798 20.1034V18.4511H31.6921V29.6884Z" fill="#222222" stroke="#222222" stroke-width="0.4"/>
</svg>
