<svg width="47" height="43" viewBox="0 0 47 43" fill="none" xmlns="http://www.w3.org/2000/svg">
<path d="M46.2167 40.9333H41.5167V11.95C41.5167 11.5174 41.1659 11.1666 40.7333 11.1666H27.4167V0.983284C27.4167 0.550689 27.0659 0.199951 26.6333 0.199951H6.26667C5.83407 0.199951 5.48333 0.550689 5.48333 0.983284V40.9333H0.783333C0.350737 40.9333 0 41.284 0 41.7166C0 42.1492 0.350737 42.5 0.783333 42.5H46.2167C46.6493 42.5 47 42.1492 47 41.7166C47 41.284 46.6493 40.9333 46.2167 40.9333ZM25.85 40.9333H7.05V1.76662H25.85V40.9333ZM39.95 40.9333H27.4167V12.7333H39.95V40.9333Z" fill="#1AB248"/>
<path d="M31.3331 20.5665H36.0331C36.4657 20.5665 36.8165 20.2157 36.8165 19.7831V15.0831C36.8165 14.6505 36.4657 14.2998 36.0331 14.2998H31.3331C30.9005 14.2998 30.5498 14.6505 30.5498 15.0831V19.7831C30.5498 20.2157 30.9005 20.5665 31.3331 20.5665ZM32.1165 15.8665H35.2498V18.9998H32.1165V15.8665Z" fill="#1AB248"/>
<path d="M31.3331 28.3997H36.0331C36.4657 28.3997 36.8165 28.049 36.8165 27.6164V22.9164C36.8165 22.4838 36.4657 22.1331 36.0331 22.1331H31.3331C30.9005 22.1331 30.5498 22.4838 30.5498 22.9164V27.6164C30.5498 28.049 30.9005 28.3997 31.3331 28.3997ZM32.1165 23.6997H35.2498V26.8331H32.1165V23.6997Z" fill="#1AB248"/>
<path d="M31.3331 36.2331H36.0331C36.4657 36.2331 36.8165 35.8824 36.8165 35.4498V30.7498C36.8165 30.3172 36.4657 29.9664 36.0331 29.9664H31.3331C30.9005 29.9664 30.5498 30.3172 30.5498 30.7498V35.4498C30.5498 35.8824 30.9005 36.2331 31.3331 36.2331ZM32.1165 31.5331H35.2498V34.6664H32.1165V31.5331Z" fill="#1AB248"/>
<path d="M18.0167 20.5665H22.7167C23.1493 20.5665 23.5001 20.2157 23.5001 19.7831V15.0831C23.5001 14.6505 23.1493 14.2998 22.7167 14.2998H18.0167C17.5841 14.2998 17.2334 14.6505 17.2334 15.0831V19.7831C17.2334 20.2157 17.5841 20.5665 18.0167 20.5665ZM18.8001 15.8665H21.9334V18.9998H18.8001V15.8665Z" fill="#1AB248"/>
<path d="M18.0167 12.7331H22.7167C23.1493 12.7331 23.5001 12.3824 23.5001 11.9498V7.24976C23.5001 6.81717 23.1493 6.46643 22.7167 6.46643H18.0167C17.5841 6.46643 17.2334 6.81717 17.2334 7.24976V11.9498C17.2334 12.3824 17.5841 12.7331 18.0167 12.7331ZM18.8001 8.0331H21.9334V11.1664H18.8001V8.0331Z" fill="#1AB248"/>
<path d="M18.0167 28.3997H22.7167C23.1493 28.3997 23.5001 28.049 23.5001 27.6164V22.9164C23.5001 22.4838 23.1493 22.1331 22.7167 22.1331H18.0167C17.5841 22.1331 17.2334 22.4838 17.2334 22.9164V27.6164C17.2334 28.049 17.5841 28.3997 18.0167 28.3997ZM18.8001 23.6997H21.9334V26.8331H18.8001V23.6997Z" fill="#1AB248"/>
<path d="M18.0167 36.2331H22.7167C23.1493 36.2331 23.5001 35.8824 23.5001 35.4498V30.7498C23.5001 30.3172 23.1493 29.9664 22.7167 29.9664H18.0167C17.5841 29.9664 17.2334 30.3172 17.2334 30.7498V35.4498C17.2334 35.8824 17.5841 36.2331 18.0167 36.2331ZM18.8001 31.5331H21.9334V34.6664H18.8001V31.5331Z" fill="#1AB248"/>
<path d="M10.1837 20.5665H14.8837C15.3163 20.5665 15.6671 20.2157 15.6671 19.7831V15.0831C15.6671 14.6505 15.3163 14.2998 14.8837 14.2998H10.1837C9.75113 14.2998 9.40039 14.6505 9.40039 15.0831V19.7831C9.40039 20.2157 9.75113 20.5665 10.1837 20.5665ZM10.9671 15.8665H14.1004V18.9998H10.9671V15.8665Z" fill="#1AB248"/>
<path d="M10.1837 12.7331H14.8837C15.3163 12.7331 15.6671 12.3824 15.6671 11.9498V7.24976C15.6671 6.81717 15.3163 6.46643 14.8837 6.46643H10.1837C9.75113 6.46643 9.40039 6.81717 9.40039 7.24976V11.9498C9.40039 12.3824 9.75113 12.7331 10.1837 12.7331ZM10.9671 8.0331H14.1004V11.1664H10.9671V8.0331Z" fill="#1AB248"/>
<path d="M10.1837 28.3997H14.8837C15.3163 28.3997 15.6671 28.049 15.6671 27.6164V22.9164C15.6671 22.4838 15.3163 22.1331 14.8837 22.1331H10.1837C9.75113 22.1331 9.40039 22.4838 9.40039 22.9164V27.6164C9.40039 28.049 9.75113 28.3997 10.1837 28.3997ZM10.9671 23.6997H14.1004V26.8331H10.9671V23.6997Z" fill="#1AB248"/>
<path d="M10.1837 36.2331H14.8837C15.3163 36.2331 15.6671 35.8824 15.6671 35.4498V30.7498C15.6671 30.3172 15.3163 29.9664 14.8837 29.9664H10.1837C9.75113 29.9664 9.40039 30.3172 9.40039 30.7498V35.4498C9.40039 35.8824 9.75113 36.2331 10.1837 36.2331ZM10.9671 31.5331H14.1004V34.6664H10.9671V31.5331Z" fill="#1AB248"/>
</svg>
