<svg width="21" height="26" viewBox="0 0 21 26" fill="none" xmlns="http://www.w3.org/2000/svg">
<path d="M19.6005 5.13234C14.0212 5.13234 11.108 1.28284 11.0795 1.24353C10.9995 1.13594 10.89 1.06145 10.771 1.02524C10.5345 0.953862 10.276 1.03611 10.1205 1.24353C10.092 1.28232 7.17882 5.13234 1.59953 5.13234C1.26851 5.13234 1 5.41011 1 5.75306C1 12.5148 1.96605 21.8607 10.396 24.9643C10.4605 24.9886 10.529 25 10.597 25C10.675 25 10.7535 24.9845 10.8265 24.9534C10.843 24.9488 10.8595 24.9431 10.8755 24.9379C11.6469 24.6544 12.3824 24.3047 13.0624 23.8976C13.0859 23.8836 13.1093 23.8695 13.1326 23.8553C13.4186 23.6815 13.5146 23.3013 13.3466 23.0054C13.2187 22.7805 12.9765 22.6693 12.7408 22.7055C12.667 22.7169 12.5939 22.7427 12.5251 22.784C12.4836 22.8092 12.4419 22.8342 12.4 22.859C11.854 23.181 11.2649 23.4643 10.599 23.7203C3.31062 20.9457 2.26157 12.6492 2.20206 6.35981C6.7493 6.15652 9.54445 3.6933 10.6 2.55635C11.6556 3.69278 14.4507 6.15652 18.9979 6.35981C18.9589 11.0431 18.4209 16.7217 15.1522 20.5474C14.9327 20.8045 14.9557 21.1965 15.2037 21.4236C15.4486 21.6473 15.8222 21.628 16.0419 21.3795C16.0447 21.3762 16.0475 21.373 16.0503 21.3698C19.728 17.0657 20.2 10.7628 20.2 5.75306C20.2 5.41011 19.9315 5.13234 19.6005 5.13234Z" fill="white"/>
<path d="M10.0136 16.2871V18.3562C10.0136 18.6991 10.2821 18.9769 10.6131 18.9769C10.9441 18.9769 11.2127 18.6991 11.2127 18.3562V16.2871C11.2127 15.9442 10.9441 15.6664 10.6131 15.6664C10.2821 15.6664 10.0136 15.9442 10.0136 16.2871Z" fill="white"/>
<path d="M10.0136 7.65292V13.9338C10.0136 14.2767 10.2821 14.5545 10.6131 14.5545C10.9441 14.5545 11.2127 14.2767 11.2127 13.9338V7.65292C11.2127 7.30997 10.9441 7.0322 10.6131 7.0322C10.2821 7.0322 10.0136 7.30997 10.0136 7.65292Z" fill="white"/>
<path d="M13.3466 23.0054C13.5146 23.3013 13.4186 23.6815 13.1326 23.8553L13.0624 23.8976C14.2111 23.3074 15.5214 21.9795 16.0419 21.3795C15.8222 21.628 15.4486 21.6473 15.2037 21.4236C14.9557 21.1965 14.9327 20.8045 15.1522 20.5474C14.5819 21.1528 13.4328 22.2867 12.7408 22.7055C12.9765 22.6693 13.2187 22.7805 13.3466 23.0054Z" fill="white"/>
<path d="M13.1326 23.8553C13.4186 23.6815 13.5146 23.3013 13.3466 23.0054C13.2187 22.7805 12.9765 22.6693 12.7408 22.7055M13.1326 23.8553C13.1093 23.8695 13.0859 23.8836 13.0624 23.8976M13.1326 23.8553L13.0624 23.8976M15.1522 20.5474C18.4209 16.7217 18.9589 11.0431 18.9979 6.35981C14.4507 6.15652 11.6556 3.69278 10.6 2.55635C9.54445 3.6933 6.7493 6.15652 2.20206 6.35981C2.26157 12.6492 3.31062 20.9457 10.599 23.7203C11.2649 23.4643 11.854 23.181 12.4 22.859M15.1522 20.5474C14.9327 20.8045 14.9557 21.1965 15.2037 21.4236C15.4486 21.6473 15.8222 21.628 16.0419 21.3795M15.1522 20.5474C14.5819 21.1528 13.4328 22.2867 12.7408 22.7055M12.4 22.859C12.442 22.8342 12.4836 22.8092 12.5251 22.784C12.5939 22.7427 12.667 22.7169 12.7408 22.7055M12.4 22.859C12.4918 22.8401 12.6079 22.786 12.7408 22.7055M13.0624 23.8976C12.3824 24.3047 11.6469 24.6544 10.8755 24.9379C10.8595 24.9431 10.843 24.9488 10.8265 24.9534C10.7535 24.9845 10.675 25 10.597 25C10.529 25 10.4605 24.9886 10.396 24.9643C1.96605 21.8607 1 12.5148 1 5.75306C1 5.41011 1.26851 5.13234 1.59953 5.13234C7.17882 5.13234 10.092 1.28232 10.1205 1.24353C10.276 1.03611 10.5345 0.953862 10.771 1.02524C10.89 1.06145 10.9995 1.13594 11.0795 1.24353C11.108 1.28284 14.0212 5.13234 19.6005 5.13234C19.9315 5.13234 20.2 5.41011 20.2 5.75306C20.2 10.7628 19.728 17.0657 16.0503 21.3698C16.0475 21.373 16.0447 21.3762 16.0419 21.3795M13.0624 23.8976C14.2111 23.3074 15.5214 21.9795 16.0419 21.3795M10.0136 16.2871V18.3562C10.0136 18.6991 10.2821 18.9769 10.6131 18.9769C10.9441 18.9769 11.2127 18.6991 11.2127 18.3562V16.2871C11.2127 15.9442 10.9441 15.6664 10.6131 15.6664C10.2821 15.6664 10.0136 15.9442 10.0136 16.2871ZM10.0136 7.65292V13.9338C10.0136 14.2767 10.2821 14.5545 10.6131 14.5545C10.9441 14.5545 11.2127 14.2767 11.2127 13.9338V7.65292C11.2127 7.30997 10.9441 7.0322 10.6131 7.0322C10.2821 7.0322 10.0136 7.30997 10.0136 7.65292Z" stroke="white" stroke-width="0.3"/>
</svg>
