<svg width="18" height="18" viewBox="0 0 18 18" fill="none" xmlns="http://www.w3.org/2000/svg">
<path d="M8.2346 9.00245L1.15232 16.1342C0.955567 16.3323 0.955567 16.6533 1.15232 16.8515C1.25058 16.9507 1.37958 17 1.50834 17C1.63734 17 1.7661 16.9507 1.86435 16.8515L8.99988 9.66609L16.1354 16.8515C16.2339 16.9507 16.3627 17 16.4914 17C16.6202 17 16.7492 16.9507 16.8474 16.8515C17.0442 16.6533 17.0442 16.3323 16.8474 16.1342L9.76541 9.00245L16.8522 1.86566C17.0489 1.66753 17.0489 1.34654 16.8522 1.14841C16.6554 0.95053 16.3367 0.95053 16.1402 1.14841L9.00013 8.33882L1.85935 1.14866C1.66259 0.950782 1.34408 0.950782 1.14732 1.14866C0.950566 1.34679 0.950566 1.66778 1.14732 1.86592L8.2346 9.00245Z" fill="#A5A5A5" stroke="#A5A5A5" stroke-width="0.6"/>
</svg>













