<svg width="44" height="43" viewBox="0 0 44 43" fill="none" xmlns="http://www.w3.org/2000/svg">
<g clip-path="url(#clip0)">
<path d="M21.9091 42.6624C33.5971 42.6624 43.0721 33.1874 43.0721 21.4994C43.0721 9.81142 33.5971 0.336426 21.9091 0.336426C10.2211 0.336426 0.746094 9.81142 0.746094 21.4994C0.746094 33.1874 10.2211 42.6624 21.9091 42.6624Z" fill="#D80027"/>
<path d="M12.328 13.2161L14.155 18.8375H20.0658L15.2876 22.3178L17.1145 27.9392L12.328 24.4672L7.54158 27.9392L9.3768 22.3178L4.59033 18.8375H10.5011L12.328 13.2161Z" fill="#FFDA44"/>
<path d="M25.836 33.1142L24.4389 31.3947L22.3722 32.1966L23.5709 30.3366L22.1738 28.6088L24.3149 29.1792L25.5219 27.3192L25.6376 29.5347L27.787 30.1051L25.712 30.8987L25.836 33.1142Z" fill="#FFDA44"/>
<path d="M28.6134 28.0714L29.2748 25.9551L27.4644 24.6738L29.6799 24.6407L30.3329 22.5244L31.0521 24.6242L33.2676 24.5994L31.4903 25.9221L32.2012 28.0218L30.3908 26.7405L28.6134 28.0714Z" fill="#FFDA44"/>
<path d="M32.3583 15.8697L31.3828 17.862L32.97 19.4079L30.7793 19.0938L29.8039 21.0778L29.4236 18.8954L27.2246 18.5812L29.1921 17.5479L28.8118 15.3572L30.3991 16.9031L32.3583 15.8697Z" fill="#FFDA44"/>
<path d="M25.8938 9.83496L25.7285 12.0422L27.7869 12.8771L25.6292 13.4062L25.4722 15.6217L24.3066 13.7369L22.1489 14.266L23.5791 12.5713L22.4052 10.6947L24.4636 11.5297L25.8938 9.83496Z" fill="#FFDA44"/>
</g>
<defs>
<clipPath id="clip0">
<rect width="42.326" height="42.326" fill="white" transform="translate(0.746094 0.336426)"/>
</clipPath>
</defs>
</svg>
