<svg width="51" height="35" viewBox="0 0 51 35" fill="none" xmlns="http://www.w3.org/2000/svg">
<path d="M46.5 33.9668H4.5C3.57208 33.9657 2.68249 33.5955 2.02635 32.9373C1.37022 32.2792 1.00111 31.3869 1 30.4562V27.2966C1 27.1104 1.07375 26.9318 1.20503 26.8001C1.3363 26.6685 1.51435 26.5945 1.7 26.5945H21.3C21.4857 26.5945 21.6637 26.6685 21.795 26.8001C21.9263 26.9318 22 27.1104 22 27.2966C22 27.4828 21.9263 27.6614 21.795 27.7931C21.6637 27.9248 21.4857 27.9987 21.3 27.9987H2.4V30.4562C2.4 31.0148 2.62125 31.5506 3.01508 31.9456C3.4089 32.3406 3.94305 32.5626 4.5 32.5626H46.5C47.057 32.5626 47.5911 32.3406 47.9849 31.9456C48.3787 31.5506 48.6 31.0148 48.6 30.4562V27.9987H29.7C29.5143 27.9987 29.3363 27.9248 29.205 27.7931C29.0737 27.6614 29 27.4828 29 27.2966C29 27.1104 29.0737 26.9318 29.205 26.8001C29.3363 26.6685 29.5143 26.5945 29.7 26.5945H49.3C49.4856 26.5945 49.6637 26.6685 49.795 26.8001C49.9263 26.9318 50 27.1104 50 27.2966V30.4562C49.9989 31.3869 49.6298 32.2792 48.9736 32.9373C48.3175 33.5955 47.4279 33.9657 46.5 33.9668Z" fill="#1AB248" stroke="#1AB248" stroke-width="0.2"/>
<path d="M45.4496 27.9987H29.6996C29.514 27.9987 29.3359 27.9247 29.2046 27.793C29.0734 27.6614 28.9996 27.4828 28.9996 27.2966C28.9996 27.1103 29.0734 26.9318 29.2046 26.8001C29.3359 26.6684 29.514 26.5944 29.6996 26.5944H44.7496V4.47743C44.7496 3.91879 44.5284 3.38302 44.1345 2.988C43.7407 2.59297 43.2066 2.37105 42.6496 2.37105H8.34961C7.79265 2.37105 7.25851 2.59297 6.86468 2.988C6.47086 3.38302 6.24961 3.91879 6.24961 4.47743V26.5944H21.2996C21.4853 26.5944 21.6633 26.6684 21.7946 26.8001C21.9259 26.9318 21.9996 27.1103 21.9996 27.2966C21.9996 27.4828 21.9259 27.6614 21.7946 27.793C21.6633 27.9247 21.4853 27.9987 21.2996 27.9987H5.54961C5.36396 27.9987 5.18591 27.9247 5.05463 27.793C4.92336 27.6614 4.84961 27.4828 4.84961 27.2966V4.47743C4.85072 3.5467 5.21983 2.6544 5.87596 1.99627C6.5321 1.33814 7.42169 0.967912 8.34961 0.966797H42.6496C43.5775 0.967912 44.4671 1.33814 45.1233 1.99627C45.7794 2.6544 46.1485 3.5467 46.1496 4.47743V27.2966C46.1496 27.4828 46.0759 27.6614 45.9446 27.793C45.8133 27.9247 45.6353 27.9987 45.4496 27.9987Z" fill="#1AB248" stroke="#1AB248" stroke-width="0.2"/>
<path d="M28.8087 29.7757H22.1951C22.0656 29.7755 21.9386 29.7394 21.8284 29.6712C21.7182 29.603 21.6289 29.5055 21.5707 29.3895L20.6768 27.6124C20.6346 27.53 20.6091 27.44 20.6018 27.3477C20.5945 27.2554 20.6054 27.1625 20.6341 27.0744C20.6627 26.9863 20.7084 26.9048 20.7685 26.8345C20.8287 26.7643 20.9021 26.7066 20.9846 26.665C21.0671 26.6233 21.1569 26.5984 21.249 26.5917C21.3412 26.585 21.4337 26.5966 21.5213 26.626C21.6089 26.6553 21.6898 26.7017 21.7594 26.7626C21.8291 26.8234 21.886 26.8975 21.927 26.9805L22.627 28.3714H28.3782L29.0782 26.9805C29.1625 26.8156 29.3084 26.6908 29.4841 26.6334C29.6598 26.5759 29.851 26.5905 30.016 26.6739C30.181 26.7573 30.3065 26.9028 30.365 27.0786C30.4235 27.2544 30.4103 27.4463 30.3284 27.6124L29.4345 29.3895C29.3761 29.5057 29.2866 29.6034 29.1761 29.6716C29.0656 29.7397 28.9384 29.7758 28.8087 29.7757Z" fill="#1AB248" stroke="#1AB248" stroke-width="0.2"/>
<path d="M30.3634 23H20.6366C20.261 22.9999 19.8896 22.9217 19.5475 22.7706C19.2054 22.6195 18.9005 22.399 18.653 22.1238C18.4055 21.8487 18.2213 21.5252 18.1127 21.1751C18.004 20.825 17.9735 20.4564 18.0231 20.0938L19.4661 9.66306C19.4915 9.47938 19.5844 9.3109 19.7278 9.18893C19.8711 9.06697 20.055 8.99984 20.2454 9H30.7546C30.945 8.99984 31.1289 9.06697 31.2722 9.18893C31.4156 9.3109 31.5085 9.47938 31.5339 9.66306L32.9769 20.0893C33.0265 20.4518 32.996 20.8204 32.8873 21.1705C32.7787 21.5206 32.5945 21.8441 32.347 22.1192C32.0995 22.3944 31.7945 22.6149 31.4525 22.766C31.1104 22.9171 30.739 22.9953 30.3634 22.9954V23ZM20.932 10.5341L19.5808 20.2935C19.5604 20.44 19.5725 20.5892 19.6162 20.7308C19.6599 20.8725 19.7343 21.0034 19.8343 21.1148C19.9343 21.2261 20.0577 21.3154 20.1961 21.3764C20.3345 21.4375 20.4847 21.4691 20.6366 21.4689H30.3634C30.5153 21.4691 30.6655 21.4375 30.8039 21.3764C30.9423 21.3154 31.0657 21.2261 31.1657 21.1148C31.2657 21.0034 31.3401 20.8725 31.3838 20.7308C31.4275 20.5892 31.4396 20.44 31.4192 20.2935L30.068 10.5296L20.932 10.5341Z" fill="#1AB248" stroke="#1AB248" stroke-width="0.1"/>
<path d="M28.2714 13C28.0781 13 27.8928 12.9202 27.7561 12.7782C27.6195 12.6363 27.5427 12.4437 27.5427 12.2429V8.63678C27.5427 8.07384 27.3275 7.53396 26.9444 7.1359C26.5613 6.73785 26.0418 6.51422 25.5 6.51422C24.9582 6.51422 24.4387 6.73785 24.0556 7.1359C23.6725 7.53396 23.4573 8.07384 23.4573 8.63678V12.2406C23.4573 12.4414 23.3805 12.634 23.2439 12.776C23.1072 12.918 22.9219 12.9977 22.7286 12.9977C22.5354 12.9977 22.3501 12.918 22.2134 12.776C22.0768 12.634 22 12.4414 22 12.2406V8.63678C22 7.67224 22.3687 6.74721 23.0251 6.06519C23.6815 5.38316 24.5717 5 25.5 5C26.4283 5 27.3185 5.38316 27.9749 6.06519C28.6312 6.74721 29 7.67224 29 8.63678V12.2406C29.0003 12.3402 28.9817 12.4389 28.9452 12.5311C28.9087 12.6232 28.855 12.7069 28.7874 12.7774C28.7197 12.848 28.6392 12.904 28.5507 12.9422C28.4622 12.9803 28.3672 13 28.2714 13Z" fill="#1AB248" stroke="#1AB248" stroke-width="0.1"/>
</svg>
