<svg width="45" height="45" viewBox="0 0 45 45" fill="none" xmlns="http://www.w3.org/2000/svg">
<path d="M11.4017 1C8.346 1 5.85742 3.45472 5.85742 6.46811C5.85742 9.52382 8.39679 12.097 11.4017 12.097C14.4066 12.097 16.946 9.52382 16.946 6.46811C16.9545 3.45472 14.4574 1 11.4017 1ZM11.4017 10.7089C9.15014 10.7089 7.23715 8.77047 7.23715 6.46811C7.23715 4.21654 9.10782 2.38819 11.4017 2.38819C13.6956 2.38819 15.5663 4.21654 15.5663 6.46811C15.5663 8.77047 13.6618 10.7089 11.4017 10.7089Z" fill="#1AB248" stroke="#1AB248" stroke-width="0.2"/>
<path d="M42 22.4999C43.1046 22.4999 44 21.6044 44 20.4999V10.6265C44 9.5219 43.1046 8.62646 42 8.62646H25.1941C24.0895 8.62646 23.1941 9.5219 23.1941 10.6265V20.4999C23.1941 21.6044 24.0895 22.4999 25.1941 22.4999H28.0528V23.8881H20.4262V17.6497C20.4262 13.1381 16.0161 11.6737 16.0161 11.6737C16.0161 11.6737 13.8407 13.4851 11.4114 13.4851C8.70276 13.4851 6.80669 11.6737 6.80669 11.6737C6.80669 11.6737 2.39665 13.0704 2.39665 17.6497V23.8881C1.6253 23.8881 1 24.5134 1 25.2847V40.6117C1 41.7162 1.89543 42.6117 3 42.6117H3.77638V43.9999H5.16457V42.6117H39.8439V43.9999H41.2321V42.6117H42C43.1046 42.6117 44 41.7162 44 40.6117V25.8881C44 24.7835 43.1046 23.8881 42 23.8881H39.1413V22.4999H42ZM3.77638 17.6412C3.77638 15.7621 4.88524 14.0438 6.56968 13.2481C7.99173 14.2893 9.69311 14.8648 11.403 14.8648C13.1128 14.8648 14.8142 14.2977 16.2362 13.2481C17.9207 14.0438 19.0295 15.7621 19.0295 17.6412V23.8796H17.6413V17.6412H16.2531V23.8796H6.54429V17.6412H5.16457V23.8796H3.77638V17.6412ZM42.6118 41.2235H2.38819V30.8205H42.6118V41.2235ZM42.6118 25.2763V29.4408H2.38819V25.2763H42.6118ZM29.4325 23.8881V22.4999H37.7532V23.8881H29.4325ZM24.5823 21.1117V10.0147H42.6118V21.1117H24.5823Z" fill="#1AB248" stroke="#1AB248" stroke-width="0.2"/>
</svg>
