<svg width="22" height="22" viewBox="0 0 22 22" fill="none" xmlns="http://www.w3.org/2000/svg">
<path d="M1.23513 10.8995C1.23513 10.5872 1.48833 10.334 1.80066 10.334L20.0001 10.334C20.3124 10.334 20.5656 10.5872 20.5656 10.8995C20.5657 11.0557 20.5023 11.1971 20.4 11.2994C20.2976 11.4017 20.1563 11.465 20.0001 11.465L1.80064 11.465C1.48834 11.465 1.23515 11.2118 1.23513 10.8995Z" fill="#1AB248" stroke="#1AB248" stroke-width="1.5"/>
<path d="M10.3348 19.9992L10.3349 1.79976C10.3349 1.48744 10.5881 1.23423 10.9004 1.23425C11.2127 1.23423 11.4659 1.48742 11.4659 1.79976L11.4659 19.9992C11.4659 20.1554 11.4026 20.2968 11.3002 20.3991C11.1979 20.5015 11.0565 20.5648 10.9004 20.5648C10.5881 20.5647 10.3349 20.3115 10.3348 19.9992Z" fill="#1AB248" stroke="#1AB248" stroke-width="1.5"/>
</svg>
