<svg width="37" height="49" viewBox="0 0 37 49" fill="none" xmlns="http://www.w3.org/2000/svg">
<path d="M32.5315 30.0649L25.8999 27.418L21.8869 28.6703H15.1131L11.1001 27.418L4.46846 30.0649C1.76462 31.1464 0 33.7649 0 36.668V47.1514C0 47.9483 0.626059 48.5745 1.42308 48.5745H35.5769C36.3739 48.5745 37 47.9483 37 47.1514V36.668C37 33.7649 35.2354 31.1464 32.5315 30.0649Z" fill="#27C056"/>
<path d="M32.5315 30.0649L25.8999 27.418L21.8869 28.6703H18.5V48.5745H35.5769C36.3739 48.5745 37 47.9483 37 47.1514V36.668C37 33.7649 35.2354 31.1464 32.5315 30.0649Z" fill="#1AB248"/>
<path d="M25.8994 27.4176L19.4956 33.8214C19.2395 34.1061 18.8695 34.2484 18.4995 34.2484C18.1295 34.2484 17.7595 34.1061 17.5035 33.8214L11.0996 27.4176L15.1126 25.8237C15.2834 25.7384 15.4826 25.71 15.6534 25.71H21.3457C21.5164 25.71 21.7157 25.7384 21.8864 25.8237L25.8994 27.4176Z" fill="#FFC380"/>
<path d="M21.3462 25.71H18.5V34.2484C18.87 34.2484 19.24 34.1061 19.4961 33.8214L25.8999 27.4176L21.8869 25.8237C21.7162 25.7384 21.5169 25.71 21.3462 25.71Z" fill="#FFB766"/>
<path d="M27.8928 15.2734H9.10646C8.72982 16.338 8.53809 17.4553 8.53809 18.5949C8.53809 24.0871 13.0074 28.5564 18.4996 28.5564C23.9918 28.5564 28.4612 24.0871 28.4612 18.5949C28.4612 17.4553 28.2694 16.338 27.8928 15.2734Z" fill="#FFDBB3"/>
<path d="M18.5 15.2734V28.5564C23.9922 28.5564 28.4615 24.0871 28.4615 18.5949C28.4615 17.4553 28.2698 16.338 27.8932 15.2734H18.5Z" fill="#FFCF99"/>
<path d="M27.0381 11.4795H9.96116C9.17458 11.4795 8.53809 10.843 8.53809 10.0564V7.21026C8.53809 3.28702 11.7302 0 15.6535 0H21.3458C25.269 0 28.4612 3.28702 28.4612 7.21026V10.0564C28.4612 10.843 27.8247 11.4795 27.0381 11.4795Z" fill="#27C056"/>
<path d="M21.3462 0H18.5V11.4795H27.0385C27.825 11.4795 28.4615 10.843 28.4615 10.0564V7.21026C28.4615 3.28702 25.2694 0 21.3462 0Z" fill="#1AB248"/>
<path d="M29.8847 17.1723H7.11546C6.32888 17.1723 5.69238 16.5358 5.69238 15.7492C5.69238 11.8259 8.88453 8.63379 12.8078 8.63379H24.1924C28.1156 8.63379 31.3078 11.8259 31.3078 15.7492C31.3078 16.5358 30.6713 17.1723 29.8847 17.1723Z" fill="#269449"/>
<path d="M24.1923 8.63379H18.5V17.1723H29.8846C30.6712 17.1723 31.3077 16.5358 31.3077 15.7492C31.3077 11.8259 28.1155 8.63379 24.1923 8.63379Z" fill="#269449"/>
<path d="M31.3078 39.9413L28.3115 35.0356C28.0697 34.5534 27.5778 34.249 27.0385 34.249H9.96161C9.42236 34.249 8.93045 34.5534 8.68862 35.0356L5.69238 39.9413L7.82681 42.8824H29.1722L31.3078 39.9413Z" fill="#FFDE33"/>
<path d="M27.0385 34.249H18.5V42.8824H29.172L31.3077 39.9413L28.3115 35.0356C28.0696 34.5534 27.5777 34.249 27.0385 34.249Z" fill="#FFBC33"/>
<path d="M29.8847 48.5747H7.11546C6.32954 48.5747 5.69238 47.9376 5.69238 47.1517V39.9414H31.3078V47.1517C31.3078 47.9376 30.6706 48.5747 29.8847 48.5747Z" fill="#F9BC35"/>
<path d="M18.5 48.5747H29.8846C30.6705 48.5747 31.3077 47.9376 31.3077 47.1517V39.9414H18.5V48.5747Z" fill="#F39E31"/>
</svg>
