<svg width="26" height="26" viewBox="0 0 26 26" fill="none" xmlns="http://www.w3.org/2000/svg">
<path d="M11.9648 23.7581H2.24032V5.34473H5.13784V6.79298C5.13784 7.1359 5.41559 7.41365 5.758 7.41365H16.1026C16.445 7.41365 16.7228 7.1359 16.7228 6.79298V5.34473H19.6203V9.89636C19.6203 10.2393 19.898 10.517 20.2404 10.517C20.5828 10.517 20.8606 10.2393 20.8606 9.89636V4.72406C20.8606 4.38113 20.5828 4.10338 20.2404 4.10338H16.7228V3.6896C16.7228 3.34667 16.445 3.06892 16.1026 3.06892H13.548C13.2671 1.88395 12.2006 1 10.9303 1C9.6605 1 8.59345 1.88395 8.3126 3.06892H5.758C5.41559 3.06892 5.13784 3.34667 5.13784 3.6896V4.10338H1.62016C1.27775 4.10338 1 4.38113 1 4.72406V24.3788C1 24.7217 1.27775 24.9995 1.62016 24.9995H11.9648C12.3072 24.9995 12.5849 24.7217 12.5849 24.3788C12.5849 24.0359 12.3072 23.7581 11.9648 23.7581ZM6.37816 4.31027H8.86138C9.20378 4.31027 9.48153 4.03252 9.48153 3.6896C9.48153 2.89099 10.1322 2.24135 10.9303 2.24135C11.7284 2.24135 12.3791 2.89099 12.3791 3.6896C12.3791 4.03252 12.6568 4.31027 12.9992 4.31027H15.4824V6.1723H6.37816V4.31027Z" fill="white"/>
<path d="M5.75799 11.5515H7.8269C8.16931 11.5515 8.44706 11.2737 8.44706 10.9308C8.44706 10.5879 8.16931 10.3101 7.8269 10.3101H5.75799C5.41558 10.3101 5.13783 10.5879 5.13783 10.9308C5.13783 11.2737 5.41558 11.5515 5.75799 11.5515Z" fill="white"/>
<path d="M14.0337 11.5515C14.3761 11.5515 14.6538 11.2737 14.6538 10.9308C14.6538 10.5879 14.3761 10.3101 14.0337 10.3101H10.9303C10.5879 10.3101 10.3101 10.5879 10.3101 10.9308C10.3101 11.2737 10.5879 11.5515 10.9303 11.5515H14.0337Z" fill="white"/>
<path d="M9.89583 14.448H5.75799C5.41558 14.448 5.13783 14.7257 5.13783 15.0687C5.13783 15.4116 5.41558 15.6893 5.75799 15.6893H9.89583C10.2382 15.6893 10.516 15.4116 10.516 15.0687C10.516 14.7257 10.2382 14.448 9.89583 14.448Z" fill="white"/>
<path d="M9.89583 18.5858H5.75799C5.41558 18.5858 5.13783 18.8636 5.13783 19.2065C5.13783 19.5494 5.41558 19.8272 5.75799 19.8272H9.89583C10.2382 19.8272 10.516 19.5494 10.516 19.2065C10.516 18.8636 10.2382 18.5858 9.89583 18.5858Z" fill="white"/>
<path d="M18.6887 12.3791C15.2093 12.3791 12.379 15.2104 12.379 18.6898C12.379 22.1692 15.2098 25 18.6887 25C22.1681 25 24.9984 22.1692 24.9984 18.6898C24.9984 15.2104 22.1676 12.3791 18.6887 12.3791ZM18.6887 23.7586C15.8936 23.7586 13.6194 21.4849 13.6194 18.6898C13.6194 15.8947 15.8936 13.6204 18.6887 13.6204C21.4839 13.6204 23.7581 15.8942 23.7581 18.6898C23.7581 21.4849 21.4839 23.7586 18.6887 23.7586Z" fill="white"/>
<path d="M20.2777 16.744L18.1601 19.3249L17.0527 18.246C16.806 18.0065 16.4134 18.0112 16.175 18.2574C15.9355 18.5031 15.9407 18.8956 16.1864 19.1351L17.7774 20.6858C17.8938 20.799 18.0489 20.8621 18.2108 20.8621C18.2217 20.8621 18.2341 20.8616 18.245 20.8611C18.4188 20.8513 18.5801 20.7696 18.6903 20.6351L21.2372 17.5317C21.4544 17.2664 21.4161 16.8753 21.1513 16.6581C20.888 16.4424 20.498 16.4781 20.2777 16.744Z" fill="white"/>
<path d="M11.9648 23.7581H2.24032V5.34473H5.13784V6.79298C5.13784 7.1359 5.41559 7.41365 5.758 7.41365H16.1026C16.445 7.41365 16.7228 7.1359 16.7228 6.79298V5.34473H19.6203V9.89636C19.6203 10.2393 19.898 10.517 20.2404 10.517C20.5828 10.517 20.8606 10.2393 20.8606 9.89636V4.72406C20.8606 4.38113 20.5828 4.10338 20.2404 4.10338H16.7228V3.6896C16.7228 3.34667 16.445 3.06892 16.1026 3.06892H13.548C13.2671 1.88395 12.2006 1 10.9303 1C9.6605 1 8.59345 1.88395 8.3126 3.06892H5.758C5.41559 3.06892 5.13784 3.34667 5.13784 3.6896V4.10338H1.62016C1.27775 4.10338 1 4.38113 1 4.72406V24.3788C1 24.7217 1.27775 24.9995 1.62016 24.9995H11.9648C12.3072 24.9995 12.5849 24.7217 12.5849 24.3788C12.5849 24.0359 12.3072 23.7581 11.9648 23.7581ZM6.37816 4.31027H8.86138C9.20378 4.31027 9.48153 4.03252 9.48153 3.6896C9.48153 2.89099 10.1322 2.24135 10.9303 2.24135C11.7284 2.24135 12.3791 2.89099 12.3791 3.6896C12.3791 4.03252 12.6568 4.31027 12.9992 4.31027H15.4824V6.1723H6.37816V4.31027Z" stroke="white" stroke-width="0.3"/>
<path d="M5.75799 11.5515H7.8269C8.16931 11.5515 8.44706 11.2737 8.44706 10.9308C8.44706 10.5879 8.16931 10.3101 7.8269 10.3101H5.75799C5.41558 10.3101 5.13783 10.5879 5.13783 10.9308C5.13783 11.2737 5.41558 11.5515 5.75799 11.5515Z" stroke="white" stroke-width="0.3"/>
<path d="M14.0337 11.5515C14.3761 11.5515 14.6538 11.2737 14.6538 10.9308C14.6538 10.5879 14.3761 10.3101 14.0337 10.3101H10.9303C10.5879 10.3101 10.3101 10.5879 10.3101 10.9308C10.3101 11.2737 10.5879 11.5515 10.9303 11.5515H14.0337Z" stroke="white" stroke-width="0.3"/>
<path d="M9.89583 14.448H5.75799C5.41558 14.448 5.13783 14.7257 5.13783 15.0687C5.13783 15.4116 5.41558 15.6893 5.75799 15.6893H9.89583C10.2382 15.6893 10.516 15.4116 10.516 15.0687C10.516 14.7257 10.2382 14.448 9.89583 14.448Z" stroke="white" stroke-width="0.3"/>
<path d="M9.89583 18.5858H5.75799C5.41558 18.5858 5.13783 18.8636 5.13783 19.2065C5.13783 19.5494 5.41558 19.8272 5.75799 19.8272H9.89583C10.2382 19.8272 10.516 19.5494 10.516 19.2065C10.516 18.8636 10.2382 18.5858 9.89583 18.5858Z" stroke="white" stroke-width="0.3"/>
<path d="M18.6887 12.3791C15.2093 12.3791 12.379 15.2104 12.379 18.6898C12.379 22.1692 15.2098 25 18.6887 25C22.1681 25 24.9984 22.1692 24.9984 18.6898C24.9984 15.2104 22.1676 12.3791 18.6887 12.3791ZM18.6887 23.7586C15.8936 23.7586 13.6194 21.4849 13.6194 18.6898C13.6194 15.8947 15.8936 13.6204 18.6887 13.6204C21.4839 13.6204 23.7581 15.8942 23.7581 18.6898C23.7581 21.4849 21.4839 23.7586 18.6887 23.7586Z" stroke="white" stroke-width="0.3"/>
<path d="M20.2777 16.744L18.1601 19.3249L17.0527 18.246C16.806 18.0065 16.4134 18.0112 16.175 18.2574C15.9355 18.5031 15.9407 18.8956 16.1864 19.1351L17.7774 20.6858C17.8938 20.799 18.0489 20.8621 18.2108 20.8621C18.2217 20.8621 18.2341 20.8616 18.245 20.8611C18.4188 20.8513 18.5801 20.7696 18.6903 20.6351L21.2372 17.5317C21.4544 17.2664 21.4161 16.8753 21.1513 16.6581C20.888 16.4424 20.498 16.4781 20.2777 16.744Z" stroke="white" stroke-width="0.3"/>
</svg>
