<svg width="26" height="26" viewBox="0 0 26 26" fill="none" xmlns="http://www.w3.org/2000/svg">
<path fill-rule="evenodd" clip-rule="evenodd" d="M23.75 23.9999H24.5C24.7762 23.9999 25 24.2237 25 24.4999C25 24.7759 24.7762 24.9999 24.5 24.9999H1.50002C1.22387 24.9999 1 24.7759 1 24.4999C1 24.2237 1.22388 23.9999 1.49997 23.9999H2.24997V22.4998C2.24997 20.4842 2.81139 18.5191 3.87334 16.817C4.82111 15.298 6.13141 14.0416 7.68039 13.158C7.48084 12.6339 7.31978 11.9284 7.15145 10.9059C7.125 10.7447 7.0968 10.6095 7.06428 10.4535L7.06347 10.4496C7.02672 10.2736 6.98673 10.0813 6.94023 9.81419H6.59317C6.31708 9.81419 6.09316 9.59031 6.09316 9.31417C6.09316 8.77698 6.30681 8.31339 6.68036 7.91992L6.6767 7.88341C6.65148 7.63211 6.63934 7.50841 6.63695 7.45923C6.60222 6.75522 6.64975 6.19731 6.78227 5.75406C7.21586 4.30234 8.0387 3.09105 9.16173 2.251C10.2559 1.43261 11.5832 1 13 1C14.4169 1 15.7442 1.43261 16.8381 2.25091C17.9612 3.09091 18.784 4.30225 19.2176 5.75411C19.3525 6.20523 19.3994 6.77659 19.3607 7.50072C19.3586 7.54244 19.3496 7.62386 19.32 7.88247L19.3162 7.91636C19.6917 8.31062 19.9067 8.77539 19.9067 9.31412C19.9067 9.59031 19.6827 9.81414 19.4066 9.81414H19.0596C19.0129 10.0826 18.9723 10.2773 18.9375 10.444L18.9365 10.4488L18.9361 10.4509C18.9034 10.6079 18.875 10.7438 18.8484 10.9056C18.6801 11.9282 18.519 12.6339 18.3194 13.158C19.8685 14.0416 21.1788 15.298 22.1266 16.8169C23.1887 18.519 23.75 20.4841 23.75 22.4998V23.9999ZM17.9576 10.2445C17.9841 10.1179 18.0123 9.98214 18.0436 9.81409H7.9563C7.98766 9.98266 8.01597 10.1186 8.04241 10.2454C8.07616 10.4072 8.10798 10.56 8.13817 10.7434C8.55803 13.2937 8.82288 13.4621 9.9377 14.1714C10.1238 14.2897 10.3342 14.4235 10.5685 14.5821C12.1821 15.5077 13.8179 15.5076 15.4316 14.5819C15.6657 14.4234 15.8761 14.2896 16.0623 14.1713C17.177 13.4621 17.4418 13.2938 17.8617 10.7434C17.8919 10.5597 17.9238 10.4066 17.9576 10.2445ZM6.99991 23.9999H18.9999L18.9999 21.9998H13.5001V22.9999C13.5001 23.276 13.2761 23.5 13 23.5C12.7239 23.5 12.5 23.276 12.5 22.9999V21.9998H6.99991V23.9999ZM9.17556 19.9999L7.92555 20.9998H12.5001V19.9999H9.17556ZM13.5001 19.9999V20.9998H18.0746L16.8245 19.9999H13.5001ZM19.9998 23.9998H22.7499V22.4996C22.7499 18.9726 20.8775 15.7676 17.834 14.0307C17.5293 14.405 17.1384 14.6717 16.5989 15.0148L16.5885 15.0214C16.4066 15.1371 16.2012 15.2679 15.9773 15.4197C15.9673 15.4266 15.9572 15.433 15.9467 15.439C14.9802 15.997 13.9886 16.2799 12.9997 16.2799H12.9984C12.01 16.2797 11.0191 15.9968 10.0532 15.4392C10.0427 15.4331 10.0325 15.4267 10.0225 15.4199L9.98462 15.3945L9.96105 15.3788L8.9958 14.7505C8.65689 14.5202 8.38839 14.3042 8.16583 14.0309C5.12242 15.7677 3.25 18.9727 3.25 22.4998V23.9999H5.99992V21.4997C5.99992 21.4989 5.99995 21.498 6 21.4971C6.00006 21.4959 6.00016 21.4946 6.00026 21.4933L6.00048 21.4893C6.00067 21.4795 6.00114 21.4696 6.00194 21.4598C6.00245 21.4538 6.00283 21.4477 6.00353 21.4417C6.0047 21.432 6.0063 21.4224 6.00798 21.4127C6.00977 21.4025 6.01192 21.3925 6.01431 21.3825C6.01619 21.3745 6.01811 21.3665 6.02041 21.3587C6.02256 21.3514 6.02514 21.3441 6.02763 21.3367C6.02988 21.3302 6.03222 21.3238 6.0347 21.3175C6.03752 21.3103 6.04038 21.3033 6.04347 21.2964C6.0461 21.2905 6.04896 21.2847 6.05181 21.2789L6.05331 21.2759L6.0559 21.2707C6.05803 21.2664 6.06014 21.2621 6.06245 21.2579C6.06902 21.246 6.07614 21.2343 6.08369 21.2229C6.08655 21.2187 6.08959 21.2148 6.09255 21.2107C6.09817 21.2027 6.10394 21.1948 6.11008 21.1872C6.11369 21.1827 6.11739 21.1785 6.12114 21.1742C6.12709 21.1673 6.13323 21.1604 6.1397 21.1538C6.14369 21.1495 6.14767 21.1453 6.15189 21.1413C6.1585 21.1349 6.16544 21.1287 6.17247 21.1226L6.17646 21.1191C6.17935 21.1165 6.18224 21.1139 6.18527 21.1115L6.18766 21.1094L8.68778 19.1095C8.77642 19.0386 8.88658 18.9999 9.00011 18.9999H16.9997C17.1132 18.9999 17.2234 19.0385 17.312 19.1095L19.7927 21.0937C19.801 21.0997 19.8086 21.1066 19.8165 21.1131L19.8186 21.1147C19.9296 21.2064 20.0009 21.3446 20.0009 21.4997C20.0009 21.5044 20.0006 21.5089 20.0003 21.5135L19.9998 21.523V23.9998ZM7.74048 6.04028C8.48486 3.54817 10.5002 2.00003 13 2.00003C15.4998 2.00003 17.5152 3.54817 18.2595 6.04051C18.347 6.33301 18.3844 6.73141 18.3713 7.22383C18.3639 7.54818 18.327 8.17516 18.2377 8.81406H7.80115C7.72138 8.20038 7.65839 7.56631 7.62878 7.22359C7.6157 6.73005 7.65316 6.33241 7.74048 6.04028Z" fill="white"/>
<path d="M19.3162 7.91636C19.6917 8.31062 19.9067 8.77539 19.9067 9.31412C19.9067 9.59031 19.6827 9.81414 19.4066 9.81414H19.0596C19.0129 10.0826 18.9723 10.2773 18.9375 10.444L18.9365 10.4488L18.9361 10.4509C18.9034 10.6079 18.875 10.7438 18.8484 10.9056C18.6801 11.9282 18.519 12.6339 18.3194 13.158C19.8685 14.0416 21.1788 15.298 22.1266 16.8169C23.1887 18.519 23.75 20.4841 23.75 22.4998V23.9999H24.5C24.7762 23.9999 25 24.2237 25 24.4999C25 24.7759 24.7762 24.9999 24.5 24.9999H1.50002C1.22387 24.9999 1 24.7759 1 24.4999C1 24.2237 1.22388 23.9999 1.49997 23.9999H2.24997V22.4998C2.24997 20.4842 2.81139 18.5191 3.87334 16.817C4.82111 15.298 6.13141 14.0416 7.68039 13.158C7.48084 12.6339 7.31978 11.9284 7.15145 10.9059C7.125 10.7447 7.0968 10.6095 7.06428 10.4535L7.06347 10.4496C7.02672 10.2736 6.98673 10.0813 6.94023 9.81419H6.59317C6.31708 9.81419 6.09316 9.59031 6.09316 9.31417C6.09316 8.77698 6.30681 8.31339 6.68036 7.91992M19.3162 7.91636C19.3175 7.90487 19.3189 7.89339 19.32 7.88247M19.3162 7.91636L19.32 7.88247M19.32 7.88247C19.3496 7.62386 19.3586 7.54244 19.3607 7.50072C19.3994 6.77659 19.3525 6.20523 19.2176 5.75411C18.784 4.30225 17.9612 3.09091 16.8381 2.25091C15.7442 1.43261 14.4169 1 13 1C11.5832 1 10.2559 1.43261 9.16173 2.251C8.0387 3.09105 7.21586 4.30234 6.78227 5.75406C6.64975 6.19731 6.60222 6.75522 6.63695 7.45923C6.63934 7.50841 6.65148 7.63211 6.6767 7.88341M6.6767 7.88341C6.67792 7.89531 6.67914 7.90759 6.68036 7.91992M6.6767 7.88341L6.68036 7.91992M18.0436 9.81409C18.0123 9.98214 17.9841 10.1179 17.9576 10.2445C17.9238 10.4066 17.8919 10.5597 17.8617 10.7434C17.4418 13.2938 17.177 13.4621 16.0623 14.1713C15.8761 14.2896 15.6657 14.4234 15.4316 14.5819C13.8179 15.5076 12.1821 15.5077 10.5685 14.5821C10.3342 14.4235 10.1238 14.2897 9.9377 14.1714C8.82288 13.4621 8.55803 13.2937 8.13817 10.7434C8.10798 10.56 8.07616 10.4072 8.04241 10.2454C8.01597 10.1186 7.98766 9.98266 7.9563 9.81409M18.0436 9.81409H7.9563M18.0436 9.81409C18.126 9.50782 18.1895 9.1592 18.2377 8.81406M7.9563 9.81409C7.90102 9.53038 7.84817 9.17576 7.80115 8.81406M19.9998 21.523V23.9998H22.7499V22.4996C22.7499 18.9726 20.8775 15.7676 17.834 14.0307C17.5293 14.405 17.1384 14.6717 16.5989 15.0148M19.9998 21.523C19.9999 21.5198 20.0001 21.5167 20.0003 21.5135M19.9998 21.523L20.0003 21.5135M9.96105 15.3788L8.9958 14.7505C8.65689 14.5202 8.38839 14.3042 8.16583 14.0309C5.12242 15.7677 3.25 18.9727 3.25 22.4998V23.9999H5.99992V21.4997C5.99992 21.4989 5.99995 21.498 6 21.4971C6.00006 21.4959 6.00016 21.4946 6.00026 21.4933L6.00048 21.4893C6.00067 21.4795 6.00114 21.4696 6.00194 21.4598C6.00245 21.4538 6.00283 21.4477 6.00353 21.4417C6.0047 21.432 6.0063 21.4224 6.00798 21.4127C6.00977 21.4025 6.01192 21.3925 6.01431 21.3825C6.01619 21.3745 6.01811 21.3665 6.02041 21.3587C6.02256 21.3514 6.02514 21.3441 6.02763 21.3367C6.02988 21.3302 6.03222 21.3238 6.0347 21.3175C6.03752 21.3103 6.04038 21.3033 6.04347 21.2964C6.0461 21.2905 6.04896 21.2847 6.05181 21.2789L6.05331 21.2759L6.0559 21.2707C6.05803 21.2664 6.06014 21.2621 6.06245 21.2579C6.06902 21.246 6.07614 21.2343 6.08369 21.2229C6.08655 21.2187 6.08959 21.2148 6.09255 21.2107C6.09817 21.2027 6.10394 21.1948 6.11008 21.1872C6.11369 21.1827 6.11739 21.1785 6.12114 21.1742C6.12709 21.1673 6.13323 21.1604 6.1397 21.1538C6.14369 21.1495 6.14767 21.1453 6.15189 21.1413C6.1585 21.1349 6.16544 21.1287 6.17247 21.1226L6.17646 21.1191C6.17935 21.1165 6.18224 21.1139 6.18527 21.1115L6.18766 21.1094L8.68778 19.1095C8.77642 19.0386 8.88658 18.9999 9.00011 18.9999H16.9997C17.1132 18.9999 17.2234 19.0385 17.312 19.1095L19.7927 21.0937C19.801 21.0997 19.8086 21.1066 19.8165 21.1131L19.8186 21.1147C19.9296 21.2064 20.0009 21.3446 20.0009 21.4997C20.0009 21.5044 20.0006 21.5089 20.0003 21.5135M9.96105 15.3788C9.96898 15.3841 9.9768 15.3893 9.98462 15.3945M9.96105 15.3788L9.98462 15.3945M10.0225 15.4199C10.0325 15.4267 10.0427 15.4331 10.0532 15.4392C11.0191 15.9968 12.01 16.2797 12.9984 16.2799H12.9997C13.9886 16.2799 14.9802 15.997 15.9467 15.439C15.9572 15.433 15.9673 15.4266 15.9773 15.4197C16.2012 15.2679 16.4066 15.1371 16.5885 15.0214M10.0225 15.4199C10.0096 15.4112 9.99714 15.4029 9.98462 15.3945M10.0225 15.4199L9.98462 15.3945M16.5989 15.0148L16.5885 15.0214M16.5989 15.0148C16.5954 15.017 16.5919 15.0192 16.5885 15.0214M7.80115 8.81406C7.72138 8.20038 7.65839 7.56631 7.62878 7.22359C7.6157 6.73005 7.65316 6.33241 7.74048 6.04028C8.48486 3.54817 10.5002 2.00003 13 2.00003C15.4998 2.00003 17.5152 3.54817 18.2595 6.04051C18.347 6.33301 18.3844 6.73141 18.3713 7.22383C18.3639 7.54818 18.327 8.17516 18.2377 8.81406M7.80115 8.81406H18.2377M18.9999 23.9999H6.99991V21.9998H12.5V22.9999C12.5 23.276 12.7239 23.5 13 23.5C13.2761 23.5 13.5001 23.276 13.5001 22.9999V21.9998H18.9999L18.9999 23.9999ZM7.92555 20.9998L9.17556 19.9999H12.5001V20.9998H7.92555ZM13.5001 20.9998V19.9999H16.8245L18.0746 20.9998H13.5001Z" stroke="white" stroke-width="0.4"/>
</svg>
