<svg width="44" height="43" viewBox="0 0 44 43" fill="none" xmlns="http://www.w3.org/2000/svg">
<path d="M22.036 42.6624C33.724 42.6624 43.199 33.1874 43.199 21.4994C43.199 9.81142 33.724 0.336426 22.036 0.336426C10.348 0.336426 0.873047 9.81142 0.873047 21.4994C0.873047 33.1874 10.348 42.6624 22.036 42.6624Z" fill="#F0F0F0"/>
<path d="M20.1951 21.4994C20.1951 21.4994 7.0832 36.4668 7.0708 36.4639C10.9005 40.2936 16.1913 42.6624 22.0353 42.6624C33.7232 42.6624 43.1983 33.1873 43.1983 21.4994H20.1951Z" fill="#D80027"/>
<path d="M7.07153 6.53467C-1.19311 14.7993 -1.19311 28.199 7.07153 36.4638C10.4868 33.0485 13.7714 29.7639 22.0361 21.4992L7.07153 6.53467Z" fill="#0052B4"/>
</svg>
