<svg width="44" height="43" viewBox="0 0 44 43" fill="none" xmlns="http://www.w3.org/2000/svg">
<g clip-path="url(#clip0)">
<path d="M2.06201 28.5235C5.05219 36.5823 12.8093 42.3255 21.9087 42.3255C31.008 42.3255 38.7652 36.5823 41.7553 28.5235L21.9087 26.6833L2.06201 28.5235Z" fill="#FFDA44"/>
<path d="M21.9087 -0.000244141C12.8093 -0.000244141 5.05219 5.74286 2.06201 13.8017L21.9087 15.6419L41.7553 13.8017C38.7652 5.74286 31.008 -0.000244141 21.9087 -0.000244141Z" fill="black"/>
<path d="M2.06193 13.8018C1.21127 16.0944 0.745605 18.5741 0.745605 21.1628C0.745605 23.7514 1.21127 26.2311 2.06193 28.5238H41.7553C42.606 26.2311 43.0716 23.7514 43.0716 21.1628C43.0716 18.5741 42.606 16.0944 41.7552 13.8018H2.06193Z" fill="#D80027"/>
</g>
<defs>
<clipPath id="clip0">
<rect width="42.326" height="42.326" fill="white" transform="translate(0.745605 -0.000244141)"/>
</clipPath>
</defs>
</svg>
