<svg width="22" height="23" viewBox="0 0 22 23" fill="none" xmlns="http://www.w3.org/2000/svg">
<path d="M0.999999 15.3333C0.999999 15.9227 1.23413 16.4879 1.65087 16.9047C2.06762 17.3214 2.63285 17.5556 3.22222 17.5556H16.5556L21 22V4.22222C21 3.63285 20.7659 3.06762 20.3491 2.65087C19.9324 2.23413 19.3671 2 18.7778 2H3.22222C2.63285 2 2.06762 2.23413 1.65087 2.65087C1.23413 3.06762 0.999999 3.63285 0.999999 4.22222V15.3333Z" stroke="#1AB248" stroke-width="1.5" stroke-linecap="round" stroke-linejoin="round"/>
<path d="M9 7.60286C9.188 7.06844 9.55907 6.61779 10.0475 6.33074C10.5359 6.04369 11.1102 5.93876 11.6685 6.03453C12.2269 6.13031 12.7334 6.42061 13.0982 6.85402C13.4631 7.28743 13.6628 7.83598 13.6619 8.40251C13.6619 10.0018 11.263 10.8014 11.263 10.8014M11.327 14H11.335" stroke="#1AB248" stroke-width="1.5" stroke-linecap="round" stroke-linejoin="round"/>
</svg>
