<svg width="104" height="60" viewBox="0 0 104 60" fill="none" xmlns="http://www.w3.org/2000/svg">
<path d="M52 0C39.3177 0 29 10.4068 29 23.1984C29 27.6083 30.1897 32.2869 32.5365 37.1043C34.3935 40.9167 36.9773 44.8279 40.2158 48.7294C45.7103 55.3483 51.1205 59.5977 51.3483 59.7755C51.5403 59.9254 51.7701 60 52 60C52.2299 60 52.4598 59.9251 52.6517 59.7755C52.8793 59.5977 58.2896 55.3483 63.7842 48.7294C67.0229 44.8279 69.6067 40.9167 71.4635 37.1043C73.8103 32.2868 75 27.6083 75 23.1984C75 10.4068 64.6823 0 52 0ZM52 14.3741C56.8318 14.3741 60.7488 18.3249 60.7488 23.1984C60.7488 28.0719 56.8318 32.0227 52 32.0227C47.1682 32.0227 43.2512 28.0719 43.2512 23.1984C43.2512 18.3249 47.1682 14.3741 52 14.3741Z" fill="#1AB248"/>
<path d="M13 26C5.83174 26 0 31.8972 0 39.1458C0 41.6447 0.672447 44.2959 1.9989 47.0258C3.04848 49.1861 4.50891 51.4025 6.33938 53.6133C9.44493 57.364 12.5029 59.772 12.6317 59.8728C12.7402 59.9577 12.8701 60 13 60C13.1299 60 13.2599 59.9576 13.3683 59.8728C13.497 59.772 16.555 57.364 19.6606 53.6133C21.4912 51.4025 22.9516 49.1861 24.0011 47.0258C25.3276 44.2958 26 41.6447 26 39.1458C26 31.8972 20.1683 26 13 26ZM13 34.1453C15.731 34.1453 17.945 36.3841 17.945 39.1458C17.945 41.9074 15.731 44.1462 13 44.1462C10.269 44.1462 8.05503 41.9074 8.05503 39.1458C8.05503 36.3841 10.269 34.1453 13 34.1453Z" fill="#1AB248"/>
<path d="M2.44864 46.8073L2.44862 46.8073C1.14828 44.1311 0.5 41.5545 0.5 39.1458C0.5 32.168 6.11312 26.5 13 26.5C19.8869 26.5 25.5 32.168 25.5 39.1458C25.5 41.5545 24.8517 44.1311 23.5514 46.8073L23.5514 46.8073C22.5223 48.9255 21.0854 51.1086 19.2755 53.2944C16.2054 57.0023 13.1815 59.384 13.0604 59.4789C13.0419 59.4933 13.0209 59.5 13 59.5C12.9788 59.5 12.9581 59.4934 12.9398 59.4791C12.8252 59.3893 9.798 57.0064 6.7245 53.2944C4.91471 51.1086 3.47776 48.9255 2.44864 46.8073ZM18.445 39.1458C18.445 36.1133 16.0124 33.6453 13 33.6453C9.9876 33.6453 7.55503 36.1133 7.55503 39.1458C7.55503 42.1783 9.9876 44.6462 13 44.6462C16.0124 44.6462 18.445 42.1783 18.445 39.1458Z" stroke="white" stroke-opacity="0.5"/>
<path d="M91 26C83.8317 26 78 31.8972 78 39.1458C78 41.6447 78.6724 44.2959 79.9989 47.0258C81.0485 49.1861 82.5089 51.4025 84.3394 53.6133C87.4449 57.364 90.5029 59.772 90.6317 59.8728C90.7402 59.9577 90.8701 60 91 60C91.1299 60 91.2599 59.9576 91.3683 59.8728C91.497 59.772 94.555 57.364 97.6606 53.6133C99.4912 51.4025 100.952 49.1861 102.001 47.0258C103.328 44.2958 104 41.6447 104 39.1458C104 31.8972 98.1683 26 91 26ZM91 34.1453C93.731 34.1453 95.945 36.3841 95.945 39.1458C95.945 41.9074 93.731 44.1462 91 44.1462C88.269 44.1462 86.055 41.9074 86.055 39.1458C86.055 36.3841 88.269 34.1453 91 34.1453Z" fill="#1AB248"/>
<path d="M80.4486 46.8073L80.4486 46.8073C79.1483 44.1311 78.5 41.5545 78.5 39.1458C78.5 32.168 84.1131 26.5 91 26.5C97.8869 26.5 103.5 32.168 103.5 39.1458C103.5 41.5545 102.852 44.1311 101.551 46.8073L101.551 46.8073C100.522 48.9255 99.0854 51.1086 97.2755 53.2944C94.2054 57.0023 91.1815 59.384 91.0604 59.4789C91.0419 59.4933 91.0209 59.5 91 59.5C90.9788 59.5 90.9581 59.4934 90.9398 59.4791C90.8252 59.3893 87.798 57.0064 84.7245 53.2944C82.9147 51.1086 81.4778 48.9255 80.4486 46.8073ZM96.445 39.1458C96.445 36.1133 94.0124 33.6453 91 33.6453C87.9876 33.6453 85.555 36.1133 85.555 39.1458C85.555 42.1783 87.9876 44.6462 91 44.6462C94.0124 44.6462 96.445 42.1783 96.445 39.1458Z" stroke="white" stroke-opacity="0.5"/>
</svg>
