<svg width="44" height="44" viewBox="0 0 44 44" fill="none" xmlns="http://www.w3.org/2000/svg">
<path d="M41.9619 17.7125C42.0684 17.7713 42.1885 17.8013 42.3101 17.7995C42.4318 17.7977 42.5509 17.7643 42.6557 17.7024C42.7605 17.6406 42.8474 17.5525 42.9078 17.4469C42.9681 17.3412 42.9999 17.2217 43 17.1V12.9C42.9999 12.7749 42.9663 12.6521 42.9027 12.5443C42.839 12.4366 42.7477 12.3479 42.6381 12.2875L34.6 7.8537V1.7C34.6 1.51435 34.5262 1.3363 34.395 1.20503C34.2637 1.07375 34.0857 1 33.9 1H30.4C30.2143 1 30.0363 1.07375 29.905 1.20503C29.7737 1.3363 29.7 1.51435 29.7 1.7V5.151L22.3325 1.091C22.2289 1.03376 22.1124 1.00374 21.9941 1.00374C21.8757 1.00374 21.7592 1.03376 21.6556 1.091L1.3619 12.291C1.25286 12.3511 1.16184 12.4393 1.09822 12.5463C1.03461 12.6534 1.0007 12.7755 1 12.9V17.1C1.00008 17.2217 1.03187 17.3412 1.09224 17.4469C1.15262 17.5525 1.23949 17.6406 1.34429 17.7024C1.44909 17.7643 1.56819 17.7977 1.68986 17.7995C1.81153 17.8013 1.93155 17.7713 2.0381 17.7125L5.2 15.9681V37.4H1.7C1.51435 37.4 1.3363 37.4737 1.20503 37.605C1.07375 37.7363 1 37.9143 1 38.1C1 38.2857 1.07375 38.4637 1.20503 38.595C1.3363 38.7262 1.51435 38.8 1.7 38.8H10.8V40.9C10.8 41.457 11.0212 41.9911 11.4151 42.3849C11.8089 42.7787 12.343 43 12.9 43H31.1C31.657 43 32.1911 42.7787 32.5849 42.3849C32.9787 41.9911 33.2 41.457 33.2 40.9V38.8H42.3C42.4856 38.8 42.6637 38.7262 42.795 38.595C42.9263 38.4637 43 38.2857 43 38.1C43 37.9143 42.9263 37.7363 42.795 37.605C42.6637 37.4737 42.4856 37.4 42.3 37.4H38.8V15.9688L41.9619 17.7125ZM31.1 2.4H33.2V7.0816L31.1 5.9231V2.4ZM2.4 13.313L21.9944 2.4994L41.6 13.313V15.9149L22.3325 5.2875C22.2289 5.23026 22.1124 5.20024 21.9941 5.20024C21.8757 5.20024 21.7592 5.23026 21.6556 5.2875L2.4 15.9142V13.313ZM31.8 40.9C31.8 41.0857 31.7262 41.2637 31.595 41.395C31.4637 41.5262 31.2857 41.6 31.1 41.6H12.9C12.7143 41.6 12.5363 41.5262 12.405 41.395C12.2737 41.2637 12.2 41.0857 12.2 40.9V22.7C12.2 22.5143 12.2737 22.3363 12.405 22.205C12.5363 22.0737 12.7143 22 12.9 22H18.5V29.7C18.4995 29.8193 18.5296 29.9368 18.5873 30.0413C18.645 30.1457 18.7285 30.2337 18.8297 30.2968C18.931 30.36 19.0468 30.3962 19.166 30.402C19.2852 30.4078 19.4039 30.383 19.5108 30.33L22.0238 29.0854L24.4843 30.3279C24.5913 30.3819 24.7103 30.4076 24.83 30.4025C24.9498 30.3974 25.0662 30.3616 25.1681 30.2985C25.27 30.2355 25.3541 30.1474 25.4122 30.0426C25.4703 29.9378 25.5005 29.8198 25.5 29.7V22H31.1C31.2857 22 31.4637 22.0737 31.595 22.205C31.7262 22.3363 31.8 22.5143 31.8 22.7V40.9ZM19.9 22H24.1V28.5625L22.3423 27.6749C22.2452 27.626 22.1381 27.6006 22.0294 27.6006C21.9207 27.6006 21.8136 27.626 21.7165 27.6749L19.9 28.5723V22ZM37.4 37.4H33.2V22.7C33.2 22.143 32.9787 21.6089 32.5849 21.2151C32.1911 20.8212 31.657 20.6 31.1 20.6H12.9C12.343 20.6 11.8089 20.8212 11.4151 21.2151C11.0212 21.6089 10.8 22.143 10.8 22.7V37.4H6.6V15.1953L21.9944 6.6994L37.4 15.1967V37.4Z" fill="#1AB248" stroke="#1AB248" stroke-width="0.1"/>
<path d="M18.5 13.6C18.5 14.2922 18.7053 14.9689 19.0899 15.5445C19.4744 16.12 20.0211 16.5686 20.6606 16.8336C21.3001 17.0985 22.0039 17.1678 22.6828 17.0327C23.3618 16.8977 23.9854 16.5643 24.4749 16.0748C24.9644 15.5854 25.2977 14.9617 25.4327 14.2828C25.5678 13.6039 25.4985 12.9001 25.2336 12.2606C24.9687 11.621 24.5201 11.0744 23.9445 10.6898C23.3689 10.3052 22.6922 10.1 22 10.1C21.0721 10.1011 20.1825 10.4702 19.5264 11.1263C18.8702 11.7825 18.5011 12.6721 18.5 13.6ZM22 11.5C22.4153 11.5 22.8214 11.6231 23.1667 11.8539C23.512 12.0846 23.7812 12.4126 23.9401 12.7963C24.0991 13.1801 24.1407 13.6023 24.0596 14.0097C23.9786 14.417 23.7786 14.7912 23.4849 15.0849C23.1912 15.3786 22.817 15.5786 22.4097 15.6596C22.0023 15.7407 21.5801 15.6991 21.1964 15.5401C20.8126 15.3812 20.4847 15.112 20.2539 14.7667C20.0232 14.4213 19.9 14.0153 19.9 13.6C19.9 13.043 20.1212 12.5089 20.5151 12.1151C20.9089 11.7212 21.443 11.5 22 11.5Z" fill="#1AB248" stroke="#1AB248" stroke-width="0.1"/>
</svg>
