<svg width="32" height="36" viewBox="0 0 32 36" fill="none" xmlns="http://www.w3.org/2000/svg">
<path d="M30.7966 6.5695L24.616 0.38895C24.4858 0.258741 24.3091 0.185547 24.125 0.185547H3.08333C1.93458 0.185547 1 1.12013 1 2.26888V33.6578C1 34.8066 1.93458 35.7412 3.08333 35.7412H28.9167C30.0654 35.7412 31 34.8066 31 33.6578V7.06055C31 6.87638 30.9268 6.69971 30.7966 6.5695ZM24.8194 2.55659L28.629 6.3661H25.5138C25.1309 6.3661 24.8194 6.05457 24.8194 5.67166V2.55659H24.8194ZM29.6111 33.6578C29.6111 34.0408 29.2995 34.3523 28.9167 34.3523H3.08333C2.70042 34.3523 2.38889 34.0408 2.38889 33.6578V2.26888C2.38889 1.88596 2.70042 1.57444 3.08333 1.57444H23.4306V5.67166C23.4306 6.82041 24.3651 7.75499 25.5139 7.75499H29.6111V33.6578Z" fill="#222222" stroke="#222222" stroke-width="0.3"/>
<path d="M13.7796 4.63281H5.44444C5.06097 4.63281 4.75 4.94372 4.75 5.32726C4.75 5.7108 5.06097 6.0217 5.44444 6.0217H13.7796C14.1631 6.0217 14.474 5.7108 14.474 5.32726C14.474 4.94372 14.1631 4.63281 13.7796 4.63281Z" fill="#222222" stroke="#222222" stroke-width="0.3"/>
<path d="M26.5556 11.2969H5.44444C5.06097 11.2969 4.75 11.6078 4.75 11.9913V25.3247C4.75 25.7082 5.06097 26.0191 5.44444 26.0191H26.5556C26.939 26.0191 27.25 25.7082 27.25 25.3247V11.9913C27.25 11.6078 26.939 11.2969 26.5556 11.2969ZM9.05556 24.6302H6.13889V21.5747H9.05556V24.6302ZM9.05556 20.1858H6.13889V17.1302H9.05556V20.1858ZM9.05556 15.7413H6.13889V12.6858H9.05556V15.7413ZM18.0833 24.6302H10.4444V21.5747H18.0833V24.6302ZM18.0833 20.1858H10.4444V17.1302H18.0833V20.1858ZM18.0833 15.7413H10.4444V12.6858H18.0833V15.7413ZM25.8611 24.6302H19.4722V21.5747H25.8611V24.6302ZM25.8611 20.1858H19.4722V17.1302H25.8611V20.1858ZM25.8611 15.7413H19.4722V12.6858H25.8611V15.7413Z" fill="#222222" stroke="#222222" stroke-width="0.3"/>
<path d="M26.5556 28.5186H21.6944C21.311 28.5186 21 28.8295 21 29.213C21 29.5965 21.311 29.9074 21.6944 29.9074H26.5556C26.939 29.9074 27.25 29.5965 27.25 29.213C27.25 28.8295 26.939 28.5186 26.5556 28.5186Z" fill="#222222" stroke="#222222" stroke-width="0.3"/>
</svg>
