<svg width="45" height="44" viewBox="0 0 45 44" fill="none" xmlns="http://www.w3.org/2000/svg">
<path d="M17.5 36C15.5167 36 14 37.5167 14 39.5C14 41.4833 15.5167 43 17.5 43C19.4833 43 21 41.4833 21 39.5C21 37.5167 19.4833 36 17.5 36ZM17.5 41.8333C16.2167 41.8333 15.1667 40.7833 15.1667 39.5C15.1667 38.2167 16.2167 37.1667 17.5 37.1667C18.7833 37.1667 19.8333 38.2167 19.8333 39.5C19.8333 40.7833 18.7833 41.8333 17.5 41.8333Z" fill="#1AB248" stroke="#1AB248" stroke-width="0.6"/>
<path d="M37.5 36C35.5167 36 34 37.5167 34 39.5C34 41.4833 35.5167 43 37.5 43C39.4833 43 41 41.4833 41 39.5C41 37.5167 39.4833 36 37.5 36ZM37.5 41.8333C36.2167 41.8333 35.1667 40.7833 35.1667 39.5C35.1667 38.2167 36.2167 37.1667 37.5 37.1667C38.7833 37.1667 39.8333 38.2167 39.8333 39.5C39.8333 40.7833 38.7833 41.8333 37.5 41.8333Z" fill="#1AB248" stroke="#1AB248" stroke-width="0.6"/>
<path d="M42.9692 7.53846H10.7423L7.53846 0H0V1.88462H6.21923L16.3962 26.3846H15.0769C13.0038 26.3846 11.3077 28.0808 11.3077 30.1538C11.3077 32.2269 13.0038 33.9231 15.0769 33.9231H41.4615V32.0385H15.0769C13.9462 32.0385 13.1923 31.2846 13.1923 30.1538C13.1923 29.0231 13.9462 28.2692 15.0769 28.2692H39.5769C40.5192 28.2692 41.2731 27.7038 41.4615 26.7615L44.8538 9.8C45.0423 8.66923 44.1 7.53846 42.9692 7.53846ZM39.5769 26.3846H18.4692L11.3077 9.42308H42.9692L39.5769 26.3846Z" fill="#1AB248"/>
</svg>
