<svg width="36" height="25" viewBox="0 0 36 25" fill="none" xmlns="http://www.w3.org/2000/svg">
<path d="M34.8836 8.20413L31.6916 1.91746C31.4042 1.35147 30.8548 1 30.2578 1C29.1814 1 6.8166 1 5.74217 1C5.14509 1 4.59577 1.35147 4.30838 1.91746L1.11632 8.20413C0.947547 8.53652 0.963372 8.93997 1.15767 9.25674C1.3378 9.55051 1.6437 9.72579 1.97588 9.72579H4.57492V22.3721C4.57492 23.2697 5.25064 24 6.0813 24C6.42208 24 29.5782 24 29.9189 24C30.7495 24 31.4253 23.2697 31.4253 22.3721L31.4252 14.5335C31.4252 14.2482 31.1942 15.0499 30.9091 15.0499C30.624 15.0499 30.393 14.2482 30.393 14.5335L30.3931 22.3722C30.3931 22.6947 30.176 22.9673 29.9189 22.9673H18.5161V3.67279L21.2077 8.97363C21.4432 9.43767 21.8955 9.72593 22.3879 9.72593H30.393V14.5335C30.393 14.8187 30.624 15.0499 30.9091 15.0499C31.1942 15.0499 31.4252 14.8188 31.4252 14.5335V9.72593H34.0242C34.3564 9.72593 34.6622 9.55058 34.8424 9.25687C35.0366 8.9399 35.0525 8.53659 34.8836 8.20413ZM2.03154 8.69315C2.03154 8.68661 2.03285 8.67931 2.0365 8.67201L5.22855 2.38535C5.33891 2.16793 5.53576 2.03285 5.74224 2.03285H17.159C16.7645 2.80979 14.4046 7.45727 13.8722 8.50589C13.8135 8.62134 13.7139 8.69315 13.6122 8.69315C13.321 8.69315 2.34584 8.69315 2.03154 8.69315ZM17.4839 22.9672H6.08123C5.82418 22.9673 5.60704 22.6948 5.60704 22.3722V9.72586H13.6121C14.1063 9.72586 14.5577 9.43601 14.7923 8.97363L17.4839 3.67273V22.9672ZM22.3879 8.69308C22.2862 8.69308 22.1865 8.62134 22.1279 8.50582L18.8411 2.03278H30.2579C30.4643 2.03278 30.661 2.16786 30.7715 2.38528L33.9636 8.67194C33.9673 8.67924 33.9686 8.68654 33.9686 8.69308C33.6537 8.69308 22.6792 8.69308 22.3879 8.69308Z" fill="#1AB248"/>
<path d="M31.4252 14.5335L31.4253 22.3721C31.4253 23.2697 30.7495 24 29.9189 24C29.5782 24 6.42208 24 6.0813 24C5.25064 24 4.57492 23.2697 4.57492 22.3721V9.72579H1.97588C1.6437 9.72579 1.3378 9.55051 1.15767 9.25674C0.963372 8.93997 0.947547 8.53652 1.11632 8.20413L4.30838 1.91746C4.59577 1.35147 5.14509 1 5.74217 1C6.8166 1 29.1814 1 30.2578 1C30.8548 1 31.4042 1.35147 31.6916 1.91746L34.8836 8.20413C35.0525 8.53659 35.0366 8.9399 34.8424 9.25687C34.6622 9.55058 34.3564 9.72593 34.0242 9.72593H31.4252V14.5335ZM31.4252 14.5335C31.4252 14.2482 31.1942 15.0499 30.9091 15.0499M31.4252 14.5335C31.4252 14.8188 31.1942 15.0499 30.9091 15.0499M30.9091 15.0499C30.624 15.0499 30.393 14.2482 30.393 14.5335M30.9091 15.0499C30.624 15.0499 30.393 14.8187 30.393 14.5335M30.393 14.5335L30.3931 22.3722C30.3931 22.6947 30.176 22.9673 29.9189 22.9673H18.5161V3.67279L21.2077 8.97363C21.4432 9.43767 21.8955 9.72593 22.3879 9.72593H30.393V14.5335ZM2.03154 8.69315C2.03154 8.68661 2.03285 8.67931 2.0365 8.67201L5.22855 2.38535C5.33891 2.16793 5.53576 2.03285 5.74224 2.03285H17.159C16.7645 2.80979 14.4046 7.45727 13.8722 8.50589C13.8135 8.62134 13.7139 8.69315 13.6122 8.69315C13.321 8.69315 2.34584 8.69315 2.03154 8.69315ZM17.4839 22.9672H6.08123C5.82418 22.9673 5.60704 22.6948 5.60704 22.3722V9.72586H13.6121C14.1063 9.72586 14.5577 9.43601 14.7923 8.97363L17.4839 3.67273V22.9672ZM22.3879 8.69308C22.2862 8.69308 22.1865 8.62134 22.1279 8.50582L18.8411 2.03278H30.2579C30.4643 2.03278 30.661 2.16786 30.7715 2.38528L33.9636 8.67194C33.9673 8.67924 33.9686 8.68654 33.9686 8.69308C33.6537 8.69308 22.6792 8.69308 22.3879 8.69308Z" stroke="#1AB248" stroke-width="0.2"/>
</svg>
