<svg width="31" height="31" viewBox="0 0 31 31" fill="none" xmlns="http://www.w3.org/2000/svg">
<path d="M0.799843 0.799852C1.26914 0.330551 2.03001 0.330551 2.49931 0.799852L29.8449 28.1453C30.3142 28.6146 30.3142 29.3755 29.8449 29.8448C29.6102 30.0796 29.3026 30.1968 28.9951 30.1968C28.6876 30.1968 28.38 30.0795 28.1453 29.8448L0.799843 2.49926C0.330599 2.03002 0.330599 1.26915 0.799843 0.799852Z" fill="white" stroke="white" stroke-width="0.5"/>
<path d="M0.79985 28.1453L28.1455 0.799852C28.6147 0.330551 29.3756 0.330551 29.8449 0.799852C30.3142 1.2691 30.3142 2.02996 29.8449 2.49926L2.49926 29.8448C2.26464 30.0795 1.95704 30.1968 1.6495 30.1968C1.34196 30.1968 1.03436 30.0795 0.799791 29.8449C0.330605 29.3755 0.330606 28.6147 0.79985 28.1453Z" fill="white" stroke="white" stroke-width="0.5"/>
</svg>
