<svg width="42" height="42" viewBox="0 0 42 42" fill="none" xmlns="http://www.w3.org/2000/svg">
<path d="M0 21.0002C0 23.5689 0.462082 26.0295 1.30618 28.3045L21 30.1306L40.6938 28.3045C41.5379 26.0295 42 23.5689 42 21.0002C42 18.4315 41.5379 15.9709 40.6938 13.6959L21 11.8698L1.30618 13.6959C0.462082 15.9709 0 18.4315 0 21.0002Z" fill="#FFDA44"/>
<path d="M40.6943 13.6957C37.7271 5.69896 30.0297 0 21.0005 0C11.9712 0 4.27379 5.69896 1.30664 13.6957H40.6943Z" fill="#D80027"/>
<path d="M1.30664 28.3043C4.27379 36.3011 11.9712 42 21.0005 42C30.0297 42 37.7271 36.3011 40.6943 28.3043H1.30664Z" fill="#D80027"/>
</svg>
