<svg width="42" height="42" viewBox="0 0 42 42" fill="none" xmlns="http://www.w3.org/2000/svg">
<path d="M21 42C32.598 42 42 32.598 42 21C42 9.40202 32.598 0 21 0C9.40202 0 0 9.40202 0 21C0 32.598 9.40202 42 21 42Z" fill="#F0F0F0"/>
<path d="M41.8222 18.2609H16.4349H16.4348V0.499199C14.4941 0.929535 12.6542 1.62705 10.9565 2.55343V18.2608V18.2609H0.177762C0.0608672 19.1575 0 20.0717 0 21C0 21.9284 0.0608672 22.8425 0.177762 23.7391H10.9564H10.9565V39.4466C12.6542 40.3729 14.4941 41.0705 16.4348 41.5008V23.7394V23.7392H41.8222C41.939 22.8425 42 21.9284 42 21C42 20.0717 41.939 19.1575 41.8222 18.2609Z" fill="#0052B4"/>
</svg>
