<svg width="39" height="21" viewBox="0 0 39 21" fill="none" xmlns="http://www.w3.org/2000/svg">
<path d="M37.218 16.2026L36.9306 15.9673C36.8931 15.9369 36.8511 15.9126 36.8059 15.8963L21.4805 10.2799C21.2564 10.198 21.0094 10.3154 20.9281 10.5431C20.8467 10.7703 20.9635 11.0214 21.1872 11.104L36.4451 16.6953L36.6756 16.8841C36.9694 17.1245 37.1375 17.4821 37.1375 17.8646C37.1375 18.5589 36.5808 19.1239 35.8969 19.1239H3.10394C2.42007 19.1239 1.86339 18.5587 1.86339 17.8646C1.86339 17.4453 2.06521 17.0591 2.40529 16.8238L19.6622 9.72886C19.8248 9.66174 19.9319 9.50086 19.9319 9.32273V7.13258C19.9319 6.89058 19.7384 6.69457 19.5003 6.69457C18.1915 6.69457 17.1272 5.61393 17.1272 4.28529C17.1272 2.95665 18.1917 1.87614 19.5003 1.87614C20.8087 1.87614 21.8734 2.95678 21.8734 4.28529C21.8734 4.5273 22.0668 4.7233 22.305 4.7233C22.5431 4.7233 22.7364 4.52717 22.7364 4.28529C22.7364 2.47352 21.2848 1 19.5003 1C17.7156 1 16.2642 2.47352 16.2642 4.28529C16.2642 5.94806 17.4875 7.32658 19.0689 7.54171V9.0281L2.04144 16.0286C2.01706 16.0384 1.99317 16.0508 1.97089 16.0653C1.36287 16.4597 1 17.1327 1 17.8646C1 19.0417 1.94368 20 3.10345 20H35.8966C37.0562 20 38 19.0417 38 17.8646C38.0005 17.2168 37.7152 16.6112 37.218 16.2026Z" fill="#1AB248" stroke="#1AB248" stroke-width="0.3"/>
</svg>
