<svg width="31" height="31" viewBox="0 0 31 31" fill="none" xmlns="http://www.w3.org/2000/svg">
<path d="M1.35105 0.800218C1.82035 0.330917 2.58121 0.330917 3.05052 0.800218L30.3961 28.1457C30.8654 28.615 30.8654 29.3759 30.3961 29.8452C30.1614 30.0799 29.8538 30.1972 29.5463 30.1972C29.2388 30.1972 28.9312 30.0799 28.6965 29.8451L1.35105 2.49963C0.881807 2.03038 0.881807 1.26952 1.35105 0.800218Z" fill="white" stroke="white" stroke-width="0.5"/>
<path d="M1.35106 28.1457L28.6967 0.800218C29.1659 0.330917 29.9268 0.330917 30.3961 0.800218C30.8654 1.26946 30.8654 2.03033 30.3961 2.49963L3.05047 29.8452C2.81585 30.0799 2.50825 30.1972 2.2007 30.1972C1.89316 30.1972 1.58556 30.0799 1.351 29.8452C0.881813 29.3759 0.881815 28.615 1.35106 28.1457Z" fill="white" stroke="white" stroke-width="0.5"/>
</svg>
