<svg width="43" height="39" viewBox="0 0 43 39" fill="none" xmlns="http://www.w3.org/2000/svg">
<path d="M21.4995 24.8086C20.5876 24.8086 19.8457 25.5505 19.8457 26.4624C19.8457 27.3743 20.5876 28.1162 21.4995 28.1162C22.4114 28.1162 23.1533 27.3743 23.1533 26.4624C23.1533 25.5505 22.4114 24.8086 21.4995 24.8086Z" fill="#1AB248"/>
<rect x="5.11914" y="17.3672" width="12.2857" height="1.43333" rx="0.716667" fill="#1AB248" stroke="#1AB248" stroke-width="0.3"/>
<rect x="5.11914" y="5.08008" width="12.2857" height="1.43333" rx="0.716667" fill="#1AB248" stroke="#1AB248" stroke-width="0.3"/>
<rect x="21.5" y="17.3672" width="12.2857" height="1.43333" rx="0.716667" fill="#1AB248" stroke="#1AB248" stroke-width="0.3"/>
<rect x="21.5" y="5.08008" width="12.2857" height="1.43333" rx="0.716667" fill="#1AB248" stroke="#1AB248" stroke-width="0.3"/>
<rect x="5.11914" y="13.2715" width="8.19048" height="1.43333" rx="0.716667" fill="#1AB248" stroke="#1AB248" stroke-width="0.3"/>
<rect x="21.5" y="13.2715" width="8.19048" height="1.43333" rx="0.716667" fill="#1AB248" stroke="#1AB248" stroke-width="0.3"/>
<rect x="5.11914" y="9.17578" width="8.19048" height="1.43333" rx="0.716667" fill="#1AB248" stroke="#1AB248" stroke-width="0.3"/>
<rect x="21.5" y="9.17578" width="12.2857" height="1.43333" rx="0.716667" fill="#1AB248" stroke="#1AB248" stroke-width="0.3"/>
<path fill-rule="evenodd" clip-rule="evenodd" d="M4.54809 0H38.4519C40.9598 0 43 2.04032 43 4.54809V23.1538V26.0481C43 28.5559 40.9597 30.5962 38.4519 30.5962H27.4702L28.7933 37.2115H33.0769C33.5336 37.2115 33.9038 37.5817 33.9038 38.0385C33.9038 38.4952 33.5336 38.8654 33.0769 38.8654H9.92309C9.46638 38.8654 9.09618 38.4952 9.09618 38.0385C9.09618 37.5817 9.46638 37.2115 9.92309 37.2115H14.2067L15.5298 30.5962H4.54809C2.04023 30.5962 0 28.5559 0 26.0481V23.1538V4.54809C0 2.04032 2.04023 0 4.54809 0ZM17.2164 30.5962L15.8933 37.2115H27.1067L25.7836 30.5962H17.2164ZM38.4519 28.9424C40.0479 28.9424 41.3462 27.644 41.3462 26.0481H41.3461V23.9808H1.65382V26.0481C1.65382 27.644 2.95222 28.9424 4.54809 28.9424H38.4519ZM1.65382 22.327H41.3462V4.54809C41.3462 2.95213 40.0478 1.65382 38.4519 1.65382H4.54809C2.95213 1.65382 1.65382 2.95222 1.65382 4.54809V18.389H1.65069V21.4605H1.65382V22.327Z" fill="#1AB248"/>
</svg>
