<svg width="43" height="43" viewBox="0 0 43 43" fill="none" xmlns="http://www.w3.org/2000/svg">
<path d="M21.1625 42.3257C32.8505 42.3257 42.3255 32.8507 42.3255 21.1627C42.3255 9.47475 32.8505 -0.000244141 21.1625 -0.000244141C9.4745 -0.000244141 -0.000488281 9.47475 -0.000488281 21.1627C-0.000488281 32.8507 9.4745 42.3257 21.1625 42.3257Z" fill="#F0F0F0"/>
<path d="M42.1463 18.4024H23.923H23.9229V0.178897C23.0193 0.0612608 22.098 -0.000244141 21.1625 -0.000244141C20.2269 -0.000244141 19.3057 0.0612608 18.4021 0.178897V18.4022V18.4023H0.178653C0.0610166 19.3059 -0.000488281 20.2272 -0.000488281 21.1627C-0.000488281 22.0985 0.0610166 23.0195 0.178653 23.9231H18.402H18.402V42.1466C19.3057 42.2642 20.2269 42.3257 21.1625 42.3257C22.098 42.3257 23.0193 42.2643 23.9229 42.1466V23.9233V23.9232H42.1463C42.264 23.0195 42.3255 22.0985 42.3255 21.1627C42.3255 20.2272 42.264 19.3059 42.1463 18.4024Z" fill="#D80027"/>
<path d="M12.8836 10.1232V7.36279H10.1232V10.1232H7.36279V12.8836H10.1232V15.644H12.8836V12.8836H15.644V10.1232H12.8836Z" fill="#D80027"/>
<path d="M32.2038 10.1232V7.36279H29.4435V10.1232H26.6831V12.8836H29.4435V15.644H32.2038V12.8836H34.9643V10.1232H32.2038Z" fill="#D80027"/>
<path d="M12.8836 29.4444V26.6841H10.1232V29.4444H7.36279V32.2048H10.1232V34.9653H12.8836V32.2048H15.644V29.4444H12.8836Z" fill="#D80027"/>
<path d="M32.2038 29.4444V26.6841H29.4435V29.4444H26.6831V32.2048H29.4435V34.9653H32.2038V32.2048H34.9643V29.4444H32.2038Z" fill="#D80027"/>
</svg>
