<svg width="101" height="66" viewBox="0 0 101 66" fill="none" xmlns="http://www.w3.org/2000/svg">
<path fill-rule="evenodd" clip-rule="evenodd" d="M14.436 65.4761L18.477 44.8229H25.1361L21.0951 65.4761H14.436ZM34.5271 58.7638H38.7388L37.6005 51.1336L34.5271 58.7638ZM25.193 65.4761L35.267 44.8229H41.8692L45.9101 65.4761H39.8202L39.4218 63.0092H32.9335L31.8521 65.4761H25.193ZM52.0001 65.4761L54.3336 49.9862H48.5282L49.4958 44.7656H67.3672L66.3996 49.9862H60.8788L58.6022 65.4761H52.0001ZM74.3678 58.7638H78.5795L77.4981 51.1336L74.3678 58.7638ZM65.0906 65.4761L75.1077 44.8229H81.7098L85.8646 65.4761H79.6039L79.3763 63.0092H72.7741L71.6927 65.4761H65.0906ZM100.264 21.4734H69.0746C67.9363 27.2678 63.9523 32.1442 55.9841 35.4717C56.8948 38.2828 59.9682 40.8071 63.1555 40.8071H80.1162C82.7343 40.8071 84.7263 38.5696 85.58 36.7912H68.3347C67.2533 36.6191 67.2533 35.8159 68.2778 35.6438H85.2386C87.4583 35.6438 89.3934 33.7506 90.5317 31.6853H70.8959C69.8145 31.5131 69.8145 30.71 70.8959 30.5379H90.7024C92.7514 30.5379 94.5157 28.1857 95.2556 26.5793H73.4571C72.3757 26.4072 72.3757 25.4319 73.4571 25.3746H95.654C97.4184 25.3746 99.0689 23.5387 100.264 21.4734ZM0.26416 21.4734H31.4537C32.592 27.2678 36.5761 32.1442 44.5442 35.4717C43.6335 38.2828 40.5601 40.8071 37.3729 40.8071H20.4121C17.794 40.8071 15.802 38.5696 14.9483 36.7912H32.1936C33.275 36.6191 33.275 35.8159 32.2505 35.6438H15.2898C13.0701 35.6438 11.135 33.7506 9.99666 31.6853H29.6324C30.7138 31.5131 30.7138 30.71 29.6324 30.5379H9.82591C7.77697 30.5379 6.0126 28.1857 5.2727 26.5793H27.0712C28.1526 26.4072 28.1526 25.4319 27.0712 25.3746H4.87429C3.10992 25.3746 1.45938 23.5387 0.26416 21.4734ZM40.1617 4.09037C41.3 5.06566 42.6091 5.98358 43.975 6.55727C45.1133 4.20511 46.8208 2.19717 48.699 0.476074C45.5117 0.820293 42.5522 2.08243 40.1617 4.09037ZM34.6409 15.6791H41.6415C41.6984 12.7532 42.3814 10.1716 43.5197 7.58993C41.983 6.95886 40.617 6.04095 39.308 4.95092C36.4053 7.81941 34.7548 11.5484 34.6409 15.6791ZM49.7235 9.02418V15.6791H42.7229C42.7798 13.0401 43.349 10.4584 44.4873 7.99152C46.1378 8.62259 47.9591 8.96681 49.7235 9.02418ZM60.3666 4.09037C59.2283 5.06566 57.9193 5.98358 56.5533 6.55727C55.3581 4.20511 53.7644 2.31191 51.8293 0.476074C55.0166 0.820293 57.9193 2.08243 60.3666 4.09037ZM65.8874 15.6791H58.8868C58.8299 12.8106 58.1469 10.1716 57.1224 7.58993C58.6022 6.95886 59.9682 6.04095 61.2773 4.95092C64.1799 7.93415 65.7166 11.6632 65.8874 15.6791ZM50.8618 9.02418V15.6791H57.7485C57.7485 12.9827 57.1224 10.4584 55.9841 7.99152C54.3336 8.62259 52.5692 8.96681 50.8618 9.02418ZM40.1617 28.2431C41.3 27.3251 42.6091 26.3499 43.975 25.8909C45.1703 28.2431 46.7639 30.251 48.699 31.9721C45.5117 31.5705 42.5522 30.4231 40.1617 28.2431ZM34.6409 16.8265H41.6415C41.6984 19.695 42.3814 22.2192 43.5197 24.9156C41.983 25.5467 40.617 26.4646 39.308 27.5546C36.4622 24.6861 34.7548 20.8997 34.6409 16.8265ZM49.7235 23.424V16.8265H42.7229C42.7798 19.4655 43.349 22.1619 44.4873 24.4567C46.1378 23.8256 47.9591 23.424 49.7235 23.424ZM60.3666 28.2431C59.2852 27.3251 57.9193 26.4646 56.5533 25.8909C55.3581 28.2431 53.7644 30.251 51.8293 31.9721C55.0166 31.5705 57.9193 30.4231 60.3666 28.2431ZM65.8874 16.8265H58.8868C58.8299 19.695 58.2607 22.334 57.1224 24.9156C58.6022 25.5467 59.9682 26.4646 61.2773 27.5546C64.0092 24.6861 65.7166 20.8424 65.8874 16.8265ZM50.8618 23.424V16.8265H57.7485C57.7485 19.4655 57.1224 22.0471 55.9841 24.4567C54.4474 23.8256 52.5692 23.424 50.8618 23.424ZM49.7235 1.16451C47.8453 2.65613 46.1378 4.77881 44.9995 6.95886C46.5362 7.47519 48.0729 7.87678 49.7235 7.87678V1.16451ZM50.8618 1.16451C52.6261 2.65613 54.3336 4.77881 55.4719 6.95886C53.9352 7.53256 52.3985 7.87678 50.8618 7.87678V1.16451ZM49.7235 31.2837C47.8453 29.792 46.1378 27.6694 44.9995 25.4893C46.5362 24.9156 48.0729 24.5714 49.7235 24.5714V31.2837ZM50.8618 31.3984C52.6261 29.8494 54.3336 27.7267 55.4719 25.4893C53.9352 24.973 52.3985 24.5714 50.8618 24.5714V31.3984Z" fill="#666666"/>
</svg>
