<svg width="42" height="42" viewBox="0 0 42 42" fill="none" xmlns="http://www.w3.org/2000/svg">
<path d="M21 42C32.598 42 42 32.598 42 21C42 9.40202 32.598 0 21 0C9.40202 0 0 9.40202 0 21C0 32.598 9.40202 42 21 42Z" fill="#F0F0F0"/>
<path d="M28.9073 16.435H23.6357L21 11.8698L18.3644 16.435H13.0928L15.7288 21.0002L13.0928 25.5654H18.3644L21 30.1306L23.6357 25.5654H28.9073L26.2713 21.0002L28.9073 16.435ZM24.2382 21.0002L22.6192 23.8047H19.381L17.7618 21.0002L19.381 18.1957H22.6191L24.2382 21.0002ZM21 15.3911L21.6026 16.4349H20.3976L21 15.3911ZM16.1426 18.1957H17.3478L16.7452 19.2395L16.1426 18.1957ZM16.1426 23.8047L16.7453 22.7609L17.3479 23.8047H16.1426ZM21 26.6092L20.3975 25.5654H21.6026L21 26.6092ZM25.8574 23.8047H24.6522L25.2549 22.7609L25.8574 23.8047ZM24.6522 18.1957H25.8574L25.2548 19.2395L24.6522 18.1957Z" fill="#0052B4"/>
<path d="M34.072 4.56534H7.92754C6.01104 6.09178 4.36746 7.94585 3.08203 10.0436H38.9175C37.632 7.94593 35.9885 6.09178 34.072 4.56534Z" fill="#0052B4"/>
<path d="M7.92754 37.4349H34.072C35.9885 35.9084 37.632 34.0543 38.9175 31.9566H3.08203C4.36754 34.0543 6.01112 35.9084 7.92754 37.4349Z" fill="#0052B4"/>
</svg>
