<svg width="36" height="36" viewBox="0 0 36 36" fill="none" xmlns="http://www.w3.org/2000/svg">
<path d="M21.5412 30.7492H15.8746C13.9225 30.7492 12.333 29.1597 12.333 27.2076V24.3743C12.333 23.9833 12.6503 23.666 13.0413 23.666C13.4323 23.666 13.7496 23.9833 13.7496 24.3743V27.2076C13.7496 28.3792 14.703 29.3326 15.8746 29.3326H21.5412C21.9321 29.3326 22.2495 29.6499 22.2495 30.0409C22.2495 30.4319 21.9321 30.7492 21.5412 30.7492Z" fill="#222222" stroke="#222222" stroke-width="0.4"/>
<path d="M15.8747 16.5827H1.70832C1.31733 16.5827 1 16.2653 1 15.8743C1 15.4833 1.31733 15.166 1.70832 15.166H15.8747C16.2657 15.166 16.583 15.4833 16.583 15.8743C16.583 16.2653 16.2657 16.5827 15.8747 16.5827Z" fill="#222222" stroke="#222222" stroke-width="0.4"/>
<path d="M23.6663 34.9993C22.1037 34.9993 20.833 33.7286 20.833 32.166V6.66655C20.833 5.44825 21.615 4.37018 22.7781 3.98202L31.2779 1.14875C31.547 1.05242 31.8516 1 32.1661 1C33.7287 1 34.9994 2.27072 34.9994 3.83328V29.3328C34.9994 30.5497 34.2188 31.6291 33.0558 32.0159L24.5559 34.8492C24.2825 34.9469 23.9779 34.9993 23.6663 34.9993ZM32.1661 2.41664C32.0188 2.41664 31.8715 2.44214 31.7411 2.48747L23.2257 5.32641C22.6406 5.52049 22.2496 6.05882 22.2496 6.66655V32.166C22.2496 32.9466 22.8857 33.5827 23.6663 33.5827C23.8136 33.5827 23.9609 33.5572 24.0941 33.5104L32.6081 30.6729C33.1903 30.4774 33.5828 29.9391 33.5828 29.3328V3.83328C33.5828 3.05271 32.9467 2.41664 32.1661 2.41664Z" fill="#222222" stroke="#222222" stroke-width="0.4"/>
<path d="M13.0413 8.08319C12.6503 8.08319 12.333 7.76587 12.333 7.37487V4.5416C12.333 2.58947 13.9225 1 15.8746 1H32.1659C32.5569 1 32.8743 1.31733 32.8743 1.70832C32.8743 2.09931 32.5569 2.41664 32.1659 2.41664H15.8746C14.703 2.41664 13.7496 3.37004 13.7496 4.5416V7.37487C13.7496 7.76587 13.4323 8.08319 13.0413 8.08319Z" fill="#222222" stroke="#222222" stroke-width="0.4"/>
<path d="M10.2077 22.2497C10.0264 22.2497 9.84504 22.1802 9.70621 22.0428C9.42996 21.7666 9.42996 21.3175 9.70621 21.0413L14.8727 15.8748L9.70621 10.7097C9.42996 10.4335 9.42996 9.9844 9.70621 9.70816C9.98245 9.43192 10.4315 9.43192 10.7078 9.70816L16.3743 15.3747C16.6506 15.651 16.6506 16.1 16.3743 16.3763L10.7078 22.0428C10.5704 22.1802 10.389 22.2497 10.2077 22.2497Z" fill="#222222" stroke="#222222" stroke-width="0.4"/>
</svg>
