<svg width="43" height="43" viewBox="0 0 43 43" fill="none" xmlns="http://www.w3.org/2000/svg">
<path d="M21.3446 42.3257C33.0326 42.3257 42.5076 32.8507 42.5076 21.1627C42.5076 9.47475 33.0326 -0.000244141 21.3446 -0.000244141C9.65663 -0.000244141 0.181641 9.47475 0.181641 21.1627C0.181641 32.8507 9.65663 42.3257 21.3446 42.3257Z" fill="#D80027"/>
<path d="M31.6942 21.1628L27.4653 23.152L29.7173 27.2479L25.1248 26.3692L24.5432 31.0082L21.3443 27.5965L18.1457 31.0082L17.5638 26.3692L12.9718 27.2477L15.2237 23.1518L10.9946 21.1628L15.2237 19.1737L12.9718 15.0777L17.5637 15.9565L18.1459 11.3174L21.3443 14.7292L24.5433 11.3174L25.1248 15.9565L29.7174 15.0777L27.4654 19.174L31.6942 21.1628Z" fill="#FFDA44"/>
<path d="M21.3442 27.6035C24.9014 27.6035 27.7851 24.7198 27.7851 21.1626C27.7851 17.6054 24.9014 14.7217 21.3442 14.7217C17.787 14.7217 14.9033 17.6054 14.9033 21.1626C14.9033 24.7198 17.787 27.6035 21.3442 27.6035Z" fill="#D80027"/>
<path d="M18.1241 21.1626C17.9689 21.1626 17.8158 21.1705 17.6646 21.1856C17.6701 22.0777 17.9928 22.8942 18.5259 23.5285C18.8102 22.7632 19.2348 22.0654 19.7703 21.4682C19.2589 21.2716 18.7041 21.1626 18.1241 21.1626Z" fill="#FFDA44"/>
<path d="M20.1064 24.6292C20.4933 24.7674 20.9099 24.8432 21.3444 24.8432C21.7789 24.8432 22.1955 24.7674 22.5823 24.6292C22.3715 23.8015 21.9361 23.0626 21.3444 22.4819C20.7527 23.0625 20.3173 23.8015 20.1064 24.6292Z" fill="#FFDA44"/>
<path d="M24.5322 19.323C23.8959 18.223 22.7073 17.4822 21.345 17.4822C19.9826 17.4822 18.7941 18.223 18.1577 19.323C19.3179 19.3289 20.4058 19.6444 21.345 20.1891C22.2842 19.6444 23.3719 19.3289 24.5322 19.323Z" fill="#FFDA44"/>
<path d="M22.9189 21.4682C23.4544 22.0653 23.879 22.7631 24.1633 23.5285C24.6964 22.8942 25.0191 22.0776 25.0247 21.1856C24.8734 21.1704 24.7202 21.1626 24.5651 21.1626C23.9853 21.1625 23.4305 21.2715 22.9189 21.4682Z" fill="#FFDA44"/>
</svg>
