<svg width="43" height="43" viewBox="0 0 43 43" fill="none" xmlns="http://www.w3.org/2000/svg">
<circle cx="21.4726" cy="21.4994" r="21.163" fill="#F0F0F0"/>
<path d="M24.8608 16.0764C21.9707 14.0871 18.067 14.9005 16.1415 17.8793C15.1757 19.3661 15.5682 21.3864 17.0133 22.3811C18.4572 23.3757 20.4077 22.9718 21.3711 21.4798C22.3345 19.9878 24.2863 19.5889 25.7302 20.5784C27.1764 21.573 27.5653 23.5934 26.6007 25.0802C28.5275 22.0962 27.7486 18.0658 24.8608 16.0764Z" fill="#D80027"/>
<path d="M16.3441 17.592C15.3782 19.0785 15.7707 21.0982 17.2159 22.0927C18.6599 23.0871 20.6105 22.6832 21.5739 21.1916C22.5374 19.7 24.4893 19.3012 25.9333 20.2904C27.3796 21.2848 27.7686 23.3046 26.8038 24.791C24.8796 27.7794 20.9768 28.5822 18.0866 26.5934C15.1988 24.6047 14.4172 20.5753 16.3441 17.592Z" fill="#41479B"/>
<path d="M28.1249 13.8572L29.2656 15.5717C29.3614 15.7157 29.3226 15.9102 29.1789 16.0065L28.8896 16.2002C28.7453 16.2969 28.5499 16.2579 28.4536 16.1134L27.3115 14.3993C27.2154 14.2551 27.2543 14.0603 27.3985 13.9641L27.6891 13.77C27.8335 13.6736 28.0287 13.7128 28.1249 13.8572Z" fill="#464655"/>
<path d="M29.8844 16.5003L31.0288 18.2138C31.1254 18.3585 31.086 18.5542 30.9408 18.6501L30.6504 18.8421C30.5062 18.9374 30.3122 18.8983 30.2162 18.7546L29.0725 17.043C28.9762 16.8988 29.0149 16.7039 29.1591 16.6075L29.4489 16.4138C29.5931 16.3173 29.7881 16.3561 29.8844 16.5003Z" fill="#464655"/>
<path d="M29.3462 13.0417L32.2506 17.4005C32.3467 17.5448 32.3077 17.7397 32.1634 17.8359L31.8716 18.0304C31.7274 18.1266 31.5324 18.0876 31.4362 17.9434L28.5308 13.5849C28.4345 13.4406 28.4737 13.2455 28.6181 13.1494L28.9108 12.9546C29.0552 12.8584 29.25 12.8975 29.3462 13.0417Z" fill="#464655"/>
<path d="M30.5633 12.2276L31.7065 13.9454C31.8027 14.0901 31.7632 14.2855 31.6182 14.3813L31.3275 14.5735C31.1832 14.6688 30.9891 14.6296 30.8931 14.4857L29.7491 12.7701C29.6529 12.6258 29.6918 12.4309 29.8362 12.3347L30.1278 12.1403C30.2721 12.044 30.4671 12.0831 30.5633 12.2276Z" fill="#464655"/>
<path d="M32.3257 14.8765L33.4671 16.5908C33.5631 16.7349 33.5243 16.9295 33.3803 17.0258L33.0904 17.2196C32.9461 17.3162 32.7508 17.2772 32.6546 17.1326L31.5131 15.4183C31.4171 15.2742 31.456 15.0796 31.6 14.9833L31.8898 14.7895C32.0342 14.6929 32.2295 14.7319 32.3257 14.8765Z" fill="#464655"/>
<path d="M12.6732 24.157L15.5773 28.5111C15.6735 28.6553 15.6346 28.8502 15.4904 28.9465L15.1996 29.1407C15.0553 29.237 14.8602 29.1981 14.764 29.0537L11.8599 24.6996C11.7637 24.5554 11.8027 24.3605 11.9468 24.2643L12.2377 24.0701C12.382 23.9738 12.577 24.0127 12.6732 24.157Z" fill="#464655"/>
<path d="M11.4548 24.9714L12.5949 26.6816C12.691 26.8257 12.6523 27.0203 12.5084 27.1167L12.2191 27.3103C12.0749 27.4068 11.8797 27.3681 11.7834 27.2237L10.6418 25.514C10.5454 25.3698 10.5844 25.1748 10.7285 25.0785L11.0192 24.8844C11.1635 24.7881 11.3586 24.8271 11.4548 24.9714Z" fill="#464655"/>
<path d="M13.2168 27.6161L14.3583 29.3305C14.4543 29.4746 14.4154 29.6693 14.2714 29.7655L13.9813 29.9594C13.837 30.0559 13.6418 30.017 13.5456 29.8725L12.4033 28.1583C12.3072 28.0141 12.3461 27.8194 12.4903 27.7231L12.7811 27.5289C12.9254 27.4326 13.1206 27.4716 13.2168 27.6161Z" fill="#464655"/>
<path d="M10.2357 25.7849L13.1379 30.1392C13.234 30.2833 13.1952 30.4781 13.0511 30.5743L12.7611 30.7682C12.6168 30.8647 12.4217 30.8257 12.3254 30.6814L9.42146 26.3277C9.32521 26.1834 9.3642 25.9884 9.50853 25.8922L9.80026 25.6977C9.94453 25.6016 10.1395 25.6406 10.2357 25.7849Z" fill="#464655"/>
<path d="M11.8609 18.2138L14.7645 13.8562C14.8607 13.7118 15.0558 13.6728 15.2001 13.7692L15.4909 13.9634C15.6351 14.0596 15.6739 14.2545 15.5777 14.3987L12.6729 18.7538C12.577 18.8977 12.3827 18.9369 12.2384 18.8415L11.9489 18.6498C11.8039 18.5538 11.7645 18.3585 11.8609 18.2138Z" fill="#464655"/>
<path d="M10.6416 17.4011L13.5458 13.0426C13.6421 12.8981 13.8373 12.8592 13.9816 12.9557L14.2716 13.1495C14.4156 13.2458 14.4544 13.4405 14.3584 13.5846L11.455 17.9433C11.3588 18.0877 11.1637 18.1268 11.0193 18.0304L10.7285 17.8363C10.5844 17.7401 10.5455 17.5453 10.6416 17.4011Z" fill="#464655"/>
<path d="M9.42036 16.5913L12.3248 12.2285C12.421 12.084 12.6163 12.045 12.7606 12.1415L13.0507 12.3354C13.1946 12.4317 13.2335 12.6262 13.1376 12.7704L10.2349 17.1337C10.1388 17.2782 9.94371 17.3173 9.7993 17.2211L9.50757 17.0266C9.36331 16.9304 9.32425 16.7356 9.42036 16.5913Z" fill="#464655"/>
<path d="M27.3117 28.5112L28.4533 26.8014C28.5497 26.6571 28.7449 26.6183 28.8891 26.7148L29.1784 26.9085C29.3223 27.0049 29.361 27.1996 29.2649 27.3436L28.1248 29.0537C28.0285 29.1981 27.8335 29.237 27.6892 29.1407L27.3985 28.9467C27.2543 28.8503 27.2154 28.6554 27.3117 28.5112Z" fill="#464655"/>
<path d="M29.0721 25.8755L30.2155 24.1573C30.3116 24.0128 30.5067 23.9737 30.6511 24.07L30.9425 24.2642C31.0869 24.3604 31.1258 24.5556 31.0294 24.6998L29.8836 26.4154C29.7876 26.5592 29.5932 26.5982 29.449 26.5027L29.1601 26.3112C29.0154 26.2153 28.976 26.0201 29.0721 25.8755Z" fill="#464655"/>
<path d="M28.5307 29.3302L29.673 27.616C29.7692 27.4717 29.9642 27.4326 30.1085 27.5289L30.4005 27.7236C30.5447 27.8197 30.5837 28.0145 30.4876 28.1588L29.3461 29.8732C29.25 30.0176 29.0551 30.0567 28.9107 29.9606L28.618 29.7657C28.4737 29.6696 28.4346 29.4746 28.5307 29.3302Z" fill="#464655"/>
<path d="M30.2927 26.6813L31.4356 24.9711C31.5318 24.827 31.7267 24.7882 31.8708 24.8843L32.1625 25.0788C32.3069 25.175 32.3458 25.3702 32.2494 25.5145L31.1066 27.2248C31.0103 27.3688 30.8155 27.4076 30.6713 27.3115L30.3795 27.117C30.2352 27.0207 30.1963 26.8256 30.2927 26.6813Z" fill="#464655"/>
<path d="M29.7502 30.1387L30.8937 28.4274C30.9897 28.2837 31.1837 28.2447 31.3279 28.3399L31.6186 28.5321C31.7637 28.6279 31.8032 28.8235 31.7067 28.9682L30.5641 30.6817C30.4679 30.826 30.273 30.865 30.1286 30.7688L29.8371 30.5744C29.6927 30.4781 29.6538 30.2829 29.7502 30.1387Z" fill="#464655"/>
<path d="M31.5131 27.4993L32.6538 25.786C32.7501 25.6415 32.9453 25.6025 33.0897 25.699L33.3793 25.8926C33.5234 25.989 33.5621 26.1838 33.466 26.3279L32.3244 28.039C32.2283 28.1829 32.0339 28.222 31.8897 28.1264L31.601 27.935C31.4562 27.8391 31.4169 27.6439 31.5131 27.4993Z" fill="#464655"/>
</svg>
