<svg width="43" height="43" viewBox="0 0 43 43" fill="none" xmlns="http://www.w3.org/2000/svg">
<path d="M21.7811 42.3257C33.4691 42.3257 42.9441 32.8507 42.9441 21.1627C42.9441 9.47475 33.4691 -0.000244141 21.7811 -0.000244141C10.0932 -0.000244141 0.618164 9.47475 0.618164 21.1627C0.618164 32.8507 10.0932 42.3257 21.7811 42.3257Z" fill="#338AF3"/>
<path d="M33.7428 21.3931H9.81934C9.81934 23.0447 11.2578 24.3835 12.9093 24.3835H12.8098C12.8098 26.0351 14.1486 27.3739 15.8002 27.3739C15.8002 29.0255 17.139 30.3644 18.7906 30.3644H24.7715C26.4231 30.3644 27.7619 29.0255 27.7619 27.3739C29.4135 27.3739 30.7523 26.0351 30.7523 24.3835H30.6528C32.3041 24.3835 33.7428 23.0447 33.7428 21.3931Z" fill="#FFDA44"/>
<path d="M30.0623 17.4822C30.0623 22.0557 26.3547 25.7634 21.7812 25.7634C17.2076 25.7634 13.5 22.0557 13.5 17.4822" fill="#338AF3"/>
<path d="M28.1062 17.4822L25.5216 18.698L26.898 21.2012L24.0914 20.6643L23.7357 23.4995L21.7809 21.4142L19.826 23.4995L19.4704 20.6643L16.6638 21.201L18.0401 18.6979L15.4556 17.4822L18.0402 16.2665L16.6638 13.7634L19.4703 14.3003L19.8261 11.4651L21.7809 13.5504L23.7358 11.4651L24.0914 14.3003L26.898 13.7634L25.5217 16.2666L28.1062 17.4822Z" fill="#FFDA44"/>
</svg>
