<svg width="45" height="49" viewBox="0 0 45 49" fill="none" xmlns="http://www.w3.org/2000/svg">
<path d="M39.1974 42.555V20.6659L22.5274 14.6865L5.85742 20.6659V42.555L22.5274 48.0265L39.1974 42.555Z" fill="#F9BC35"/>
<path d="M39.1973 42.555V20.6659L22.5273 14.6865V48.0265L39.1973 42.555Z" fill="#F39E31"/>
<path d="M39.1974 20.5953L22.5274 14.6865L5.85742 20.5953L22.5274 26.5937L39.1974 20.5953Z" fill="#F9BC35"/>
<path d="M39.1973 20.5953L22.5273 14.6865V26.5937L39.1973 20.5953Z" fill="#F39E31"/>
<path d="M5.93663 20.6162L-0.000976562 27.6422L17.4738 33.9926L23.0886 26.6513L5.93663 20.6162Z" fill="#FFDE33"/>
<path d="M39.1803 20.6406L44.9995 27.5203L27.8789 33.7385L22.376 26.5501L39.1803 20.6406Z" fill="#FFDE33"/>
<path d="M29.5309 0.905273C33.6936 0.905273 36.5624 3.96912 36.5624 7.59871C36.5624 12.6191 30.8404 15.9424 22.4995 22.281C14.1586 15.9424 8.43652 12.6191 8.43652 7.59871C8.43652 3.96912 11.3054 0.905273 15.468 0.905273C20.8119 0.905273 22.4995 6.24919 22.4995 6.24919C22.4995 6.24919 24.187 0.905273 29.5309 0.905273Z" fill="#1AB248"/>
<path fill-rule="evenodd" clip-rule="evenodd" d="M22.5 22.2806C23.7817 21.3066 25.0016 20.4038 26.1483 19.5551C32.4641 14.8808 36.5625 11.8476 36.5625 7.59871C36.5625 3.96912 33.6937 0.905273 29.5311 0.905273C24.235 0.905273 22.5301 6.15388 22.5 6.24791V22.2806Z" fill="#269449"/>
</svg>
