<svg width="32" height="52" viewBox="0 0 32 52" fill="none" xmlns="http://www.w3.org/2000/svg">
<path d="M30.2335 42.8789L16.8018 51.3676C16.318 51.6738 15.6943 51.68 15.2008 51.3676L1.76914 42.8789C0.838621 42.2904 0.838721 40.9317 1.76914 40.3432L15.0069 31.9775C15.4904 31.6721 16.1082 31.6693 16.5909 31.9675L30.2175 40.3333C31.1625 40.9121 31.1703 42.2861 30.2335 42.8789Z" fill="#27C056"/>
<path d="M30.2331 42.8792L16.8015 51.368C16.5566 51.523 16.2788 51.6 16.001 51.6V31.7588C16.4544 31.8186 15.5073 31.3027 30.2172 40.3336C31.1622 40.9124 31.17 42.2864 30.2331 42.8792Z" fill="#1AB248"/>
<path d="M31.0221 21.6584C29.7389 25.3748 27.3973 28.5463 25.1337 31.6129C22.9031 34.6347 23.7779 33.4843 17.2296 42.8433C16.6344 43.6983 15.3664 43.6983 14.7712 42.8433C8.68974 34.1783 9.43987 35.0983 6.86707 31.6129C4.60348 28.5463 2.26193 25.3748 0.978728 21.6584C-0.878119 16.2781 -0.0756168 10.9549 3.23932 6.66855C6.27444 2.74408 11.0455 0.400391 16.0004 0.400391C20.9553 0.400391 25.7264 2.74408 28.7615 6.66855C32.2112 11.1289 32.8018 16.5014 31.0221 21.6584Z" fill="#FF4D4D"/>
<path d="M31.0227 21.6584C29.7395 25.3748 27.3979 28.5463 25.1343 31.6129C22.9037 34.6347 23.7785 33.4843 17.2302 42.8433C16.9504 43.2452 16.4907 43.4852 16.001 43.4852V0.400391C20.9559 0.400391 25.7269 2.74408 28.7621 6.66855C32.2118 11.1289 32.8024 16.5014 31.0227 21.6584Z" fill="#CD0000"/>
<path d="M22.9666 16.5344C22.9666 20.3769 19.8415 23.5034 15.9999 23.5034C12.1583 23.5034 9.0332 20.3768 9.0332 16.5344C9.0332 12.6909 12.1583 9.56445 15.9999 9.56445C19.8415 9.56445 22.9666 12.6909 22.9666 16.5344Z" fill="#F0F7FF"/>
<path d="M22.9676 16.5344C22.9676 20.3769 19.8426 23.5034 16.001 23.5034V9.56445C19.8426 9.56445 22.9676 12.6909 22.9676 16.5344Z" fill="#DFE7F4"/>
</svg>
