<svg width="43" height="43" viewBox="0 0 43 43" fill="none" xmlns="http://www.w3.org/2000/svg">
<path d="M35.7092 32.8164H32.4834C32.0196 32.8164 31.6436 33.1924 31.6436 33.6562C31.6436 34.1201 32.0196 34.4961 32.4834 34.4961H35.7092C36.173 34.4961 36.549 34.1201 36.549 33.6562C36.549 33.1924 36.173 32.8164 35.7092 32.8164Z" fill="#1AB248"/>
<path d="M30.5312 31.0137H35.7091C36.1729 31.0137 36.5489 30.6377 36.5489 30.1738C36.5489 29.71 36.1729 29.334 35.7091 29.334H30.5312C30.0674 29.334 29.6914 29.71 29.6914 30.1738C29.6914 30.6377 30.0674 31.0137 30.5312 31.0137Z" fill="#1AB248"/>
<path d="M17.2466 28.7129H8.45499C7.48254 28.7129 6.69141 29.504 6.69141 30.4765V32.7333C6.69141 33.7058 7.48254 34.4969 8.45499 34.4969H17.2466C18.219 34.4969 19.0101 33.7058 19.0101 32.7333V30.4765C19.0101 29.504 18.2189 28.7129 17.2466 28.7129ZM17.3304 32.7332C17.3304 32.7779 17.2912 32.8171 17.2465 32.8171H8.45499C8.41031 32.8171 8.37109 32.7779 8.37109 32.7332V30.4764C8.37109 30.4317 8.41031 30.3925 8.45499 30.3925H17.2466C17.2896 30.3925 17.3305 30.4332 17.3305 30.4764V32.7332H17.3304Z" fill="#1AB248"/>
<path d="M42.1602 36.7066H40.1956V0.839844C40.1956 0.375998 39.8196 0 39.3558 0H19.4253C18.9614 0 18.5854 0.375998 18.5854 0.839844V13.4386H3.64425C3.1804 13.4386 2.80441 13.8146 2.80441 14.2784V36.7067H0.839844C0.375998 36.7067 0 37.0827 0 37.5466V42.1602C0 42.624 0.375998 43 0.839844 43H25.2697C25.7336 43 24.4299 42.624 24.4299 42.1602C24.4299 41.6963 25.7336 41.3203 25.2697 41.3203H1.67969V38.3863H41.3203V41.3203H25.2697C24.8059 41.3203 24.4299 41.6963 24.4299 42.1602C24.4299 42.624 24.8059 43 25.2697 43H42.1602C42.624 43 43 42.624 43 42.1602V37.5465C43 37.0826 42.624 36.7066 42.1602 36.7066ZM27.5022 1.67969H31.2765V5.65416L29.8358 4.75326C29.5634 4.58294 29.2178 4.58286 28.9455 4.7531L27.5021 5.65484L27.5022 1.67969ZM20.2651 1.67969H25.8225V7.16991C25.8225 7.4752 25.9882 7.75646 26.2552 7.90444C26.5222 8.05251 26.8485 8.04394 27.1074 7.88219L29.3903 6.4558L31.6711 7.88202C31.8071 7.96701 31.9616 8.00976 32.1164 8.00976C32.2564 8.00976 32.3966 7.97474 32.5234 7.90453C32.7904 7.75655 32.9561 7.47528 32.9561 7.16991V1.67969H38.5159V36.7066H27.7521V14.2784C27.7521 13.8146 27.3761 13.4386 26.9123 13.4386H20.2651V1.67969ZM13.0875 15.1183H17.4689V19.7951L15.7235 18.7037C15.4511 18.5333 15.1053 18.5333 14.8329 18.7037L13.0875 19.7951V15.1183ZM4.48409 15.1183H11.4079V21.3108C11.4079 21.6161 11.5736 21.8974 11.8407 22.0454C12.1078 22.1935 12.4341 22.1848 12.693 22.0229L15.2783 20.4063L17.8636 22.0229C17.9995 22.1079 18.1541 22.1506 18.3088 22.1506C18.4488 22.1506 18.589 22.1156 18.7158 22.0454C18.9829 21.8974 19.1486 21.6161 19.1486 21.3108V15.1183H26.0724V36.7067H4.48409V15.1183Z" fill="#1AB248"/>
</svg>
