<svg width="132" height="24" viewBox="0 0 132 24" fill="none" xmlns="http://www.w3.org/2000/svg">
<path fill-rule="evenodd" clip-rule="evenodd" d="M17.5537 19.5347V22.3493H0V2.99247H3.16018V19.5347H17.5537ZM15.0965 10.0316L18.6064 3.34386H15.2717L12.6386 10.0316H15.0965ZM43.7953 6.16985C42.6572 4.37394 40.9948 2.86424 39.0371 1.83558C37.0793 0.806208 34.8263 0.257873 32.574 0.257873C30.3217 0.257873 28.0679 0.806208 26.1109 1.83558C24.1532 2.86424 22.4901 4.37394 21.3519 6.16985C20.2137 7.96505 19.5991 10.0472 19.5991 12.1293C19.5991 14.2107 20.2137 16.2928 21.3519 18.088C22.4901 19.8839 24.1525 21.3936 26.1109 22.4223C28.0686 23.4517 30.3217 24 32.574 24C34.8263 24 37.0793 23.4524 39.0371 22.4223C40.9948 21.3936 42.6572 19.8839 43.7953 18.088C44.9342 16.2928 45.5482 14.21 45.5482 12.1293C45.5482 10.0479 44.9342 7.96576 43.7953 6.16985ZM41.064 16.8695C40.2148 18.2779 38.9721 19.4659 37.5054 20.2771C36.0387 21.0876 34.3487 21.5197 32.6581 21.5197C30.9674 21.5197 29.2774 21.0876 27.8107 20.2771C26.3448 19.4659 25.102 18.2786 24.2521 16.8695C23.4022 15.4604 22.9458 13.831 22.9458 12.2016C22.9458 10.5714 23.4022 8.94199 24.2521 7.5336C25.102 6.12522 26.344 4.93715 27.8107 4.12669C29.2774 3.31552 30.9681 2.88337 32.6581 2.88337C34.348 2.88337 36.0387 3.31552 37.5054 4.12669C38.9721 4.93715 40.2141 6.12451 41.064 7.5336C41.9141 8.94179 42.366 10.5555 42.371 12.2016C42.3657 13.8476 41.9139 15.4612 41.064 16.8695ZM67.584 11.3401C67.0124 12.6011 65.9315 13.3301 65.0858 13.7708C64.2401 14.2121 63.6304 14.3651 63.0164 14.3432L69.1602 22.35H65.6496L59.7079 14.6074H51.9576V22.35H48.7981V2.99247H61.436C62.7134 2.99247 64.0091 3.24468 65.1522 3.88936C66.2953 4.53405 67.2844 5.51383 67.7493 6.90026C68.2135 8.28598 68.1541 10.079 67.584 11.3401ZM64.0494 11.2076C64.7149 10.6437 65.1091 9.71633 65.0745 8.79677C65.0406 7.87649 64.5778 6.96543 63.9172 6.4093C63.256 5.85388 62.411 5.80783 61.6119 5.80783H51.9576V11.7914H61.6119C62.4654 11.7914 63.3838 11.7722 64.0494 11.2076ZM85.8358 11.2636V13.9025H75.128V19.5347H89.5216V22.3493H71.9678V2.99247H89.5216V5.80783H75.128V11.2636H85.8358ZM86.011 0H81.271L79.3409 2.46397L86.011 0ZM95.7105 17.4221L93.2074 22.3493H90.0486L99.8775 2.99176H103.038L112.868 22.3493H109.708L107.206 17.4221H95.7105ZM101.457 6.10326L96.9603 14.9588H105.954L101.457 6.10326ZM132 19.5347V22.3493H114.448V2.99247H117.606V19.5347H132Z" fill="black"/>
</svg>
