<svg width="32" height="33" viewBox="0 0 32 33" fill="none" xmlns="http://www.w3.org/2000/svg">
<path d="M16 18C15.7564 18 15.5128 17.9169 15.3182 17.7508C15.0592 17.532 9 12.3438 9 7.01031C9 3.14446 12.1402 0 16 0C19.8598 0 23 3.14446 23 7.01031C23 12.3452 16.9408 17.5334 16.6818 17.7508C16.4872 17.9169 16.2436 18 16 18ZM16 2.07692C13.298 2.07692 11.1 4.28954 11.1 7.01031C11.1 10.4469 14.5104 14.1078 16 15.5451C17.4896 14.1092 20.9 10.4469 20.9 7.01031C20.9 4.28954 18.702 2.07692 16 2.07692Z" fill="#222222"/>
<path d="M16 9C14.897 9 14 8.103 14 7C14 5.897 14.897 5 16 5C17.103 5 18 5.897 18 7C18 8.103 17.103 9 16 9ZM16 6.5C15.725 6.5 15.5 6.724 15.5 7C15.5 7.276 15.725 7.5 16 7.5C16.275 7.5 16.5 7.276 16.5 7C16.5 6.724 16.275 6.5 16 6.5Z" fill="#222222"/>
<path d="M28.2681 33H3.73191C2.67881 33 1.66777 32.5483 0.960728 31.7608C0.25504 30.9748 -0.0869471 29.9212 0.0189061 28.869L2.19025 7.37765C2.37753 5.45341 3.97347 4 5.90326 4C6.46509 4 6.92108 4.45854 6.92108 5.02353C6.92108 5.58852 6.46509 6.04706 5.90326 6.04706C5.02658 6.04706 4.30053 6.70485 4.21639 7.57962L2.04369 29.0792C1.99483 29.5623 2.14683 30.0277 2.47117 30.3893C2.79823 30.7523 3.24607 30.9529 3.73191 30.9529H28.2681C28.754 30.9529 29.2018 30.7523 29.5289 30.3893C29.8532 30.0277 30.0066 29.5623 29.9564 29.0778L27.785 7.58235C27.6995 6.70485 26.9748 6.04706 26.0968 6.04706C25.535 6.04706 25.079 5.58852 25.079 5.02353C25.079 4.45854 25.535 4 26.0968 4C28.0266 4 29.6225 5.45341 29.8084 7.38038L31.9811 28.869C32.087 29.9226 31.7437 30.9761 31.0393 31.7622C30.3323 32.5483 29.3212 33 28.2681 33Z" fill="#222222"/>
<path d="M2.09756 20C1.49171 20 1.00147 19.5563 1 19.0079C0.99854 18.4596 1.49025 18.0146 2.0961 18.0132L11.901 18H11.9024C12.5083 18 12.9985 18.4437 13 18.9921C13.0015 19.5404 12.5098 19.9868 11.9039 19.9868L2.09756 20Z" fill="#222222"/>
<path d="M12.6983 32L11 30.8595L19.9134 18.4442C20.1064 18.1748 20.4235 18.0133 20.7612 18.0133L29.9972 18L30 20.001L21.303 20.0143L12.6983 32Z" fill="#222222"/>
</svg>
