<svg width="41" height="41" viewBox="0 0 41 41" fill="none" xmlns="http://www.w3.org/2000/svg">
<path d="M18.7917 21.0628V2.56318C18.7917 2.09168 18.409 1.70898 17.9375 1.70898C8.04627 1.70898 0 10.5223 0 21.3548C0 32.1874 8.81334 41.0008 19.6459 41.0008C24.4924 41.0008 27.1147 40.1227 30.4391 37.3893C30.7962 37.0955 30.8543 36.571 30.5707 36.2054L18.7917 21.0628ZM19.6459 39.2925C9.75458 39.2925 1.70831 31.2462 1.70831 21.3549C1.70831 11.7814 8.5297 3.935 17.0833 3.44132V21.3549C17.0833 21.5445 17.1465 21.729 17.2644 21.8794L28.7034 36.5865C26.006 38.6467 23.7561 39.2925 19.6459 39.2925Z" fill="#1AB248"/>
<path d="M21.3542 20.5H40.1459C40.6174 20.5 41.0001 20.1174 41.0001 19.6459C41 8.81334 32.1867 0 21.3542 0C20.8827 0 20.5 0.382694 20.5 0.854195V19.6459C20.5 20.1174 20.8827 20.5 21.3542 20.5ZM22.2083 1.72881C31.4214 2.16276 38.8373 9.57865 39.2712 18.7917H22.2083V1.72881Z" fill="#1AB248"/>
<path d="M40.1455 22.209H23.0622C22.7342 22.209 22.4318 22.3986 22.29 22.6959C22.1481 22.9931 22.1909 23.3451 22.3976 23.5995L33.5018 37.3465C33.6504 37.5327 33.8691 37.6454 34.1066 37.6626C34.1271 37.6643 34.1459 37.6643 34.1664 37.6643C34.3816 37.6643 34.5901 37.5823 34.749 37.4353C38.7208 33.73 40.9997 28.4922 40.9997 23.0632C40.9997 22.5917 40.617 22.209 40.1455 22.209ZM34.2398 35.5409L24.8508 23.9174H39.2709C39.0608 28.2599 37.2636 32.4129 34.2398 35.5409Z" fill="#1AB248"/>
</svg>
