<svg width="17" height="17" viewBox="0 0 17 17" fill="none" xmlns="http://www.w3.org/2000/svg">
<path d="M1.17745 1.17747C1.41408 0.940842 1.79772 0.940842 2.03436 1.17747L15.8225 14.9656C16.0592 15.2022 16.0592 15.5859 15.8225 15.8225C15.7042 15.9409 15.5491 16 15.3941 16C15.239 16 15.0839 15.9409 14.9656 15.8225L1.17745 2.03435C0.940849 1.79775 0.940849 1.4141 1.17745 1.17747Z" fill="#CCCCCC" stroke="#CCCCCC" stroke-width="0.5"/>
<path d="M1.17745 14.9656L14.9656 1.17747C15.2023 0.940842 15.5859 0.940842 15.8225 1.17747C16.0592 1.41407 16.0592 1.79772 15.8225 2.03435L2.03433 15.8225C1.91603 15.9408 1.76093 16 1.60586 16C1.4508 16 1.2957 15.9409 1.17743 15.8225C0.940853 15.5859 0.940853 15.2022 1.17745 14.9656Z" fill="#CCCCCC" stroke="#CCCCCC" stroke-width="0.5"/>
</svg>
