<svg width="23" height="23" viewBox="0 0 23 23" fill="none" xmlns="http://www.w3.org/2000/svg">
<path d="M1.2483 1.24829C1.57935 0.917237 2.11608 0.917237 2.44713 1.24829L21.7371 20.5382C22.0681 20.8692 22.0681 21.406 21.7371 21.737C21.5716 21.9026 21.3546 21.9853 21.1376 21.9853C20.9207 21.9853 20.7037 21.9026 20.5382 21.737L1.2483 2.44707C0.917292 2.11606 0.917292 1.57934 1.2483 1.24829Z" fill="white" stroke="white" stroke-width="0.5"/>
<path d="M1.24831 20.5382L20.5383 1.24829C20.8693 0.917237 21.4061 0.917237 21.7371 1.24829C22.0681 1.5793 22.0681 2.11602 21.7371 2.44708L2.4471 21.737C2.28159 21.9026 2.06461 21.9853 1.84766 21.9853C1.63072 21.9853 1.41373 21.9026 1.24827 21.7371C0.917297 21.406 0.917297 20.8692 1.24831 20.5382Z" fill="white" stroke="white" stroke-width="0.5"/>
</svg>
