<svg width="84" height="55" viewBox="0 0 84 55" fill="none" xmlns="http://www.w3.org/2000/svg">
<path fill-rule="evenodd" clip-rule="evenodd" d="M16 0H72V6H78V12H84V43H28V37H22V31H16V0Z" fill="#1AB248"/>
<path d="M72.0156 19.5369H67.2344V14.7556C67.2345 14.6263 67.209 14.4983 67.1596 14.3788C67.1102 14.2594 67.0376 14.1508 66.9462 14.0594C66.8548 13.968 66.7463 13.8955 66.6268 13.846C66.5073 13.7966 66.3793 13.7712 66.25 13.7713H61.4688V8.98438C61.4688 8.85508 61.4434 8.72705 61.394 8.60758C61.3445 8.48812 61.272 8.37957 61.1806 8.28815C61.0892 8.19673 60.9806 8.12422 60.8612 8.07478C60.7417 8.02534 60.6137 7.99993 60.4844 8H1.98438C1.85508 7.99993 1.72705 8.02534 1.60758 8.07478C1.48812 8.12422 1.37957 8.19673 1.28815 8.28815C1.19673 8.37957 1.12422 8.48812 1.07478 8.60758C1.02534 8.72705 0.999926 8.85508 1 8.98438V41.5475C1 41.8086 1.10371 42.059 1.28832 42.2436C1.47292 42.4282 1.7233 42.5319 1.98438 42.5319H6.76562V47.3131C6.76533 47.4426 6.79058 47.5708 6.83992 47.6904C6.88926 47.8101 6.96173 47.9188 7.05318 48.0104C7.14462 48.102 7.25324 48.1747 7.37282 48.2242C7.49239 48.2738 7.62057 48.2993 7.75 48.2992H12.5312V53.0804C12.5312 53.2097 12.5566 53.3378 12.606 53.4572C12.6555 53.5767 12.728 53.6852 12.8194 53.7767C12.9108 53.8681 13.0194 53.9406 13.1388 53.99C13.2583 54.0395 13.3863 54.0649 13.5156 54.0648H72.0156C72.2761 54.065 72.5259 53.9618 72.7105 53.7781C72.895 53.5943 72.9991 53.3448 73 53.0844V20.5213C73 20.2602 72.8963 20.0098 72.7117 19.8252C72.5271 19.6406 72.2767 19.5369 72.0156 19.5369ZM2.96875 9.97044H59.4955V40.5631H2.96875V9.97044ZM8.73662 42.5319H60.4799C60.7409 42.5319 60.9913 42.4282 61.1759 42.2436C61.3605 42.059 61.4642 41.8086 61.4642 41.5475V15.7383H65.2634V46.3304H8.73662V42.5319ZM71.0312 52.0983H14.5045V48.2992H66.25C66.3793 48.2993 66.5073 48.2739 66.6268 48.2244C66.7463 48.175 66.8548 48.1025 66.9462 48.011C67.0376 47.9196 67.1102 47.8111 67.1596 47.6916C67.209 47.5721 67.2345 47.4441 67.2344 47.3148V21.5056H71.0312V52.0983Z" fill="#222222" stroke="#222222" stroke-width="0.2"/>
<path d="M10.4877 37.0475C10.4876 37.1768 10.513 37.3048 10.5625 37.4243C10.6119 37.5438 10.6844 37.6523 10.7758 37.7437C10.8673 37.8352 10.9758 37.9077 11.0953 37.9571C11.2147 38.0066 11.3428 38.032 11.4721 38.0319H50.9922C51.1215 38.032 51.2495 38.0066 51.369 37.9571C51.4884 37.9077 51.597 37.8352 51.6884 37.7437C51.7798 37.6523 51.8523 37.5438 51.9018 37.4243C51.9512 37.3048 51.9766 37.1768 51.9766 37.0475C51.9778 35.9861 52.3999 34.9686 53.1504 34.2181C53.9009 33.4675 54.9185 33.0454 55.9799 33.0442C56.1092 33.0443 56.2372 33.0189 56.3567 32.9694C56.4761 32.92 56.5847 32.8475 56.6761 32.756C56.7675 32.6646 56.84 32.5561 56.8895 32.4366C56.9389 32.3172 56.9643 32.1891 56.9642 32.0598V18.4738C56.9643 18.3445 56.9389 18.2164 56.8895 18.097C56.84 17.9775 56.7675 17.869 56.6761 17.7775C56.5847 17.6861 56.4761 17.6136 56.3567 17.5642C56.2372 17.5147 56.1092 17.4893 55.9799 17.4894C54.9182 17.4883 53.9002 17.066 53.1497 16.3151C52.3991 15.5642 51.9772 14.5461 51.9766 13.4844C51.9766 13.3551 51.9512 13.227 51.9018 13.1076C51.8523 12.9881 51.7798 12.8796 51.6884 12.7882C51.597 12.6967 51.4884 12.6242 51.369 12.5748C51.2495 12.5253 51.1215 12.4999 50.9922 12.5H11.4721C11.3428 12.4999 11.2147 12.5253 11.0953 12.5748C10.9758 12.6242 10.8673 12.6967 10.7758 12.7882C10.6844 12.8796 10.6119 12.9881 10.5625 13.1076C10.513 13.227 10.4876 13.3551 10.4877 13.4844C10.4871 14.5461 10.0652 15.5642 9.31459 16.3151C8.564 17.066 7.54609 17.4883 6.48438 17.4894C6.35508 17.4893 6.22705 17.5147 6.10758 17.5642C5.98812 17.6136 5.87957 17.6861 5.78815 17.7775C5.69673 17.869 5.62422 17.9775 5.57478 18.097C5.52534 18.2164 5.49993 18.3445 5.5 18.4738V32.0598C5.49993 32.1891 5.52534 32.3172 5.57478 32.4366C5.62422 32.5561 5.69673 32.6646 5.78815 32.756C5.87957 32.8475 5.98812 32.92 6.10758 32.9694C6.22705 33.0189 6.35508 33.0443 6.48438 33.0442C7.54575 33.0454 8.56332 33.4675 9.31383 34.2181C10.0643 34.9686 10.4865 35.9861 10.4877 37.0475ZM7.46875 19.3766C8.69484 19.1696 9.82606 18.586 10.7053 17.7068C11.5846 16.8277 12.1683 15.6965 12.3754 14.4704H50.0888C50.2959 15.6965 50.8796 16.8277 51.7589 17.7068C52.6382 18.586 53.7694 19.1696 54.9955 19.3766V31.157C53.7694 31.364 52.6382 31.9475 51.7589 32.8267C50.8796 33.7059 50.2959 34.8371 50.0888 36.0631H12.3754C12.1683 34.8371 11.5846 33.7059 10.7053 32.8267C9.82606 31.9475 8.69484 31.364 7.46875 31.157V19.3766Z" fill="#222222"/>
<path d="M33.0698 28.7484H27.1455C26.8844 28.7484 26.6341 28.8521 26.4494 29.0367C26.2648 29.2213 26.1611 29.4717 26.1611 29.7328C26.1611 29.9938 26.2648 30.2442 26.4494 30.4288C26.6341 30.6134 26.8844 30.7171 27.1455 30.7171H30.2505V32.5475C30.2505 32.8086 30.3542 33.059 30.5388 33.2436C30.7234 33.4282 30.9738 33.5319 31.2349 33.5319C31.496 33.5319 31.7463 33.4282 31.9309 33.2436C32.1155 33.059 32.2193 32.8086 32.2193 32.5475V30.7171H33.072C33.9295 30.7162 34.7517 30.3752 35.3581 29.7688C35.9644 29.1625 36.3055 28.3403 36.3064 27.4828V25.2665C36.3061 25.1372 36.2803 25.0093 36.2306 24.89C36.1809 24.7707 36.1081 24.6623 36.0165 24.5711C35.9249 24.4799 35.8162 24.4076 35.6966 24.3585C35.5771 24.3093 35.449 24.2841 35.3198 24.2844H28.1299V23.0508C28.1303 22.7153 28.2638 22.3936 28.5011 22.1564C28.7383 21.9191 29.06 21.7856 29.3955 21.7852H35.3198C35.5808 21.7852 35.8312 21.6815 36.0158 21.4969C36.2004 21.3123 36.3041 21.0619 36.3041 20.8008C36.3041 20.5397 36.2004 20.2894 36.0158 20.1048C35.8312 19.9202 35.5808 19.8164 35.3198 19.8164H32.2193V17.9844C32.2193 17.7233 32.1155 17.4729 31.9309 17.2883C31.7463 17.1037 31.496 17 31.2349 17C30.9738 17 30.7234 17.1037 30.5388 17.2883C30.3542 17.4729 30.2505 17.7233 30.2505 17.9844V19.8148H29.3955C28.538 19.8158 27.7159 20.1569 27.1096 20.7632C26.5033 21.3696 26.1622 22.1916 26.1611 23.0491V25.2648C26.1611 25.5259 26.2648 25.7763 26.4494 25.9609C26.6341 26.1455 26.8844 26.2492 27.1455 26.2492H34.3354V27.4811C34.3354 27.8169 34.2021 28.139 33.9648 28.3766C33.7275 28.6142 33.4056 28.7479 33.0698 28.7484Z" fill="#222222"/>
<path d="M43.3247 28.2686C43.9184 28.2686 44.4987 28.0926 44.9923 27.7628C45.4859 27.433 45.8706 26.9642 46.0978 26.4157C46.3249 25.8673 46.3844 25.2638 46.2686 24.6816C46.1528 24.0993 45.8669 23.5645 45.4471 23.1447C45.0274 22.725 44.4925 22.4391 43.9103 22.3233C43.3281 22.2075 42.7246 22.2669 42.1761 22.4941C41.6277 22.7213 41.1589 23.106 40.8291 23.5996C40.4993 24.0932 40.3232 24.6735 40.3232 25.2671C40.3241 26.0629 40.6407 26.8258 41.2034 27.3885C41.766 27.9512 42.529 28.2677 43.3247 28.2686ZM43.3247 24.2344C43.529 24.2344 43.7287 24.2949 43.8985 24.4084C44.0683 24.5219 44.2007 24.6832 44.2789 24.8719C44.3571 25.0606 44.3775 25.2683 44.3377 25.4686C44.2978 25.6689 44.1994 25.853 44.055 25.9974C43.9106 26.1418 43.7266 26.2402 43.5262 26.28C43.3259 26.3199 43.1182 26.2994 42.9295 26.2213C42.7408 26.1431 42.5795 26.0107 42.466 25.8409C42.3526 25.6711 42.292 25.4714 42.292 25.2671C42.2921 24.9933 42.401 24.7307 42.5946 24.537C42.7883 24.3434 43.0509 24.2345 43.3247 24.2344Z" fill="#222222"/>
<path d="M19.1392 28.2686C19.7328 28.2686 20.3131 28.0926 20.8067 27.7628C21.3003 27.433 21.685 26.9642 21.9122 26.4157C22.1394 25.8673 22.1988 25.2638 22.083 24.6816C21.9672 24.0993 21.6813 23.5645 21.2616 23.1447C20.8418 22.725 20.307 22.4391 19.7248 22.3233C19.1425 22.2075 18.539 22.2669 17.9906 22.4941C17.4421 22.7213 16.9733 23.106 16.6435 23.5996C16.3137 24.0932 16.1377 24.6735 16.1377 25.2671C16.1386 26.0629 16.4551 26.8258 17.0178 27.3885C17.5805 27.9512 18.3434 28.2677 19.1392 28.2686ZM19.1392 24.2344C19.3435 24.2344 19.5431 24.2949 19.713 24.4084C19.8828 24.5219 20.0152 24.6832 20.0933 24.8719C20.1715 25.0606 20.1919 25.2683 20.1521 25.4686C20.1122 25.6689 20.0139 25.853 19.8695 25.9974C19.725 26.1418 19.541 26.2402 19.3407 26.28C19.1403 26.3199 18.9327 26.2994 18.744 26.2213C18.5553 26.1431 18.394 26.0107 18.2805 25.8409C18.167 25.6711 18.1064 25.4714 18.1064 25.2671C18.1066 24.9933 18.2154 24.7307 18.4091 24.537C18.6027 24.3434 18.8653 24.2345 19.1392 24.2344Z" fill="#222222"/>
</svg>
