<svg width="44" height="44" viewBox="0 0 44 44" fill="none" xmlns="http://www.w3.org/2000/svg">
<circle cx="22" cy="22" r="22" fill="#F1F1F1"/>
<path d="M29.2333 14.6494C28.8671 14.2835 28.2736 14.2835 27.9076 14.6494L21.9414 20.6157L15.9751 14.6494C15.6153 14.277 15.0218 14.2667 14.6494 14.6266C14.277 14.9861 14.2667 15.5796 14.6266 15.952C14.6341 15.9598 14.6417 15.9676 14.6494 15.9751L20.6157 21.9414L14.6494 27.9076C14.277 28.2672 14.2667 28.8607 14.6266 29.2333C14.9861 29.6057 15.5796 29.616 15.952 29.2562C15.9598 29.2487 15.9676 29.2411 15.9751 29.2333L21.9414 23.2671L27.9076 29.2333C28.28 29.5929 28.8735 29.5826 29.2331 29.2102C29.584 28.847 29.584 28.2709 29.2331 27.9076L23.2671 21.9414L29.2333 15.9751C29.5993 15.6091 29.5993 15.0156 29.2333 14.6494Z" fill="black"/>
</svg>
