<svg width="143" height="26" viewBox="0 0 143 26" fill="none" xmlns="http://www.w3.org/2000/svg">
<g clip-path="url(#clip0)">
<path d="M111.273 23.6052H143V23.8985H111.273V23.6052ZM1.51318 23.6052H35.6617V23.8985H1.51318V23.6052Z" fill="#231F20"/>
<path d="M45.2959 23.6053C46.2542 23.8008 46.7082 24.1429 46.7082 24.8271C46.7082 25.5602 46.1029 26.0489 45.2454 26.0489C44.5392 26.0489 43.9844 25.8045 43.48 25.3647L43.7826 25.0226C44.2366 25.4135 44.6906 25.609 45.2959 25.609C45.9011 25.609 46.2542 25.3158 46.2542 24.876C46.2542 24.485 46.0525 24.2406 45.1445 24.0451C44.1357 23.8496 43.6817 23.5075 43.6817 22.8233C43.6817 22.1391 44.287 21.6504 45.0941 21.6504C45.7498 21.6504 46.2038 21.8459 46.6073 22.188L46.3047 22.579C45.9011 22.2369 45.4976 22.1391 45.0437 22.1391C44.4888 22.1391 44.1357 22.4323 44.1357 22.8233C44.0853 23.1654 44.3375 23.4098 45.2959 23.6053ZM55.7876 21.6993H56.1911L57.4017 25.2181L58.6627 21.6993H59.1671L57.6034 25.9511H57.1999L55.9893 22.5301L54.7787 25.9511H54.3752L52.8116 21.6993H53.3664L54.6274 25.2181L55.7876 21.6993ZM68.9022 22.1391H66.2288V23.6053H68.5996V24.0451H66.2288V25.5113H68.9022V25.9023H65.7244V21.6993H68.8518V22.1391H68.9022ZM78.1329 25.9023H76.6197V21.6993H78.1329C79.4948 21.6993 80.4532 22.6278 80.4532 23.8008C80.4532 24.9737 79.4948 25.9023 78.1329 25.9023ZM78.1329 22.1391H77.1241V25.4624H78.1329C79.2426 25.4624 79.9488 24.7293 79.9488 23.8008C79.9488 22.8722 79.2426 22.1391 78.1329 22.1391ZM91.1467 22.1391H88.4733V23.6053H90.844V24.0451H88.4733V25.5113H91.1467V25.9023H87.9689V21.6993H91.0962V22.1391H91.1467ZM102.445 21.6993H102.899V25.9023H102.496L99.6712 22.4323V25.9023H99.1668V21.6993H99.6207L102.345 25.0714V21.6993H102.445Z" fill="#231F20"/>
<path d="M46.2039 16.4211H43.934V1.85714H46.2039V16.4211ZM57.0991 16.4211H54.8293V1.85714H65.8254V3.90977H57.0991V8.30827H64.9175V10.3609H57.0991V16.4211ZM83.278 16.4211H72.8871V1.85714H75.157V14.3684H83.278V16.4211ZM116.165 12.609L111.374 5.66917V16.4699H110.264H109.154V1.85714H111.273L116.367 9.23684L121.462 1.85714H123.58V16.4211H122.471H121.361V5.6203L116.569 12.5602L116.367 12.8534L116.165 12.609ZM143 16.4211H131.853V1.85714H142.899V3.90977H134.072V8.06391H141.941V10.1165H134.072V14.4173H143V16.4211ZM36.9228 16.4211H34.0476L29.9619 10.9962H26.2797V16.4211H24.0099V1.85714H30.5168C33.8963 1.85714 36.0653 3.61654 36.0653 6.35338C36.0653 8.50376 34.6529 10.0677 32.3326 10.6541L36.9228 16.4211ZM26.3302 8.94361H30.4663C32.5344 8.94361 33.8459 7.91729 33.8459 6.35338C33.8459 4.78947 32.6353 3.8609 30.4663 3.8609H26.3302V8.94361ZM36.9228 16.4211H34.0476L29.9619 10.9962H26.2797V16.4211H24.0099V1.85714H30.5168C33.8963 1.85714 36.0653 3.61654 36.0653 6.35338C36.0653 8.50376 34.6529 10.0677 32.3326 10.6541L36.9228 16.4211ZM26.3302 8.94361H30.4663C32.5344 8.94361 33.8459 7.91729 33.8459 6.35338C33.8459 4.78947 32.6353 3.8609 30.4663 3.8609H26.3302V8.94361ZM36.9228 16.4211H34.0476L29.9619 10.9962H26.2797V16.4211H24.0099V1.85714H30.5168C33.8963 1.85714 36.0653 3.61654 36.0653 6.35338C36.0653 8.50376 34.6529 10.0677 32.3326 10.6541L36.9228 16.4211ZM26.3302 8.94361H30.4663C32.5344 8.94361 33.8459 7.91729 33.8459 6.35338C33.8459 4.78947 32.6353 3.8609 30.4663 3.8609H26.3302V8.94361ZM36.9228 16.4211H34.0476L29.9619 10.9962H26.2797V16.4211H24.0099V1.85714H30.5168C33.8963 1.85714 36.0653 3.61654 36.0653 6.35338C36.0653 8.50376 34.6529 10.0677 32.3326 10.6541L36.9228 16.4211ZM26.3302 8.94361H30.4663C32.5344 8.94361 33.8459 7.91729 33.8459 6.35338C33.8459 4.78947 32.6353 3.8609 30.4663 3.8609H26.3302V8.94361ZM100.882 16.4211H103.353L96.4935 1.7594H94.5767L87.7168 16.4211H90.0875L91.8025 12.6579H99.1668L100.882 16.4211ZM92.7104 10.703L95.5351 4.44737L98.3598 10.703H92.7104ZM17.3012 8.2594C17.3012 12.9023 13.4173 16.6654 8.6254 16.6654C3.88395 16.6654 0 12.9023 0 8.2594C0 4.10526 3.12734 0.684211 7.21305 0V0.0488722C4.03527 1.27068 2.11852 4.20301 2.11852 7.57519C2.11852 11.9248 5.2963 14.4173 8.67584 14.4173C12.2067 14.4173 15.0314 11.6316 15.0314 8.2594C15.0314 5.32707 12.6607 2.88346 9.53333 2.88346C5.95203 2.88346 4.23704 6.06015 4.23704 6.06015H4.1866C4.1866 6.06015 5.80071 1.51504 10.4917 1.51504C13.3668 1.51504 17.3012 3.81203 17.3012 8.2594Z" fill="#231F20"/>
</g>
<defs>
<clipPath id="clip0">
<rect width="143" height="26" fill="white"/>
</clipPath>
</defs>
</svg>
