<svg width="23" height="26" viewBox="0 0 23 26" fill="none" xmlns="http://www.w3.org/2000/svg">
<path d="M21.9901 1H8.74362C8.40634 1 8.13275 1.27776 8.13275 1.62069C8.13275 1.96362 8.40634 2.24138 8.74362 2.24138H21.3793V23.7586H21.2239L18.3463 20.8372C18.1074 20.5947 17.7212 20.5947 17.4828 20.8372L14.8579 23.5016L12.2331 20.8372C11.9941 20.5947 11.6079 20.5947 11.3695 20.8372L8.74464 23.5016L6.11978 20.8372C5.88084 20.5947 5.49465 20.5947 5.25621 20.8372L2.37713 23.7586H2.22174V2.24138H4.66776C5.00504 2.24138 5.27863 1.96362 5.27863 1.62069C5.27863 1.27776 5.00504 1 4.66776 1H1.61087C1.27359 1 1 1.27776 1 1.62069V24.3793C1 24.7222 1.27359 25 1.61087 25H2.62983C2.79185 25 2.94724 24.9343 3.06187 24.8179L5.68672 22.1536L8.31157 24.8179C8.55052 25.0605 8.93671 25.0605 9.17515 24.8179L11.8 22.1536L14.4248 24.8179C14.6638 25.0605 15.05 25.0605 15.2884 24.8179L17.9133 22.1536L20.5381 24.8179C20.6528 24.9343 20.8076 25 20.9702 25H21.9891C22.3264 25 22.6 24.7222 22.6 24.3793V1.62069C22.601 1.27776 22.3274 1 21.9901 1Z" fill="white"/>
<path d="M8.13275 1.62069C8.13275 1.27776 8.40634 1 8.74362 1H4.66776C5.00504 1 5.27863 1.27776 5.27863 1.62069C5.27863 1.96362 5.00504 2.24138 4.66776 2.24138H8.74362C8.40634 2.24138 8.13275 1.96362 8.13275 1.62069Z" fill="white"/>
<path d="M6.16374 7.41379H17.9142C18.2515 7.41379 18.525 7.13604 18.525 6.7931C18.525 6.45017 18.2515 6.17241 17.9142 6.17241H6.16374C5.82647 6.17241 5.55288 6.45017 5.55288 6.7931C5.55288 7.13604 5.82647 7.41379 6.16374 7.41379Z" fill="white"/>
<path d="M6.16374 11.5517H15.8763C16.2135 11.5517 16.4871 11.274 16.4871 10.931C16.4871 10.5881 16.2135 10.3103 15.8763 10.3103H6.16374C5.82647 10.3103 5.55288 10.5881 5.55288 10.931C5.55288 11.274 5.82647 11.5517 6.16374 11.5517Z" fill="white"/>
<path d="M6.16374 15.6897H17.9142C18.2515 15.6897 18.525 15.4119 18.525 15.069C18.525 14.726 18.2515 14.4483 17.9142 14.4483H6.16374C5.82647 14.4483 5.55288 14.726 5.55288 15.069C5.55288 15.4119 5.82647 15.6897 6.16374 15.6897Z" fill="white"/>
<path d="M8.74362 1H21.9901C22.3274 1 22.601 1.27776 22.6 1.62069V24.3793C22.6 24.7222 22.3264 25 21.9891 25H20.9702C20.8076 25 20.6528 24.9343 20.5381 24.8179L17.9133 22.1536L15.2884 24.8179C15.05 25.0605 14.6638 25.0605 14.4248 24.8179L11.8 22.1536L9.17515 24.8179C8.93671 25.0605 8.55052 25.0605 8.31158 24.8179L5.68672 22.1536L3.06187 24.8179C2.94724 24.9343 2.79185 25 2.62983 25H1.61087C1.27359 25 1 24.7222 1 24.3793V1.62069C1 1.27776 1.27359 1 1.61087 1H4.66776M8.74362 1C8.40634 1 8.13275 1.27776 8.13275 1.62069C8.13275 1.96362 8.40634 2.24138 8.74362 2.24138M8.74362 1H4.66776M8.74362 2.24138H21.3793V23.7586H21.2239L18.3463 20.8372C18.1074 20.5947 17.7212 20.5947 17.4828 20.8372L14.8579 23.5016L12.2331 20.8372C11.9941 20.5947 11.6079 20.5947 11.3695 20.8372L8.74464 23.5016L6.11978 20.8372C5.88084 20.5947 5.49465 20.5947 5.25621 20.8372L2.37713 23.7586H2.22174V2.24138H4.66776M8.74362 2.24138H4.66776M4.66776 2.24138C5.00504 2.24138 5.27863 1.96362 5.27863 1.62069C5.27863 1.27776 5.00504 1 4.66776 1M6.16375 7.41379H17.9142C18.2515 7.41379 18.525 7.13604 18.525 6.7931C18.525 6.45017 18.2515 6.17241 17.9142 6.17241H6.16375C5.82647 6.17241 5.55288 6.45017 5.55288 6.7931C5.55288 7.13604 5.82647 7.41379 6.16375 7.41379ZM6.16375 11.5517H15.8763C16.2135 11.5517 16.4871 11.274 16.4871 10.931C16.4871 10.5881 16.2135 10.3103 15.8763 10.3103H6.16375C5.82647 10.3103 5.55288 10.5881 5.55288 10.931C5.55288 11.274 5.82647 11.5517 6.16375 11.5517ZM6.16375 15.6897H17.9142C18.2515 15.6897 18.525 15.4119 18.525 15.069C18.525 14.726 18.2515 14.4483 17.9142 14.4483H6.16375C5.82647 14.4483 5.55288 14.726 5.55288 15.069C5.55288 15.4119 5.82647 15.6897 6.16375 15.6897Z" stroke="white" stroke-width="0.3"/>
</svg>
