<svg width="122" height="26" viewBox="0 0 122 26" fill="none" xmlns="http://www.w3.org/2000/svg">
<path fill-rule="evenodd" clip-rule="evenodd" d="M14.7379 0.0715403C11.997 -0.209812 9.2339 0.343007 6.82849 1.65401C4.42308 2.96502 2.49339 4.96985 1.30466 7.39294C0.115936 9.81603 -0.273474 12.5384 0.189958 15.1859C0.65339 17.8335 1.94691 20.2761 3.89273 22.1782C5.83855 24.0802 8.34114 25.3483 11.0565 25.8081C13.7719 26.2679 16.5668 25.8968 19.057 24.7459C21.5472 23.595 23.6104 21.7208 24.9632 19.3808C26.316 17.0408 26.8918 14.35 26.6116 11.6781C26.3032 8.70823 24.9541 5.93258 22.7914 3.81854C20.6287 1.70451 17.7846 0.38124 14.7379 0.0715403ZM14.3056 19.8796C12.8314 20.0723 11.3324 19.8101 10.0191 19.1297C8.70581 18.4493 7.64432 17.385 6.9838 16.0864C6.32328 14.7877 6.09695 13.3201 6.33661 11.8896C6.57627 10.4591 7.26987 9.13781 8.31993 8.11133C9.37 7.08485 10.7237 6.40482 12.1909 6.1668C13.658 5.92878 15.1649 6.14475 16.4995 6.78435C17.8342 7.42394 18.9297 8.45502 19.632 9.73267C20.3343 11.0103 20.6081 12.4703 20.415 13.9074C20.2123 15.419 19.5039 16.8234 18.3994 17.903C17.295 18.9826 15.8561 19.6774 14.3056 19.8796ZM33.7468 0.585835C33.2841 0.586914 32.8275 0.688499 32.4101 0.883198C31.9928 1.0779 31.6253 1.36081 31.3343 1.71136C31.0433 2.0619 30.8361 2.47125 30.7279 2.90963C30.6197 3.34801 30.6131 3.80439 30.7087 4.24555C31.0014 5.67477 32.3713 6.65132 33.8637 6.65132H42.524L29.0466 24.0318C28.9469 24.1601 28.8859 24.3129 28.8703 24.4731C28.8548 24.6333 28.8853 24.7946 28.9586 24.9389C29.0318 25.0831 29.1448 25.2046 29.285 25.2898C29.4251 25.3749 29.5868 25.4204 29.7519 25.421H50.8925C52.3839 25.421 53.7548 24.4447 54.0475 23.0152C54.1431 22.5741 54.1366 22.1178 54.0284 21.6795C53.9203 21.2411 53.7133 20.8318 53.4224 20.4812C53.1316 20.1307 52.7642 19.8477 52.347 19.6529C51.9298 19.458 51.4733 19.3563 51.0107 19.355H40.4588L53.9258 1.98805C54.0265 1.8585 54.0881 1.70417 54.1038 1.54239C54.1194 1.38061 54.0885 1.21778 54.0145 1.07217C53.9405 0.92655 53.8263 0.80391 53.6848 0.718006C53.5432 0.632103 53.3799 0.586334 53.2132 0.585835H33.7468ZM118.223 0.655798C117.523 0.817981 116.901 1.20807 116.46 1.76158C116.018 2.31509 115.784 2.99885 115.795 3.69983V13.7987L99.0028 0.776578C98.8711 0.674713 98.7126 0.611144 98.5454 0.593184C98.3783 0.575223 98.2094 0.603601 98.0581 0.675051C97.9068 0.746502 97.7793 0.858124 97.6902 0.997075C97.6011 1.13603 97.5541 1.29666 97.5545 1.4605V22.3124C97.5431 23.0134 97.7776 23.6972 98.2191 24.2507C98.6606 24.8042 99.2828 25.1943 99.9827 25.3564C100.437 25.4539 100.908 25.4506 101.361 25.347C101.814 25.2433 102.238 25.0419 102.6 24.7575C102.963 24.4731 103.255 24.1131 103.456 23.7039C103.656 23.2947 103.76 22.8469 103.76 22.3934V12.2072L120.552 25.2295C120.684 25.3313 120.842 25.3948 121.009 25.4128C121.176 25.4307 121.345 25.4023 121.497 25.3309C121.648 25.2595 121.775 25.1479 121.864 25.009C121.953 24.8702 122 24.7096 122 24.5458V3.61784C122 3.16446 121.897 2.71675 121.696 2.30772C121.495 1.89869 121.203 1.53878 120.84 1.25451C120.478 0.970248 120.055 0.768882 119.602 0.665261C119.149 0.561639 118.678 0.558406 118.223 0.655798ZM74.5006 6.07074C81.6033 6.07074 86.9104 9.72849 86.9104 13.0003C86.9104 16.2722 81.6033 19.9299 74.5006 19.9299C67.3979 19.9299 62.0909 16.2722 62.0909 13.0003C62.0909 9.72849 67.3979 6.07074 74.5006 6.07074ZM74.5006 0.00550442C64.2198 0.00550442 55.8857 5.82354 55.8857 13.0003C55.8857 20.1771 64.2198 25.9952 74.5006 25.9952C84.7815 25.9952 93.1153 20.1771 93.1153 13.0003C93.1153 5.82354 84.7812 0.00550442 74.5006 0.00550442Z" fill="#0069FF"/>
</svg>
