<svg width="51" height="52" viewBox="0 0 51 52" fill="none" xmlns="http://www.w3.org/2000/svg">
<path d="M13.156 1C9.63344 1 6.76465 3.82976 6.76465 7.30353C6.76465 10.8261 9.69198 13.7925 13.156 13.7925C16.62 13.7925 19.5473 10.8261 19.5473 7.30353C19.5571 3.82976 16.6786 1 13.156 1ZM13.156 12.1922C10.5604 12.1922 8.35517 9.95765 8.35517 7.30353C8.35517 4.70796 10.5116 2.60028 13.156 2.60028C15.8004 2.60028 17.9568 4.70796 17.9568 7.30353C17.9568 9.95765 15.7613 12.1922 13.156 12.1922Z" fill="#1AB248" stroke="#1AB248" stroke-width="0.2"/>
<path d="M48.5696 26.2157C49.6741 26.2157 50.5696 25.3202 50.5696 24.2157V12.2227C50.5696 11.1181 49.6741 10.2227 48.5696 10.2227H28.5849C27.4804 10.2227 26.5849 11.1181 26.5849 12.2227V24.2157C26.5849 25.3202 27.4803 26.2157 28.5849 26.2157H32.1859V27.8159H23.3941V20.6244C23.3941 15.4236 18.3103 13.7355 18.3103 13.7355C18.3103 13.7355 15.8026 15.8236 13.0021 15.8236C9.87959 15.8236 7.69384 13.7355 7.69384 13.7355C7.69384 13.7355 2.61003 15.3455 2.61003 20.6244V27.8159C1.72084 27.8159 1 28.5368 1 29.426V47.4001C1 48.5047 1.89543 49.4001 3 49.4001H4.20055V51.0004H5.80083V49.4001H45.7785V51.0004H47.3788V49.4001H48.5696C49.6741 49.4001 50.5696 48.5047 50.5696 47.4001V29.8159C50.5696 28.7114 49.6741 27.8159 48.5696 27.8159H44.9686V26.2157H48.5696ZM4.20055 20.6147C4.20055 18.4485 5.47882 16.4676 7.42062 15.5504C9.05993 16.7506 11.0212 17.4141 12.9923 17.4141C14.9634 17.4141 16.9247 16.7604 18.564 15.5504C20.5058 16.4676 21.7841 18.4485 21.7841 20.6147V27.8062H20.1838V20.6147H18.5835V27.8062H7.39135V20.6147H5.80083V27.8062H4.20055V20.6147ZM48.9693 47.7999H2.60028V35.8076H48.9693V47.7999ZM48.9693 29.4162V34.217H2.60028V29.4162H48.9693ZM33.7764 27.8159V26.2157H43.3683V27.8159H33.7764ZM28.1852 24.6154V11.8229H48.9693V24.6154H28.1852Z" fill="#1AB248" stroke="#1AB248" stroke-width="0.2"/>
</svg>
