<svg width="70" height="70" viewBox="0 0 70 70" fill="none" xmlns="http://www.w3.org/2000/svg">
<path d="M63 24.2745C63 36.0241 47.95 57.7059 41.5 65C34.7429 57.098 20 36.0241 20 24.2745C20 12.5249 29.6259 3 41.5 3C53.3741 3 63 12.5249 63 24.2745Z" fill="#FFDA44"/>
<path d="M43.0663 22.1667C43.0663 26.6136 39.4478 30.2333 34.9997 30.2333C30.5516 30.2333 26.933 26.6136 26.933 22.1667C26.933 17.7197 30.5516 14.1 34.9997 14.1C39.4478 14.1 43.0663 17.7197 43.0663 22.1667ZM40.933 22.1667C40.933 18.8949 38.2714 16.2333 34.9997 16.2333C31.7279 16.2333 29.0663 18.8949 29.0663 22.1667C29.0663 25.4384 31.7279 28.1 34.9997 28.1C38.2714 28.1 40.933 25.4384 40.933 22.1667Z" fill="#222222" stroke="#222222" stroke-width="0.2"/>
<path d="M52.6088 37.9764L34.7931 63.7075L16.9507 37.9402L16.9507 37.9402L16.9485 37.9372C13.6222 33.5024 12.1976 27.6209 12.5807 21.871C12.9638 16.121 15.154 10.5131 19.0438 6.62388L19.0438 6.62388C23.2508 2.41696 28.844 0.1 34.7931 0.1C40.7423 0.1 46.3355 2.41696 50.5424 6.62503L50.6131 6.55433L50.5424 6.62505C54.4322 10.5143 56.6224 16.1222 57.0022 21.8765C57.382 27.6307 55.9507 33.521 52.611 37.9733L52.6109 37.9733L52.6088 37.9764ZM20.5521 8.13211L20.5521 8.13212C17.0032 11.681 15.0138 16.7913 14.6712 22.0252C14.3285 27.2586 15.6315 32.626 18.6809 36.6918L34.7109 59.8404L34.7931 59.9592L34.8753 59.8404L50.8797 36.7269C53.9418 32.6436 55.2516 27.2675 54.9123 22.0297C54.573 16.7913 52.5837 11.681 49.0342 8.13212C45.2296 4.32871 40.1723 2.23333 34.7931 2.23333C29.4139 2.23333 24.3567 4.32871 20.5521 8.13211Z" fill="#222222" stroke="#222222" stroke-width="0.2"/>
<path d="M49.1244 50.2744L49.1248 50.2744C55.2599 50.997 60.4643 52.3751 64.1318 54.1168C65.9657 54.9877 67.4108 55.9474 68.3959 56.9576C69.381 57.9676 69.9 59.0213 69.9 60.0836C69.9 61.2719 69.1752 62.4818 67.7009 63.6333C66.2277 64.7839 64.0191 65.865 61.0863 66.7946C55.2217 68.6536 46.4828 69.9003 35 69.9003C23.5172 69.9003 14.7783 68.6536 8.91365 66.7946C5.98085 65.865 3.77232 64.7839 2.29909 63.6333C0.824757 62.4818 0.1 61.2719 0.1 60.0836C0.1 59.0213 0.619051 57.9676 1.6041 56.9576C2.58925 55.9474 4.03426 54.9877 5.86821 54.1168C9.53568 52.3751 14.7401 50.997 20.8752 50.2744L20.876 50.2743C21.4602 50.2009 21.9897 50.6223 22.0592 51.2087C22.1275 51.7935 21.7091 52.3246 21.1249 52.3928L21.1248 52.3928C14.9829 53.1159 10.2717 54.4521 7.09289 55.8927C5.50391 56.6129 4.2943 57.3608 3.48015 58.0739C2.67074 58.783 2.23333 59.4746 2.23333 60.0836C2.23333 60.5131 2.4439 60.9513 2.83234 61.3853C3.2212 61.8197 3.79536 62.2582 4.54116 62.6908C6.0331 63.5563 8.22836 64.4081 11.0512 65.1593C16.6982 66.6621 24.8738 67.767 35 67.767C45.1262 67.767 53.3018 66.6621 58.9488 65.1593C61.7716 64.4081 63.9669 63.5563 65.4588 62.6908C66.2046 62.2582 66.7788 61.8197 67.1677 61.3853C67.5561 60.9513 67.7667 60.5131 67.7667 60.0836C67.7667 59.4746 67.3293 58.783 66.5198 58.0739C65.7057 57.3608 64.4961 56.6129 62.9071 55.8927C59.7283 54.4521 55.0171 53.1159 48.8752 52.3928L48.8751 52.3928C48.2908 52.3246 47.8725 51.7946 47.9408 51.2087C48.0091 50.6228 48.5382 50.203 49.1244 50.2744Z" fill="#222222" stroke="#222222" stroke-width="0.2"/>
</svg>
