<svg width="26" height="26" viewBox="0 0 26 26" fill="none" xmlns="http://www.w3.org/2000/svg">
<path d="M24.6628 18.3444C24.1373 17.0943 23.0201 16.6774 21.3485 17.1093C20.6818 17.2805 19.8615 17.5376 18.9987 17.8086C18.1112 18.0879 17.1585 18.3817 16.2916 18.6082C16.2854 18.5746 16.2916 18.5498 16.2833 18.5151C15.9611 17.1222 14.2408 15.2096 10.8174 15.6435C8.73919 15.9099 8.18887 15.2494 7.65872 14.6122C7.39287 14.292 7.11823 13.961 6.69411 13.7567C4.86988 12.8759 2.16224 13.9212 1.37658 14.2625C1.06263 14.3996 0.917811 14.7653 1.05539 15.0792C1.19194 15.3942 1.55761 15.5369 1.87156 15.4009C3.17547 14.8335 5.07987 14.3567 6.15465 14.8749C6.33568 14.9623 6.50739 15.1677 6.70445 15.4056C7.34477 16.1742 8.22197 17.2262 10.9756 16.875C13.0337 16.6117 14.0872 17.3746 14.5336 17.852C14.9086 18.2539 15.0518 18.6444 15.0881 18.8575C13.8447 19.2547 11.9392 19.6938 11.3372 19.5444C10.6865 19.3825 8.36421 18.7804 6.83583 18.3848C6.49757 18.302 6.16499 18.4986 6.07914 18.8301C5.99328 19.1621 6.19241 19.5004 6.52446 19.5868C8.05698 19.984 10.3855 20.5866 11.0382 20.7485C11.211 20.7919 11.4163 20.8105 11.6444 20.8105C12.7471 20.81 14.35 20.3745 15.1801 20.1252C16.3666 19.9354 17.8929 19.4575 19.3722 18.9935C20.2106 18.7297 21.0087 18.4789 21.6583 18.3123C22.8939 17.9953 23.2948 18.2896 23.5192 18.8259C23.7365 19.3411 23.7628 19.5759 23.7597 19.669C21.6614 20.9703 14.0236 23.7587 12.1394 23.7587C10.8567 23.7587 6.99565 22.7604 1.81208 21.0883C1.48158 20.9802 1.13504 21.1633 1.03005 21.4881C0.925052 21.8144 1.10401 22.1641 1.42986 22.2691C4.59162 23.2896 10.1864 25 12.1389 25C14.2905 25 22.2996 22.0839 24.5004 20.6683C25.3962 20.0916 24.8443 18.7768 24.6628 18.3444Z" fill="white"/>
<path d="M10.9301 13.6201H22.3089C22.6513 13.6201 22.9291 13.3424 22.9291 12.9995V1.62066C22.9291 1.27775 22.6513 1 22.3089 1H10.9301C10.5877 1 10.31 1.27775 10.31 1.62066V12.9995C10.31 13.3424 10.5877 13.6201 10.9301 13.6201ZM15.688 2.24133H17.551V7.20663H15.688V2.24133ZM11.5503 2.24133H14.4477V7.82729C14.4477 8.17021 14.7255 8.44796 15.0679 8.44796H18.1712C18.5136 8.44796 18.7913 8.17021 18.7913 7.82729V2.24133H21.6888V12.3788H11.5503V2.24133Z" fill="white"/>
<path d="M24.6628 18.3444C24.1373 17.0943 23.0201 16.6774 21.3485 17.1093C20.6818 17.2805 19.8615 17.5376 18.9987 17.8086C18.1112 18.0879 17.1585 18.3817 16.2916 18.6082C16.2854 18.5746 16.2916 18.5498 16.2833 18.5151C15.9611 17.1222 14.2408 15.2096 10.8174 15.6435C8.73919 15.9099 8.18887 15.2494 7.65872 14.6122C7.39287 14.292 7.11823 13.961 6.69411 13.7567C4.86988 12.8759 2.16224 13.9212 1.37658 14.2625C1.06263 14.3996 0.917811 14.7653 1.05539 15.0792C1.19194 15.3942 1.55761 15.5369 1.87156 15.4009C3.17547 14.8335 5.07987 14.3567 6.15465 14.8749C6.33568 14.9623 6.50739 15.1677 6.70445 15.4056C7.34477 16.1742 8.22197 17.2262 10.9756 16.875C13.0337 16.6117 14.0872 17.3746 14.5336 17.852C14.9086 18.2539 15.0518 18.6444 15.0881 18.8575C13.8447 19.2547 11.9392 19.6938 11.3372 19.5444C10.6865 19.3825 8.36421 18.7804 6.83583 18.3848C6.49757 18.302 6.16499 18.4986 6.07914 18.8301C5.99328 19.1621 6.19241 19.5004 6.52446 19.5868C8.05698 19.984 10.3855 20.5866 11.0382 20.7485C11.211 20.7919 11.4163 20.8105 11.6444 20.8105C12.7471 20.81 14.35 20.3745 15.1801 20.1252C16.3666 19.9354 17.8929 19.4575 19.3722 18.9935C20.2106 18.7297 21.0087 18.4789 21.6583 18.3123C22.8939 17.9953 23.2948 18.2896 23.5192 18.8259C23.7365 19.3411 23.7628 19.5759 23.7597 19.669C21.6614 20.9703 14.0236 23.7587 12.1394 23.7587C10.8567 23.7587 6.99565 22.7604 1.81208 21.0883C1.48158 20.9802 1.13504 21.1633 1.03005 21.4881C0.925052 21.8144 1.10401 22.1641 1.42986 22.2691C4.59162 23.2896 10.1864 25 12.1389 25C14.2905 25 22.2996 22.0839 24.5004 20.6683C25.3962 20.0916 24.8443 18.7768 24.6628 18.3444Z" stroke="white" stroke-width="0.3"/>
<path d="M10.9301 13.6201H22.3089C22.6513 13.6201 22.9291 13.3424 22.9291 12.9995V1.62066C22.9291 1.27775 22.6513 1 22.3089 1H10.9301C10.5877 1 10.31 1.27775 10.31 1.62066V12.9995C10.31 13.3424 10.5877 13.6201 10.9301 13.6201ZM15.688 2.24133H17.551V7.20663H15.688V2.24133ZM11.5503 2.24133H14.4477V7.82729C14.4477 8.17021 14.7255 8.44796 15.0679 8.44796H18.1712C18.5136 8.44796 18.7913 8.17021 18.7913 7.82729V2.24133H21.6888V12.3788H11.5503V2.24133Z" stroke="white" stroke-width="0.3"/>
</svg>
