<svg width="55" height="52" viewBox="0 0 55 52" fill="none" xmlns="http://www.w3.org/2000/svg">
<path d="M28.0091 5.6283C24.6506 2.26992 19.9963 0.611055 15.2394 1.07729C11.6526 1.42886 8.25176 3.04875 5.66345 5.6383C3.07577 8.22745 1.45693 11.629 1.10514 15.2166C0.756799 18.7693 1.56304 22.2088 3.43912 25.1928L1.14131 30.3628C0.86739 30.9792 0.998515 31.6854 1.47548 32.1624C1.78693 32.4739 2.19615 32.6378 2.61433 32.6378C2.83645 32.6378 3.06118 32.5915 3.27485 32.4965L8.4449 30.1987C11.429 32.0746 14.8688 32.881 18.4212 32.5325C19.3676 32.4397 20.3109 32.2582 21.2248 31.9928C21.6394 31.8724 21.878 31.4388 21.7576 31.0242C21.6371 30.6097 21.2035 30.3712 20.7888 30.4915C19.9672 30.7299 19.1193 30.8932 18.2684 30.9766C14.9336 31.3039 11.7105 30.5032 8.94751 28.6619C8.72456 28.5133 8.44115 28.4891 8.19652 28.5981L2.63956 31.0678C2.621 31.0761 2.60641 31.0826 2.58066 31.0568C2.55492 31.0311 2.56148 31.0165 2.56972 30.9979L5.03951 25.441C5.14823 25.1962 5.12415 24.9128 4.97572 24.69C3.13445 21.927 2.33415 18.7039 2.66113 15.3692C2.97769 12.1409 4.43663 9.07757 6.76936 6.74369C9.1024 4.4094 12.1647 2.94972 15.3919 2.63338C19.6814 2.21301 23.877 3.7075 26.9034 6.73389C29.9299 9.76029 31.4245 13.9561 31.0041 18.2454C30.962 18.6751 31.2761 19.0575 31.7059 19.0996C32.1367 19.1419 32.5181 18.8275 32.5602 18.3979C33.0265 13.6411 31.3676 8.98678 28.0091 5.6283Z" fill="#1AB248" stroke="#1AB248" stroke-width="0.1"/>
<path d="M25.1792 16.0234H16.8325C16.4008 16.0234 16.0508 16.3735 16.0508 16.8052C16.0508 17.2369 16.4008 17.5869 16.8325 17.5869H25.1792C25.6109 17.5869 25.9609 17.2369 25.9609 16.8052C25.9609 16.3735 25.6109 16.0234 25.1792 16.0234Z" fill="#1AB248" stroke="#1AB248" stroke-width="0.1"/>
<path d="M22.6752 11.8496H16.8325C16.4008 11.8496 16.0508 12.1996 16.0508 12.6314C16.0508 13.0631 16.4008 13.4131 16.8325 13.4131H22.6752C23.1069 13.4131 23.4569 13.0631 23.4569 12.6314C23.4569 12.1996 23.1069 11.8496 22.6752 11.8496Z" fill="#1AB248" stroke="#1AB248" stroke-width="0.1"/>
<path d="M25.1792 20.1953H16.8325C16.4008 20.1953 16.0508 20.5453 16.0508 20.9771C16.0508 21.4088 16.4008 21.7588 16.8325 21.7588H25.1792C25.6109 21.7588 25.9609 21.4088 25.9609 20.9771C25.9609 20.5453 25.6109 20.1953 25.1792 20.1953Z" fill="#1AB248" stroke="#1AB248" stroke-width="0.1"/>
<path d="M54.2258 48.7261L51.928 43.5559C53.804 40.572 54.6102 37.1324 54.262 33.5797C53.9102 29.9922 52.2913 26.5907 49.7036 24.0015C47.1152 21.4117 43.7144 19.792 40.1276 19.4404C35.3715 18.9747 30.7166 20.633 27.358 23.9914C23.9995 27.3499 22.3406 32.0042 22.8067 36.761C23.1583 40.3479 24.7781 43.7488 27.3677 46.3372C29.9568 48.925 33.3584 50.5438 36.9459 50.8957C40.4986 51.2439 43.9382 50.4379 46.9222 48.5618L52.0922 50.8596C52.306 50.9547 52.5306 51.0009 52.7527 51.0009C53.1709 51.0009 53.5802 50.8369 53.8917 50.5254C54.3686 50.0487 54.4998 49.3423 54.2258 48.7261ZM52.7861 49.42C52.7603 49.4456 52.7457 49.4391 52.7272 49.4309L47.1702 46.9612C47.0687 46.9161 46.9605 46.8939 46.8528 46.8939C46.7009 46.8939 46.5496 46.9382 46.4192 47.0251C43.6562 48.8665 40.4329 49.6669 37.0983 49.3398C33.8699 49.0232 30.8067 47.5641 28.4728 45.2315C26.1385 42.8984 24.679 39.8361 24.3626 36.6088C23.9423 32.3195 25.437 28.1239 28.4634 25.0974C31.4898 22.071 35.6855 20.5763 39.9748 20.9968C43.2022 21.3132 46.2644 22.7729 48.5974 25.1072C50.9301 27.4411 52.389 30.5043 52.7056 33.7325C53.0326 37.0673 52.2322 40.2904 50.3909 43.0533C50.2424 43.2762 50.2183 43.5596 50.3271 43.8043L52.7969 49.3613C52.8052 49.3796 52.8118 49.3942 52.7861 49.42Z" fill="#1AB248" stroke="#1AB248" stroke-width="0.1"/>
<path d="M47.7156 34.3848H29.353C28.9213 34.3848 28.5713 34.7348 28.5713 35.1665C28.5713 35.5982 28.9213 35.9483 29.353 35.9483H47.7156C48.1473 35.9483 48.4974 35.5982 48.4974 35.1665C48.4974 34.7348 48.1473 34.3848 47.7156 34.3848Z" fill="#1AB248" stroke="#1AB248" stroke-width="0.1"/>
<path d="M45.2117 30.2129H31.8569C31.4252 30.2129 31.0752 30.5629 31.0752 30.9946C31.0752 31.4264 31.4252 31.7764 31.8569 31.7764H45.2117C45.6434 31.7764 45.9934 31.4264 45.9934 30.9946C45.9934 30.5629 45.6434 30.2129 45.2117 30.2129Z" fill="#1AB248" stroke="#1AB248" stroke-width="0.1"/>
<path d="M45.2117 38.5586H31.8569C31.4252 38.5586 31.0752 38.9086 31.0752 39.3403C31.0752 39.7721 31.4252 40.1221 31.8569 40.1221H45.2117C45.6434 40.1221 45.9934 39.7721 45.9934 39.3403C45.9934 38.9086 45.6434 38.5586 45.2117 38.5586Z" fill="#1AB248" stroke="#1AB248" stroke-width="0.1"/>
<path d="M14.224 14.5457C13.9914 13.2209 12.9038 12.133 11.5789 11.9005C10.608 11.7302 9.62334 11.9914 8.87776 12.6176C8.13187 13.2439 7.7041 14.1614 7.7041 15.1346C7.7041 15.5663 8.05412 15.9163 8.48585 15.9163C8.91758 15.9163 9.26759 15.5663 9.26759 15.1346C9.26759 14.6245 9.49201 14.1434 9.88319 13.8149C10.2799 13.4818 10.7858 13.3489 11.3085 13.4405C11.9864 13.5595 12.5648 14.1379 12.6838 14.8158C12.8425 15.7194 12.3016 16.5731 11.4259 16.8014C10.6975 16.9912 10.2081 17.6037 10.2081 18.3256V18.4733C10.2081 18.905 10.5581 19.255 10.9898 19.255C11.4216 19.255 11.7716 18.905 11.7716 18.4733V18.3375C11.7794 18.331 11.7952 18.3209 11.8203 18.3143C13.4913 17.8789 14.5248 16.2587 14.224 14.5457Z" fill="#1AB248" stroke="#1AB248" stroke-width="0.1"/>
<path d="M10.9988 20.1953H10.9905C10.5587 20.1953 10.2129 20.5453 10.2129 20.9771C10.2129 21.4088 10.5671 21.7588 10.9988 21.7588C11.4305 21.7588 11.7806 21.4088 11.7806 20.9771C11.7806 20.5453 11.4305 20.1953 10.9988 20.1953Z" fill="#1AB248" stroke="#1AB248" stroke-width="0.1"/>
</svg>
