<svg width="26" height="22" viewBox="0 0 26 22" fill="none" xmlns="http://www.w3.org/2000/svg">
<path d="M23.3453 16.9375H2.65472C2.31229 16.9375 2.03452 17.2228 2.03452 17.575C2.03452 17.9272 2.31229 18.2125 2.65472 18.2125H23.3453C23.6877 18.2125 23.9655 17.9272 23.9655 17.575C23.9655 17.2228 23.6877 16.9375 23.3453 16.9375Z" fill="white"/>
<path d="M21.2762 20.125H4.72377C4.38134 20.125 4.10357 20.4103 4.10357 20.7625C4.10357 21.1147 4.38134 21.4 4.72377 21.4H21.2762C21.6186 21.4 21.8964 21.1147 21.8964 20.7625C21.8964 20.4103 21.6186 20.125 21.2762 20.125Z" fill="white"/>
<path d="M16.7238 8.01247C16.7238 5.90341 15.054 4.18747 13 4.18747C10.9459 4.18747 9.27621 5.90341 9.27621 8.01247C9.27621 10.1215 10.9459 11.8375 13 11.8375C15.054 11.8375 16.7238 10.1215 16.7238 8.01247ZM10.5166 8.01247C10.5166 6.60679 11.6308 5.46247 13 5.46247C14.3687 5.46247 15.4834 6.60625 15.4834 8.01247C15.4834 9.41869 14.3692 10.5625 13 10.5625C11.6308 10.5625 10.5166 9.41869 10.5166 8.01247Z" fill="white"/>
<path d="M24.3798 1H9.89642C9.55399 1 9.27622 1.28528 9.27622 1.6375C9.27622 1.98972 9.55399 2.275 9.89642 2.275H19.6841C19.965 4.45577 21.6362 6.17224 23.7596 6.46071V9.56426C21.6362 9.85273 19.965 11.5687 19.6841 13.75H6.31592C6.03504 11.5692 4.36377 9.85273 2.2404 9.56426V6.46071C4.36589 6.1722 6.05874 4.45596 6.33802 2.275C6.36473 2.06647 6.37851 1.85369 6.37851 1.6375C6.37851 1.28528 6.10074 1 5.75831 1H1.6202C1.27777 1 1 1.28528 1 1.6375V14.3875C1 14.7397 1.27777 15.025 1.6202 15.025H24.3798C24.7222 15.025 25 14.7397 25 14.3875V1.6375C25 1.28528 24.7222 1 24.3798 1ZM20.9172 2.275H23.7591V5.19368C22.3159 4.92911 21.1748 3.75665 20.9172 2.275ZM2.2404 2.275H5.08224C4.82465 3.75665 3.68408 4.92858 2.2404 5.19368V2.275ZM2.2404 13.75V10.8313C3.68408 11.0964 4.82465 12.2683 5.08224 13.75H2.2404ZM23.7596 13.75H20.9178C21.1753 12.2683 22.3159 11.0964 23.7596 10.8313V13.75Z" fill="white"/>
<path d="M9.27622 1.6375C9.27622 1.28528 9.55399 1 9.89642 1H5.75831C6.10074 1 6.37851 1.28528 6.37851 1.6375C6.37851 1.85369 6.36473 2.06647 6.33802 2.275H9.89642C9.55399 2.275 9.27622 1.98972 9.27622 1.6375Z" fill="white"/>
<path d="M9.89642 1C9.55399 1 9.27622 1.28528 9.27622 1.6375C9.27622 1.98972 9.55399 2.275 9.89642 2.275M9.89642 1H24.3798C24.7222 1 25 1.28528 25 1.6375V14.3875C25 14.7397 24.7222 15.025 24.3798 15.025H1.6202C1.27777 15.025 1 14.7397 1 14.3875V1.6375C1 1.28528 1.27777 1 1.6202 1H5.75831M9.89642 1H5.75831M9.89642 2.275H19.6841C19.965 4.45577 21.6362 6.17224 23.7596 6.46071V9.56426C21.6362 9.85273 19.965 11.5687 19.6841 13.75H6.31592C6.03504 11.5692 4.36376 9.85273 2.2404 9.56426V6.46071C4.36589 6.1722 6.05874 4.45596 6.33802 2.275M9.89642 2.275H6.33802M5.75831 1C6.10074 1 6.37851 1.28528 6.37851 1.6375C6.37851 1.85369 6.36473 2.06647 6.33802 2.275M23.3453 16.9375H2.65472C2.31229 16.9375 2.03452 17.2228 2.03452 17.575C2.03452 17.9272 2.31229 18.2125 2.65472 18.2125H23.3453C23.6877 18.2125 23.9655 17.9272 23.9655 17.575C23.9655 17.2228 23.6877 16.9375 23.3453 16.9375ZM21.2762 20.125H4.72377C4.38134 20.125 4.10357 20.4103 4.10357 20.7625C4.10357 21.1147 4.38134 21.4 4.72377 21.4H21.2762C21.6186 21.4 21.8964 21.1147 21.8964 20.7625C21.8964 20.4103 21.6186 20.125 21.2762 20.125ZM16.7238 8.01247C16.7238 5.90341 15.054 4.18747 13 4.18747C10.9459 4.18747 9.27621 5.90341 9.27621 8.01247C9.27621 10.1215 10.9459 11.8375 13 11.8375C15.054 11.8375 16.7238 10.1215 16.7238 8.01247ZM10.5166 8.01247C10.5166 6.60679 11.6308 5.46247 13 5.46247C14.3687 5.46247 15.4834 6.60625 15.4834 8.01247C15.4834 9.41869 14.3692 10.5625 13 10.5625C11.6308 10.5625 10.5166 9.41869 10.5166 8.01247ZM20.9172 2.275H23.7591V5.19368C22.3159 4.92911 21.1748 3.75665 20.9172 2.275ZM2.2404 2.275H5.08224C4.82465 3.75665 3.68408 4.92858 2.2404 5.19368V2.275ZM2.2404 13.75V10.8313C3.68408 11.0964 4.82465 12.2683 5.08224 13.75H2.2404ZM23.7596 13.75H20.9178C21.1753 12.2683 22.3159 11.0964 23.7596 10.8313V13.75Z" stroke="white" stroke-width="0.3"/>
</svg>
