<svg width="26" height="26" viewBox="0 0 26 26" fill="none" xmlns="http://www.w3.org/2000/svg">
<path d="M24.9114 6.4928C24.8985 6.46901 24.884 6.44987 24.868 6.42815C24.8105 6.35108 24.7402 6.28694 24.6538 6.24349C24.6461 6.23987 24.643 6.23159 24.6357 6.22797L13.2562 1.05548C13.0928 0.981508 12.9066 0.981508 12.7431 1.05548L1.36362 6.22797C1.35587 6.23159 1.35276 6.23987 1.34552 6.24349C1.25914 6.28694 1.18931 6.35108 1.13138 6.42815C1.11483 6.44987 1.10086 6.46953 1.08793 6.4928C1.03672 6.58281 1 6.6816 1 6.79281V19.1892C1 19.1897 1 19.1908 1 19.1918V19.2063C1 19.2332 1.0119 19.2559 1.015 19.2818C1.02172 19.3346 1.02638 19.3868 1.04603 19.4359C1.06052 19.4716 1.08535 19.5006 1.10552 19.5327C1.12776 19.5678 1.14535 19.6046 1.17431 19.6351C1.20793 19.6703 1.25035 19.6935 1.29173 19.7199C1.31655 19.7359 1.33518 19.7587 1.36311 19.7716L12.7426 24.9441C12.7452 24.9452 12.7478 24.9447 12.7504 24.9457C12.8264 24.9793 12.9107 24.9995 12.9992 24.9995C13.0881 24.9995 13.1719 24.9793 13.248 24.9457C13.2505 24.9447 13.2531 24.9452 13.2557 24.9441L15.5306 23.9096C15.843 23.7679 15.9811 23.3996 15.8389 23.0872C15.6966 22.7753 15.3278 22.6377 15.0175 22.7789L13.6199 23.4146V12.3646L23.759 7.75593V16.1028C23.759 16.4457 24.0367 16.7235 24.3792 16.7235C24.7216 16.7235 24.9993 16.4457 24.9993 16.1028V6.79229C24.9993 6.6816 24.9626 6.58281 24.9114 6.4928ZM12.3795 23.4151L2.24036 18.8064V7.75644L12.3795 12.3651V23.4151ZM12.9997 11.2831L3.12021 6.79229L12.9997 2.30153L22.8786 6.79229L12.9997 11.2831Z" fill="white"/>
<path d="M17.1377 14.6545C17.2318 14.6545 17.3265 14.6333 17.4154 14.5888L21.5534 12.5198C21.8596 12.3667 21.9838 11.9932 21.8312 11.687C21.6765 11.3803 21.3 11.2577 20.9979 11.4098L16.8599 13.4788C16.5537 13.6319 16.4295 14.0053 16.5821 14.3116C16.6913 14.5288 16.9101 14.6545 17.1377 14.6545Z" fill="white"/>
<path d="M23.2697 22.392C23.7036 21.7832 23.9648 21.0436 23.9648 20.2408C23.9648 18.1873 22.2952 16.5166 20.2412 16.5166C18.1872 16.5166 16.5175 18.1873 16.5175 20.2408C16.5175 22.2943 18.1872 23.965 20.2412 23.965C21.0445 23.965 21.7836 23.7038 22.3929 23.2698L23.9411 24.8179C24.0621 24.939 24.2209 25 24.3797 25C24.5385 25 24.6968 24.9395 24.8183 24.8179C25.0609 24.5753 25.0609 24.1822 24.8183 23.9402L23.2697 22.392ZM20.2412 22.7236C18.8725 22.7236 17.7578 21.6099 17.7578 20.2408C17.7578 18.8721 18.872 17.758 20.2412 17.758C21.6098 17.758 22.7245 18.8716 22.7245 20.2408C22.7245 21.6099 21.6098 22.7236 20.2412 22.7236Z" fill="white"/>
<path d="M24.9114 6.4928C24.8985 6.46901 24.884 6.44987 24.868 6.42815C24.8105 6.35108 24.7402 6.28694 24.6538 6.24349C24.6461 6.23987 24.643 6.23159 24.6357 6.22797L13.2562 1.05548C13.0928 0.981508 12.9066 0.981508 12.7431 1.05548L1.36362 6.22797C1.35587 6.23159 1.35276 6.23987 1.34552 6.24349C1.25914 6.28694 1.18931 6.35108 1.13138 6.42815C1.11483 6.44987 1.10086 6.46953 1.08793 6.4928C1.03672 6.58281 1 6.6816 1 6.79281V19.1892C1 19.1897 1 19.1908 1 19.1918V19.2063C1 19.2332 1.0119 19.2559 1.015 19.2818C1.02172 19.3346 1.02638 19.3868 1.04603 19.4359C1.06052 19.4716 1.08535 19.5006 1.10552 19.5327C1.12776 19.5678 1.14535 19.6046 1.17431 19.6351C1.20793 19.6703 1.25035 19.6935 1.29173 19.7199C1.31655 19.7359 1.33518 19.7587 1.36311 19.7716L12.7426 24.9441C12.7452 24.9452 12.7478 24.9447 12.7504 24.9457C12.8264 24.9793 12.9107 24.9995 12.9992 24.9995C13.0881 24.9995 13.1719 24.9793 13.248 24.9457C13.2505 24.9447 13.2531 24.9452 13.2557 24.9441L15.5306 23.9096C15.843 23.7679 15.9811 23.3996 15.8389 23.0872C15.6966 22.7753 15.3278 22.6377 15.0175 22.7789L13.6199 23.4146V12.3646L23.759 7.75593V16.1028C23.759 16.4457 24.0367 16.7235 24.3792 16.7235C24.7216 16.7235 24.9993 16.4457 24.9993 16.1028V6.79229C24.9993 6.6816 24.9626 6.58281 24.9114 6.4928ZM12.3795 23.4151L2.24036 18.8064V7.75644L12.3795 12.3651V23.4151ZM12.9997 11.2831L3.12021 6.79229L12.9997 2.30153L22.8786 6.79229L12.9997 11.2831Z" stroke="white" stroke-width="0.3"/>
<path d="M17.1377 14.6545C17.2318 14.6545 17.3265 14.6333 17.4154 14.5888L21.5534 12.5198C21.8596 12.3667 21.9838 11.9932 21.8312 11.687C21.6765 11.3803 21.3 11.2577 20.9979 11.4098L16.8599 13.4788C16.5537 13.6319 16.4295 14.0053 16.5821 14.3116C16.6913 14.5288 16.9101 14.6545 17.1377 14.6545Z" stroke="white" stroke-width="0.3"/>
<path d="M23.2697 22.392C23.7036 21.7832 23.9648 21.0436 23.9648 20.2408C23.9648 18.1873 22.2952 16.5166 20.2412 16.5166C18.1872 16.5166 16.5175 18.1873 16.5175 20.2408C16.5175 22.2943 18.1872 23.965 20.2412 23.965C21.0445 23.965 21.7836 23.7038 22.3929 23.2698L23.9411 24.8179C24.0621 24.939 24.2209 25 24.3797 25C24.5385 25 24.6968 24.9395 24.8183 24.8179C25.0609 24.5753 25.0609 24.1822 24.8183 23.9402L23.2697 22.392ZM20.2412 22.7236C18.8725 22.7236 17.7578 21.6099 17.7578 20.2408C17.7578 18.8721 18.872 17.758 20.2412 17.758C21.6098 17.758 22.7245 18.8716 22.7245 20.2408C22.7245 21.6099 21.6098 22.7236 20.2412 22.7236Z" stroke="white" stroke-width="0.3"/>
</svg>
