<svg width="33" height="30" viewBox="0 0 33 30" fill="none" xmlns="http://www.w3.org/2000/svg">
<path d="M30.0996 0H2.90039C1.30112 0 0 1.30112 0 2.90039V20.1738C0 21.7731 1.30112 23.0742 2.90039 23.0742H12.4395V27.3281H6.1875C5.65357 27.3281 5.2207 27.761 5.2207 28.2949C5.2207 28.8289 5.65357 29.2617 6.1875 29.2617H26.8125C27.3464 29.2617 27.7793 28.8289 27.7793 28.2949C27.7793 27.761 27.3464 27.3281 26.8125 27.3281H20.5605V23.0742H30.0996C31.6989 23.0742 33 21.7731 33 20.1738V2.90039C33 1.30112 31.6989 0 30.0996 0ZM18.627 27.3281H14.373V23.0742H18.627V27.3281ZM31.0664 20.1738C31.0664 20.7069 30.6327 21.1406 30.0996 21.1406C29.1162 21.1406 4.45487 21.1406 2.90039 21.1406C2.3673 21.1406 1.93359 20.7069 1.93359 20.1738V2.90039C1.93359 2.3673 2.3673 1.93359 2.90039 1.93359H30.0996C30.6327 1.93359 31.0664 2.3673 31.0664 2.90039V20.1738Z" fill="#222222"/>
<path d="M26.8125 4.125H22.6875C22.1536 4.125 21.7207 4.55787 21.7207 5.0918V6.1875H18.5625C18.0286 6.1875 17.5957 6.62037 17.5957 7.1543V8.25H14.4375C13.9036 8.25 13.4707 8.68287 13.4707 9.2168V17.9824C13.4707 18.5164 13.9036 18.9492 14.4375 18.9492H26.8125C27.3464 18.9492 27.7793 18.5164 27.7793 17.9824V5.0918C27.7793 4.55787 27.3464 4.125 26.8125 4.125ZM15.4043 10.1836H17.5957V17.0156H15.4043V10.1836ZM19.5293 8.12109H21.7207V17.0156H19.5293C19.5293 15.7739 19.5293 9.01925 19.5293 8.12109ZM25.8457 17.0156H23.6543C23.6543 16.4725 23.6543 6.55501 23.6543 6.05859H25.8457V17.0156Z" fill="#222222"/>
<path d="M8.29049 12.6436C7.80877 12.4732 7.02321 12.187 6.6296 11.8783C6.60575 11.8595 6.56115 11.7473 6.59247 11.5806C6.60756 11.5005 6.67678 11.2333 6.93614 11.1551C7.33665 11.0338 7.71679 11.1135 7.96623 11.2982C8.35997 11.6568 8.96976 11.6295 9.3298 11.2366C9.68938 10.8441 9.66379 10.2353 9.27359 9.87412C9.27359 9.87412 8.82565 9.47528 8.18511 9.28656V9.20703C8.18511 8.6731 7.75224 8.24023 7.21831 8.24023C6.68438 8.24023 6.25152 8.6731 6.25152 9.20703V9.34689C4.51373 9.97892 4.1051 12.3561 5.43644 13.4C6.04295 13.8755 6.90965 14.2061 7.64538 14.4665C8.12465 14.636 8.17332 14.9796 8.12987 15.2382C8.08147 15.5258 7.83365 16.0138 7.2118 16.0178C6.56714 16.022 6.4142 15.9983 5.94369 15.6904C5.49684 15.398 4.89774 15.523 4.60526 15.9698C4.31283 16.4166 4.43793 17.0158 4.88472 17.3083C5.39867 17.6446 5.80576 17.8113 6.25145 17.8894V17.9824C6.25145 18.5163 6.68432 18.9492 7.21825 18.9492C7.75218 18.9492 8.18505 18.5163 8.18505 17.9824V17.7801C10.5274 16.9334 10.8382 13.5448 8.29049 12.6436Z" fill="#222222"/>
</svg>
