<svg width="39" height="48" viewBox="0 0 39 48" fill="none" xmlns="http://www.w3.org/2000/svg">
<path d="M38.0343 6.3255L19.8895 0.867886C19.6354 0.791434 19.3647 0.791434 19.1106 0.867886L0.965726 6.3255C0.39247 6.49788 0 7.02688 0 7.6269V27.6381C0 30.2409 1.05092 32.9054 3.12359 35.5573C4.70657 37.5827 6.89678 39.6167 9.63304 41.6024C14.2297 44.9384 18.7559 46.9848 18.9463 47.0703C19.1224 47.1493 19.3113 47.1889 19.5001 47.1889C19.6889 47.1889 19.8777 47.1494 20.0539 47.0703C20.2443 46.9848 24.7705 44.9384 29.3671 41.6024C32.1033 39.6166 34.2933 37.5827 35.8764 35.5573C37.9491 32.9054 39 30.241 39 27.6381V7.6269C39 7.02688 38.6074 6.49788 38.0343 6.3255Z" fill="#1AB248"/>
<path d="M38.0607 6.3255L20.4063 0.867886C20.2827 0.82966 20.155 0.810547 20.0273 0.810547V47.1889H20.0274C20.2112 47.1889 20.3949 47.1494 20.5663 47.0703C20.7515 46.9848 25.1554 44.9384 29.6278 41.6024C32.29 39.6166 34.4209 37.5827 35.9612 35.5573C37.9778 32.9054 39.0003 30.241 39.0003 27.6381V7.6269C39.0003 7.02688 38.6184 6.49788 38.0607 6.3255Z" fill="#269449"/>
<path d="M19.5002 12.4053C13.3975 12.4053 8.43261 17.3702 8.43261 23.4728C8.43261 29.5755 13.3975 34.5404 19.5002 34.5404C25.6028 34.5404 30.5677 29.5755 30.5677 23.4728C30.5677 17.3702 25.6028 12.4053 19.5002 12.4053ZM23.7803 23.0097L19.037 27.7529C18.7284 28.0617 18.3237 28.2161 17.9191 28.2161C17.5144 28.2161 17.1098 28.0618 16.8012 27.7529L15.2201 26.1719C14.6026 25.5544 14.6026 24.5534 15.2201 23.9359C15.8374 23.3184 16.8386 23.3184 17.456 23.9359L17.9192 24.3989L21.5445 20.7737C22.1619 20.1563 23.163 20.1563 23.7805 20.7737C24.3978 21.3912 24.3978 22.3922 23.7803 23.0097Z" fill="white"/>
</svg>
