<svg width="42" height="42" viewBox="0 0 42 42" fill="none" xmlns="http://www.w3.org/2000/svg">
<path d="M0 21.0001C0 30.0293 5.69887 37.7267 13.6955 40.6939L15.5217 21.0001L13.6955 1.30632C5.69887 4.27355 0 11.9709 0 21.0001Z" fill="#6DA544"/>
<path d="M41.9998 21C41.9998 9.40209 32.5977 0 20.9998 0C18.4311 0 15.9704 0.462082 13.6953 1.30618V40.6938C15.9704 41.538 18.4311 42 20.9998 42C32.5977 42 41.9998 32.5979 41.9998 21Z" fill="#D80027"/>
<path d="M13.6959 28.3043C17.73 28.3043 21.0002 25.034 21.0002 21C21.0002 16.9659 17.73 13.6957 13.6959 13.6957C9.66185 13.6957 6.3916 16.9659 6.3916 21C6.3916 25.034 9.66185 28.3043 13.6959 28.3043Z" fill="#FFDA44"/>
<path d="M9.58691 17.3478V21.913C9.58691 24.1821 11.4264 26.0217 13.6956 26.0217C15.9648 26.0217 17.8043 24.1822 17.8043 21.913V17.3478H9.58691Z" fill="#D80027"/>
<path d="M13.6958 23.2825C12.9406 23.2825 12.3262 22.6681 12.3262 21.9129V20.0869H15.0653V21.913C15.0653 22.6681 14.4509 23.2825 13.6958 23.2825Z" fill="#F0F0F0"/>
</svg>
