<svg width="24" height="18" viewBox="0 0 24 18" fill="none" xmlns="http://www.w3.org/2000/svg">
<path d="M24 7.50014L19.6651 7.50014L21.165 0.000244388L15.1359 0.000244916L13.5151 8.10013L13.5001 18L24 18L24 7.50014ZM22.5 16.5L15.0001 16.5L15.0001 8.32513L16.3644 1.50023L19.3351 1.50023L17.8351 9.00012L22.5 9.00012L22.5 16.5Z" fill="#1AB248"/>
<path d="M10.5 18L10.5 7.50015L6.16506 7.50015L7.66504 0.000250111L1.63587 0.000250638L0.0151435 8.10014L0.000144005 18L10.5 18ZM1.50012 8.32514L2.86435 1.50023L5.83506 1.50023L4.33508 9.00013L9.00002 9.00013L9.00002 16.5L1.50012 16.5L1.50012 8.32514Z" fill="#1AB248"/>
</svg>
