<svg width="23" height="34" viewBox="0 0 23 34" fill="none" xmlns="http://www.w3.org/2000/svg">
<path d="M22.0617 0.598801C21.9038 0.41105 21.7068 0.260149 21.4843 0.156701C21.2619 0.0532522 21.0195 -0.000233228 20.7742 2.76306e-06H11.1543C10.7534 -0.00072063 10.3652 0.14062 10.0586 0.39894C9.75203 0.657259 9.54688 1.01585 9.47957 1.41107L6.88955 16.4333H2.26667C1.66572 16.434 1.08958 16.6731 0.664645 17.098C0.239709 17.5229 0.00068148 18.0991 0 18.7V33.4334C1.50287e-06 33.5837 0.0597043 33.7278 0.165975 33.8341C0.272245 33.9403 0.416378 34 0.566667 34H2.26667C2.40426 34 2.53716 33.95 2.64055 33.8592C2.74394 33.7684 2.81077 33.6431 2.82856 33.5067L4.46422 20.9667H9.63334V33.4334C9.63334 33.5837 9.69305 33.7278 9.79932 33.8341C9.90559 33.9403 10.0497 34 10.2 34H11.9C12.0376 34 12.1705 33.95 12.2739 33.8592C12.3773 33.7684 12.4441 33.6431 12.4619 33.5067L14.0975 20.9667H15.3692L17.0048 33.5067C17.0226 33.6431 17.0894 33.7684 17.1928 33.8592C17.2962 33.95 17.4291 34 17.5667 34H19.2667C19.417 34 19.5611 33.9403 19.6674 33.8341C19.7736 33.7278 19.8333 33.5837 19.8333 33.4334L19.8336 17.0485L22.4334 1.96985V1.96975C22.4753 1.72795 22.4637 1.47992 22.3995 1.24307C22.3353 1.00623 22.22 0.786318 22.0617 0.598801ZM10.5964 1.60347C10.6189 1.47181 10.6872 1.35234 10.7893 1.26627C10.8914 1.18021 11.0208 1.13311 11.1543 1.13334H19.1826C19.174 1.15827 19.1672 1.18408 19.1597 1.20958C19.1553 1.22495 19.1501 1.23995 19.146 1.25551C19.1338 1.30207 19.1233 1.34936 19.115 1.39758L16.5229 16.4333H8.03959L10.5964 1.60347ZM1.13333 18.7C1.13368 18.3995 1.25319 18.1115 1.46566 17.899C1.67813 17.6865 1.9662 17.567 2.26667 17.5667H10.2C10.5005 17.567 10.7886 17.6865 11.001 17.899C11.2135 18.1115 11.333 18.3995 11.3333 18.7V19.8334H1.13333V18.7ZM1.76911 32.8667H1.13333V20.9667H3.32128L1.76911 32.8667ZM11.4024 32.8667H10.7667V20.9667H12.9546L11.4024 32.8667ZM18.7 32.8667H18.0642L16.5121 20.9667H18.7V32.8667ZM21.3165 1.77737V1.77727L18.7085 16.9037C18.703 16.9355 18.7002 16.9677 18.7002 17V19.8334H12.4667V18.7C12.467 18.3019 12.3618 17.9109 12.1617 17.5667H17.0002C17.1338 17.5668 17.2632 17.5196 17.3654 17.4335C17.4676 17.3474 17.536 17.228 17.5587 17.0963L20.2319 1.58995C20.2537 1.46201 20.3202 1.34594 20.4195 1.26235C20.5188 1.17876 20.6444 1.13305 20.7742 1.13334C20.8544 1.13336 20.9337 1.15091 21.0064 1.18475C21.0791 1.21859 21.1435 1.26791 21.1951 1.32925C21.2468 1.3906 21.2844 1.46249 21.3054 1.53989C21.3263 1.6173 21.3301 1.69835 21.3165 1.77737Z" fill="#1AB248"/>
</svg>
