<svg width="33" height="33" viewBox="0 0 33 33" fill="none" xmlns="http://www.w3.org/2000/svg">
<path d="M32.9933 0.941622C32.9772 0.431324 32.5685 0.0225827 32.0582 0.00659151C31.6081 -0.00811003 20.9766 -0.287246 15.6128 5.07656C15.0792 5.6102 14.5654 6.19175 14.0649 6.79342C12.7053 6.60049 8.56331 6.65465 2.61841 12.5996C2.02596 13.1921 2.44141 14.2137 3.2656 14.25C3.36341 14.2545 5.57961 14.4017 7.95023 16.5966C7.08245 18.3708 6.56603 19.6208 6.51019 19.7575C6.36324 20.1181 6.44674 20.5316 6.72194 20.8067L6.73941 20.8242C5.73217 20.9635 4.75903 21.4018 3.98629 22.1746C2.34527 23.8156 0.229343 30.691 0.0155908 31.8584C-0.0411519 32.1716 0.0589861 32.4922 0.283442 32.7166C0.507834 32.941 0.828431 33.0412 1.14168 32.9845C2.30916 32.7708 9.18451 30.6548 10.8255 29.0138C11.5982 28.241 12.0365 27.2679 12.1759 26.2606L12.1934 26.2781C12.4686 26.5533 12.8819 26.6368 13.2426 26.4898C13.3796 26.4338 14.6349 25.9152 16.4161 25.0436C18.7746 27.4813 18.9171 29.8057 18.921 29.8987C18.9774 31.6974 21.1102 30.3272 20.5907 30.5336C20.5917 30.5325 20.5927 30.5316 20.5936 30.5305C27.0028 24.1096 26.5415 19.7969 26.3303 18.8306C26.8868 18.3624 27.4267 17.8839 27.9235 17.3872C33.2871 12.0232 33.008 1.39176 32.9933 0.941622ZM31.0564 1.94346C31.0335 2.91653 30.9456 4.5573 30.6492 6.43458L26.5652 2.35065C28.4425 2.05417 30.0833 1.96628 31.0564 1.94346ZM5.2908 12.7388C8.64887 9.7414 11.1479 8.91476 12.5739 8.72551C11.106 10.7717 9.84331 12.9409 8.85424 14.819C7.54658 13.7104 6.2827 13.0768 5.2908 12.7388ZM10.2596 25.9954C10.1974 26.4445 10.0079 27.0954 9.45752 27.6458C9.37898 27.7243 8.59058 28.4496 5.13849 29.7185C4.08179 30.107 3.10588 30.4256 2.34217 30.6576C2.57411 29.8942 2.89284 28.9181 3.28127 27.8612C4.55018 24.4091 5.27552 23.6208 5.35405 23.5422C5.90439 22.9919 6.55526 22.8022 7.00443 22.7401L8.45485 22.5395L10.4603 24.5449L10.2596 25.9954ZM20.4327 27.8806C20.0793 26.8436 19.4007 25.5089 18.1939 24.1387C20.1323 23.1173 22.3805 21.8073 24.481 20.2795C24.3724 21.642 23.6564 24.2689 20.4327 27.8806ZM13.0989 24.4479L8.55189 19.9009C9.46623 17.8124 12.7823 10.6426 16.9806 6.44432C18.8849 4.54002 21.6463 3.44159 24.2838 2.80479L30.1951 8.71609C29.5583 11.3536 28.4598 14.1149 26.5555 16.0192C22.3571 20.2175 15.1873 23.5336 13.0989 24.4479ZM17.6645 8.49609C15.7791 10.3816 15.7791 13.4499 17.6645 15.3353C19.55 17.2207 22.6182 17.2207 24.5037 15.3353C26.3892 13.4498 26.3892 10.3815 24.5037 8.49609C22.6182 6.61068 19.55 6.61068 17.6645 8.49609ZM23.1359 13.9674C22.0045 15.0988 20.1638 15.0988 19.0323 13.9674C17.9009 12.8361 17.9009 10.9953 19.0323 9.86391C20.1637 8.73254 22.0044 8.73254 23.1359 9.86391C24.2673 10.9953 24.2673 12.836 23.1359 13.9674Z" fill="#222222"/>
</svg>
