<svg width="43" height="43" viewBox="0 0 43 43" fill="none" xmlns="http://www.w3.org/2000/svg">
<path d="M21.1625 42.3257C32.8505 42.3257 42.3255 32.8507 42.3255 21.1627C42.3255 9.47475 32.8505 -0.000244141 21.1625 -0.000244141C9.4745 -0.000244141 -0.000488281 9.47475 -0.000488281 21.1627C-0.000488281 32.8507 9.4745 42.3257 21.1625 42.3257Z" fill="#F0F0F0"/>
<path d="M41.0092 28.5238C41.8599 26.2311 42.3255 23.7514 42.3255 21.1628C42.3255 18.5741 41.8599 16.0944 41.0092 13.8018H1.31583C0.46518 16.0944 -0.000488281 18.5741 -0.000488281 21.1628C-0.000488281 23.7514 0.46518 26.2311 1.31583 28.5238L21.1625 30.364L41.0092 28.5238Z" fill="#0052B4"/>
<path d="M21.1626 42.3257C30.2619 42.3257 38.0191 36.5826 41.0092 28.5237H1.31592C4.3061 36.5826 12.0632 42.3257 21.1626 42.3257Z" fill="#D80027"/>
</svg>
