<svg width="160" height="107" viewBox="0 0 160 107" fill="none" xmlns="http://www.w3.org/2000/svg">
<path d="M159.024 96.5966L112.545 50.1178C121.36 39.2343 126.667 25.398 126.667 10.3336C126.667 -24.5884 98.2553 -53 63.3333 -53C28.4113 -53 0 -24.5884 0 10.3336C0 45.2556 28.4116 73.6672 63.3336 73.6672C78.398 73.6672 92.2343 68.3603 103.118 59.545L149.597 106.024C150.899 107.325 153.009 107.325 154.311 106.024L159.024 101.311C160.325 100.009 160.325 97.8982 159.024 96.5966ZM63.3336 60.3337C35.762 60.3337 13.3335 37.9052 13.3335 10.3336C13.3335 -17.238 35.762 -39.6665 63.3336 -39.6665C90.9052 -39.6665 113.334 -17.238 113.334 10.3336C113.334 37.9052 90.9052 60.3337 63.3336 60.3337Z" fill="#F2F2F2"/>
</svg>
