<svg width="240" height="187" viewBox="0 0 240 187" fill="none" xmlns="http://www.w3.org/2000/svg">
<path d="M238.535 171.395L168.817 101.677C182.04 85.3514 190 64.597 190 42.0004C190 -10.3825 147.383 -53 94.9999 -53C42.617 -53 0 -10.3825 0 42.0004C0 94.3833 42.6175 137.001 95.0004 137.001C117.597 137.001 138.351 129.04 154.677 115.817L224.395 185.536C226.348 187.488 229.513 187.488 231.467 185.536L238.536 178.466C240.488 176.513 240.488 173.347 238.535 171.395ZM95.0004 117.001C53.643 117.001 20.0002 83.3578 20.0002 42.0004C20.0002 0.642948 53.643 -32.9998 95.0004 -32.9998C136.358 -32.9998 170.001 0.642948 170.001 42.0004C170.001 83.3578 136.358 117.001 95.0004 117.001Z" fill="#F2F2F2"/>
</svg>
