<svg width="18" height="18" viewBox="0 0 18 18" fill="none" xmlns="http://www.w3.org/2000/svg">
<path d="M16.8616 16.184L12.9725 12.2958C14.0157 11.0967 14.6474 9.53215 14.6474 7.82217C14.6474 4.05809 11.5851 1 7.82369 1C4.05877 1 1 4.06164 1 7.82217C1 11.5827 4.06232 14.6443 7.82369 14.6443C9.53404 14.6443 11.0989 14.0129 12.2983 12.9698L16.1874 16.8581C16.2797 16.9503 16.4039 17 16.5245 17C16.6452 17 16.7694 16.9539 16.8616 16.8581C17.0461 16.6736 17.0461 16.3685 16.8616 16.184ZM1.95454 7.82217C1.95454 4.5867 4.58749 1.95787 7.82014 1.95787C11.0563 1.95787 13.6857 4.59024 13.6857 7.82217C13.6857 11.0541 11.0563 13.69 7.82014 13.69C4.58749 13.69 1.95454 11.0576 1.95454 7.82217Z" fill="#999999" stroke="#999999" stroke-width="0.8"/>
</svg>
