<svg width="40" height="35" viewBox="0 0 40 35" fill="none" xmlns="http://www.w3.org/2000/svg">
<path d="M13.7499 33.2937C9.61495 33.2937 6.25 29.8467 6.25 25.6108C6.25 24.7913 6.36833 24.0093 6.60333 23.294C6.89499 22.4011 7.83997 21.9196 8.71163 22.2167C9.58495 22.5154 10.0566 23.4835 9.76328 24.3781C9.64494 24.7435 9.58328 25.1601 9.58328 25.6108C9.58328 27.9652 11.4532 29.8791 13.7499 29.8791C15.6598 29.8791 17.3615 28.5013 17.7931 26.6045C18.0015 25.6876 18.9031 25.114 19.7948 25.3308C20.6914 25.5459 21.2481 26.4645 21.0381 27.3813C20.2448 30.8625 17.2482 33.2937 13.7499 33.2937Z" fill="#F39E31"/>
<path d="M8.18497 22.127C7.48831 22.127 6.83666 22.5777 6.60333 23.2913C6.36833 24.0084 6.25 24.7904 6.25 25.6099C6.25 29.6972 9.38162 33.0504 13.3166 33.2809V29.856C11.2216 29.634 9.58328 27.8157 9.58328 25.6099C9.58328 25.1591 9.64494 24.7426 9.76328 24.3755C10.0549 23.4826 9.58495 22.5128 8.71163 22.214C8.53663 22.156 8.35997 22.127 8.18497 22.127Z" fill="#D67F00"/>
<path d="M38.7494 33.7201L38.4027 33.6705L0.903319 22.573C0.368328 22.4142 0 21.9122 0 21.342V13.6591C0 13.0888 0.368328 12.5869 0.903319 12.4281L38.4027 1.33054C38.7811 1.22298 39.1877 1.29639 39.5011 1.53712C39.8144 1.78127 39.9994 2.15859 39.9994 2.56151V32.4396C39.9994 32.8425 39.8144 33.2198 39.5011 33.464C39.2811 33.6313 39.0177 33.7201 38.7494 33.7201Z" fill="#FFDA44"/>
<path d="M38.3331 35C37.4132 35 36.6665 34.2368 36.6665 33.2927V1.70732C36.6665 0.763171 37.4132 0 38.3331 0C39.2531 0 39.9998 0.763171 39.9998 1.70732V33.2927C39.9998 34.2368 39.2531 35 38.3331 35Z" fill="#FFDA44"/>
<path d="M1.66664 24.7563C0.746655 24.7563 0 23.9932 0 23.049V11.9515C0 11.0073 0.746655 10.2441 1.66664 10.2441C2.58663 10.2441 3.33328 11.0073 3.33328 11.9515V23.049C3.33328 23.9932 2.58663 24.7563 1.66664 24.7563Z" fill="#FFDA44"/>
<path d="M36.6669 17.4668H3.33405V23.0497C3.33405 23.13 3.32905 23.2102 3.31738 23.287L36.6669 33.157V17.4668Z" fill="#F39E31"/>
<path d="M39.9998 17.4668H36.6665V33.1553V33.2919C36.6665 34.2361 37.4132 34.9992 38.3331 34.9992C39.2531 34.9992 39.9998 34.2361 39.9998 33.2919V17.4668Z" fill="#F39E31"/>
<path d="M3.33328 17.4668H0V21.3424V23.0497C0 23.9939 0.746655 24.757 1.66664 24.757C2.50829 24.757 3.20495 24.1185 3.31662 23.287C3.32828 23.2102 3.33328 23.13 3.33328 23.0497V17.4668Z" fill="#F39E31"/>
</svg>
