<svg width="42" height="52" viewBox="0 0 42 52" fill="none" xmlns="http://www.w3.org/2000/svg">
<path d="M40.2919 51H1.70806C1.52027 51 1.34018 50.9248 1.20739 50.7908C1.0746 50.6569 1 50.4752 1 50.2858V38.2386C1.00262 35.8379 1.94916 33.5363 3.63195 31.8387C5.31473 30.1412 7.59632 29.1863 9.97614 29.1837H15.0282C15.1403 29.1837 15.2509 29.2106 15.3507 29.2621C15.4505 29.3136 15.5368 29.3883 15.6024 29.4801L21 37.0187L26.3976 29.4801C26.4632 29.3883 26.5495 29.3136 26.6493 29.2621C26.7491 29.2106 26.8597 29.1837 26.9718 29.1837H32.0239C34.4037 29.1863 36.6853 30.1412 38.368 31.8387C40.0508 33.5363 40.9974 35.8379 41 38.2386V50.2858C41 50.4752 40.9254 50.6569 40.7926 50.7908C40.6598 50.9248 40.4797 51 40.2919 51ZM2.41613 49.5715H39.5839V38.2386C39.5814 36.2168 38.7841 34.2784 37.3669 32.8487C35.9496 31.419 34.0282 30.6147 32.0239 30.6122H27.3336L21.5742 38.6565C21.5055 38.7436 21.4181 38.8139 21.3187 38.8622C21.2193 38.9105 21.1104 38.9356 21 38.9356C20.8896 38.9356 20.7807 38.9105 20.6813 38.8622C20.5819 38.8139 20.4945 38.7436 20.4258 38.6565L14.6664 30.6122H9.97614C7.97185 30.6147 6.05034 31.419 4.6331 32.8487C3.21585 34.2784 2.41857 36.2168 2.41613 38.2386V49.5715Z" fill="#1AB248" stroke="#1AB248" stroke-width="0.4"/>
<path d="M32.0234 51H9.97564C9.78785 51 9.60775 50.9247 9.47497 50.7908C9.34218 50.6568 9.26758 50.4752 9.26758 50.2857V44.725C9.26758 44.5356 9.34218 44.3539 9.47497 44.2199C9.60775 44.086 9.78785 44.0107 9.97564 44.0107C10.1634 44.0107 10.3435 44.086 10.4763 44.2199C10.6091 44.3539 10.6837 44.5356 10.6837 44.725V49.5714H31.3153V44.725C31.3153 44.5356 31.3899 44.3539 31.5227 44.2199C31.6555 44.086 31.8356 44.0107 32.0234 44.0107C32.2112 44.0107 32.3913 44.086 32.524 44.2199C32.6568 44.3539 32.7314 44.5356 32.7314 44.725V50.2857C32.7314 50.4752 32.6568 50.6568 32.524 50.7908C32.3913 50.9247 32.2112 51 32.0234 51Z" fill="#1AB248" stroke="#1AB248" stroke-width="0.4"/>
<path d="M20.999 27.1228C18.2288 27.1196 15.573 26.008 13.6143 24.0319C11.6555 22.0558 10.5538 19.3766 10.5508 16.5821V14.9035C10.5508 14.7141 10.6254 14.5324 10.7582 14.3985C10.891 14.2645 11.0711 14.1893 11.2588 14.1893C11.4466 14.1893 11.6267 14.2645 11.7595 14.3985C11.8923 14.5324 11.9669 14.7141 11.9669 14.9035V16.5821C11.9669 18.9986 12.9185 21.3161 14.6123 23.0248C16.3062 24.7336 18.6035 25.6935 20.999 25.6935C23.3944 25.6935 25.6918 24.7336 27.3856 23.0248C29.0795 21.3161 30.0311 18.9986 30.0311 16.5821V15.1214C30.0311 14.932 30.1057 14.7503 30.2384 14.6163C30.3712 14.4824 30.5513 14.4071 30.7391 14.4071C30.9269 14.4071 31.107 14.4824 31.2398 14.6163C31.3726 14.7503 31.4472 14.932 31.4472 15.1214V16.5821C31.4442 19.3766 30.3425 22.0558 28.3837 24.0319C26.425 26.008 23.7692 27.1196 20.999 27.1228Z" fill="#1AB248" stroke="#1AB248" stroke-width="0.4"/>
<path d="M31.7004 16.045C31.6768 16.0464 31.6532 16.0464 31.6296 16.045C30.3648 15.9053 29.1632 15.4139 28.159 14.6257C27.1548 13.8374 26.3874 12.7832 25.9424 11.5807C24.3463 12.4135 22.5749 12.8464 20.7779 12.8429C18.9809 12.8395 17.2111 12.3997 15.6181 11.5607C14.8938 13.4028 13.1888 15.8464 10.2638 15.6871C10.0823 15.6778 9.91133 15.5984 9.78626 15.4654C9.66118 15.3325 9.59156 15.1561 9.5918 14.9728V8.10069C9.59386 6.21836 10.3359 4.41369 11.6552 3.08255C12.9745 1.7514 14.7633 1.00246 16.6293 1H25.3696C27.2358 1.00208 29.025 1.75085 30.3446 3.08204C31.6642 4.41323 32.4064 6.21811 32.4085 8.10069V15.3307C32.4085 15.5201 32.3339 15.7018 32.2011 15.8358C32.0683 15.9697 31.8882 16.045 31.7004 16.045ZM26.3977 9.78569C26.5632 9.78577 26.7235 9.84433 26.8506 9.9512C26.9778 10.0581 27.0638 10.2065 27.0937 10.3707C27.2848 11.3574 27.7544 12.2675 28.4461 12.9914C29.1377 13.7154 30.0219 14.2223 30.9923 14.4514V8.10069C30.9907 6.59688 30.3977 5.15514 29.3436 4.09177C28.2895 3.02841 26.8603 2.43027 25.3696 2.42857H16.6293C15.1385 2.43027 13.7093 3.02841 12.6552 4.09177C11.6011 5.15514 11.0082 6.59688 11.0065 8.10069V14.2285C13.6143 13.8335 14.5228 10.3628 14.532 10.325C14.5595 10.216 14.6122 10.1151 14.6858 10.0306C14.7593 9.94605 14.8516 9.88021 14.9551 9.83844C15.0586 9.79667 15.1704 9.78015 15.2814 9.79022C15.3925 9.8003 15.4996 9.83668 15.5941 9.8964C20.8897 13.2657 25.9523 9.93998 26.0026 9.9064C26.1195 9.82747 26.2571 9.78545 26.3977 9.78569Z" fill="#1AB248" stroke="#1AB248" stroke-width="0.4"/>
</svg>
