<svg width="54" height="49" viewBox="0 0 54 49" fill="none" xmlns="http://www.w3.org/2000/svg">
<path d="M31.0693 30.5869C35.7492 31.4323 40.8544 32.4185 40.8544 47.4939" stroke="#1AB248" stroke-width="1.5" stroke-miterlimit="10" stroke-linecap="round" stroke-linejoin="round"/>
<path d="M11.0734 30.5869C6.39356 31.4323 1.14648 32.4185 1.14648 47.4939" stroke="#1AB248" stroke-width="1.5" stroke-miterlimit="10" stroke-linecap="round" stroke-linejoin="round"/>
<path d="M29.5087 15.0889V18.4703C29.5087 24.3877 26.6725 29.1781 21 29.1781C15.4693 29.1781 12.633 24.6695 12.4912 19.0338V15.0889" stroke="#1AB248" stroke-width="1.5" stroke-miterlimit="10" stroke-linecap="round" stroke-linejoin="round"/>
<path d="M53.5303 21.5303C53.8232 21.2374 53.8232 20.7626 53.5303 20.4697L48.7574 15.6967C48.4645 15.4038 47.9896 15.4038 47.6967 15.6967C47.4038 15.9896 47.4038 16.4645 47.6967 16.7574L51.9393 21L47.6967 25.2426C47.4038 25.5355 47.4038 26.0104 47.6967 26.3033C47.9896 26.5962 48.4645 26.5962 48.7574 26.3033L53.5303 21.5303ZM36 21.75L53 21.75L53 20.25L36 20.25L36 21.75Z" fill="#1AB248"/>
<path d="M23.8363 29.1787L23.4108 31.5739C23.269 32.5601 22.4181 33.2646 21.4254 33.4055H21L23.8363 39.0411" stroke="#1AB248" stroke-width="1.5" stroke-miterlimit="10" stroke-linecap="round" stroke-linejoin="round"/>
<path d="M18.1641 29.1787L18.5895 31.5739C18.7313 32.5601 19.5822 33.2646 20.5749 33.4055H21.0003L18.1641 39.0411" stroke="#1AB248" stroke-width="1.5" stroke-miterlimit="10" stroke-linecap="round" stroke-linejoin="round"/>
<path d="M21 34.3916V34.5325V34.3916Z" stroke="#1AB248" stroke-width="1.5" stroke-miterlimit="10" stroke-linecap="round" stroke-linejoin="round"/>
<path d="M31.0692 30.5876L23.9785 29.1787" stroke="#1AB248" stroke-width="1.5" stroke-miterlimit="10" stroke-linecap="round" stroke-linejoin="round"/>
<path d="M11.0732 30.5876L18.1639 29.1787" stroke="#1AB248" stroke-width="1.5" stroke-miterlimit="10" stroke-linecap="round" stroke-linejoin="round"/>
<path d="M13.9092 30.5869L20.9998 47.4939L28.2323 30.5869" stroke="#1AB248" stroke-width="1.5" stroke-miterlimit="10" stroke-linecap="round" stroke-linejoin="round"/>
<path d="M35.1816 39.0407V31.9961" stroke="#1AB248" stroke-width="1.5" stroke-miterlimit="10" stroke-linecap="round" stroke-linejoin="round"/>
<path d="M6.81934 39.0407V31.9961" stroke="#1AB248" stroke-width="1.5" stroke-miterlimit="10" stroke-linecap="round" stroke-linejoin="round"/>
<path d="M20.8583 10.8623H11.0732L12.2077 14.5255C12.2077 14.5255 17.8803 16.498 21.0001 16.498C24.12 16.498 30.0762 14.5255 30.0762 14.5255L30.927 10.8623H21.142" stroke="#1AB248" stroke-width="1.5" stroke-miterlimit="10" stroke-linecap="round" stroke-linejoin="round"/>
<path d="M11.0726 10.8624L8.23633 5.22676C8.23633 5.22676 16.8869 1 20.9995 1C25.1121 1 33.7626 5.22676 33.7626 5.22676L30.9264 10.8624" stroke="#1AB248" stroke-width="1.5" stroke-miterlimit="10" stroke-linecap="round" stroke-linejoin="round"/>
<path d="M23.1274 6.63584C23.1274 5.5087 22.1347 4.52246 21.0002 4.52246C19.8657 4.52246 18.873 5.5087 18.873 6.63584C18.873 7.76298 19.8657 8.74922 21.0002 8.74922C22.1347 8.74922 23.1274 7.76298 23.1274 6.63584Z" fill="#1AB248"/>
</svg>
