<svg width="46" height="46" viewBox="0 0 46 46" fill="none" xmlns="http://www.w3.org/2000/svg">
<path d="M32.3601 26.2978C31.3324 26.1627 30.3186 25.9107 29.3497 25.5494C28.2743 25.1476 27.0519 25.4066 26.2321 26.2152L25.184 27.2605C22.8309 25.8287 20.8517 23.8537 19.4158 21.5055L20.4653 20.4582C21.2732 19.6418 21.5343 18.4208 21.1304 17.3483C20.7678 16.3786 20.515 15.3676 20.3792 14.3357C20.1727 12.8767 18.9125 11.7663 17.4332 11.8006H14.0538C13.9656 11.8006 13.8774 11.8048 13.7906 11.8132C13.0051 11.8832 12.2944 12.2557 11.7889 12.8599C11.2835 13.4654 11.044 14.2307 11.1161 15.026C11.4955 18.593 12.7292 22.0698 14.6797 25.0754C16.4523 27.8597 18.8636 30.2668 21.6486 32.0331C24.65 33.9752 28.1169 35.2067 31.689 35.5939C31.78 35.6023 31.8711 35.6058 31.9648 35.6058C32.7539 35.603 33.4939 35.2935 34.0498 34.7328C34.6056 34.174 34.9095 33.432 34.9067 32.6471V29.2825C34.9393 27.7891 33.8485 26.5072 32.3601 26.2978ZM33.5076 29.2761V32.6514C33.509 33.0645 33.3493 33.4537 33.0574 33.7477C32.7655 34.0418 32.3762 34.2042 31.9639 34.2056C31.9135 34.2056 31.863 34.2035 31.8266 34.2007C28.4857 33.8387 25.2301 32.6821 22.4052 30.8542C19.7875 29.1942 17.5247 26.9357 15.8584 24.3193C14.0234 21.4923 12.8654 18.2284 12.5098 14.8902C12.472 14.4785 12.598 14.0767 12.8633 13.7596C13.1294 13.4417 13.5032 13.2464 13.9177 13.2093C13.9632 13.2051 14.0086 13.2023 14.0542 13.2023H17.4407C17.4448 13.2023 17.4505 13.2023 17.4553 13.2023C18.2255 13.2023 18.885 13.7722 18.9935 14.5283C19.1427 15.6583 19.4206 16.7729 19.821 17.8427C20.0324 18.4062 19.8959 19.0468 19.4745 19.4718L18.0441 20.9001C17.82 21.1227 17.7738 21.4679 17.93 21.7423C19.5956 24.6653 22.0235 27.0884 24.9514 28.7498C25.2252 28.9045 25.5689 28.859 25.7916 28.6364L27.2198 27.2117C27.6496 26.7881 28.2917 26.6495 28.8602 26.8637C29.9292 27.262 31.0459 27.5393 32.1724 27.6878C32.9531 27.7977 33.5271 28.4733 33.5075 29.2595C33.5076 29.2643 33.5076 29.2706 33.5076 29.2761Z" fill="#1AB248" stroke="#1AB248" stroke-width="0.2"/>
<path d="M23.0043 1.00781C10.8758 1.00781 1.00834 10.8752 1.00834 23.0038C1.00834 27.1984 2.19174 31.2648 4.43456 34.7907L1.05302 44.0144C0.955499 44.2783 1.01857 44.5753 1.21507 44.7769C1.35581 44.9221 1.54647 44.9998 1.74151 44.9998C1.81927 44.9998 1.89772 44.9873 1.97324 44.9624L11.5408 41.7738C14.9913 43.8846 18.9468 44.9999 23.0044 44.9999C35.133 44.9999 45.0004 35.1325 45.0004 23.0039C45.0004 10.8753 35.1329 1.00781 23.0043 1.00781ZM23.005 43.5334C19.1088 43.5334 15.313 42.4321 12.029 40.3491C11.9103 40.2744 11.7738 40.2354 11.636 40.2354C11.5576 40.2354 11.4798 40.2479 11.4043 40.2736L2.95413 43.0898L5.93828 34.9513C6.01819 34.7328 5.99035 34.4894 5.86207 34.2951C3.64631 30.9393 2.47546 27.035 2.47546 23.0039C2.47546 11.684 11.6852 2.47433 23.005 2.47433C34.3249 2.47433 43.5346 11.684 43.5346 23.0039C43.5346 34.3238 34.3249 43.5334 23.005 43.5334Z" fill="#1AB248" stroke="#1AB248" stroke-width="0.2"/>
</svg>
