<svg width="53" height="49" viewBox="0 0 53 49" fill="none" xmlns="http://www.w3.org/2000/svg">
<path d="M42.0693 30.5869C46.7492 31.4323 51.8544 32.4185 51.8544 47.4939" stroke="#1AB248" stroke-width="1.5" stroke-miterlimit="10" stroke-linecap="round" stroke-linejoin="round"/>
<path d="M22.0734 30.5869C17.3936 31.4323 12.1465 32.4185 12.1465 47.4939" stroke="#1AB248" stroke-width="1.5" stroke-miterlimit="10" stroke-linecap="round" stroke-linejoin="round"/>
<path d="M40.5087 15.0889V18.4703C40.5087 24.3877 37.6725 29.1781 32 29.1781C26.4693 29.1781 23.633 24.6695 23.4912 19.0338V15.0889" stroke="#1AB248" stroke-width="1.5" stroke-miterlimit="10" stroke-linecap="round" stroke-linejoin="round"/>
<path d="M34.8363 29.1787L34.4108 31.5739C34.269 32.5601 33.4181 33.2646 32.4254 33.4055H32L34.8363 39.0411" stroke="#1AB248" stroke-width="1.5" stroke-miterlimit="10" stroke-linecap="round" stroke-linejoin="round"/>
<path d="M29.1641 29.1787L29.5895 31.5739C29.7313 32.5601 30.5822 33.2646 31.5749 33.4055H32.0003L29.1641 39.0411" stroke="#1AB248" stroke-width="1.5" stroke-miterlimit="10" stroke-linecap="round" stroke-linejoin="round"/>
<path d="M32 34.3916V34.5325V34.3916Z" stroke="#1AB248" stroke-width="1.5" stroke-miterlimit="10" stroke-linecap="round" stroke-linejoin="round"/>
<path d="M42.0692 30.5876L34.9785 29.1787" stroke="#1AB248" stroke-width="1.5" stroke-miterlimit="10" stroke-linecap="round" stroke-linejoin="round"/>
<path d="M22.0732 30.5876L29.1639 29.1787" stroke="#1AB248" stroke-width="1.5" stroke-miterlimit="10" stroke-linecap="round" stroke-linejoin="round"/>
<path d="M17.5303 24.5303C17.8232 24.2374 17.8232 23.7626 17.5303 23.4697L12.7574 18.6967C12.4645 18.4038 11.9896 18.4038 11.6967 18.6967C11.4038 18.9896 11.4038 19.4645 11.6967 19.7574L15.9393 24L11.6967 28.2426C11.4038 28.5355 11.4038 29.0104 11.6967 29.3033C11.9896 29.5962 12.4645 29.5962 12.7574 29.3033L17.5303 24.5303ZM-6.55671e-08 24.75L17 24.75L17 23.25L6.55671e-08 23.25L-6.55671e-08 24.75Z" fill="#1AB248"/>
<path d="M24.9092 30.5869L31.9998 47.4939L39.2323 30.5869" stroke="#1AB248" stroke-width="1.5" stroke-miterlimit="10" stroke-linecap="round" stroke-linejoin="round"/>
<path d="M46.1816 39.0407V31.9961" stroke="#1AB248" stroke-width="1.5" stroke-miterlimit="10" stroke-linecap="round" stroke-linejoin="round"/>
<path d="M17.8193 39.0407V31.9961" stroke="#1AB248" stroke-width="1.5" stroke-miterlimit="10" stroke-linecap="round" stroke-linejoin="round"/>
<path d="M31.8583 10.8623H22.0732L23.2077 14.5255C23.2077 14.5255 28.8803 16.498 32.0001 16.498C35.12 16.498 41.0762 14.5255 41.0762 14.5255L41.927 10.8623H32.142" stroke="#1AB248" stroke-width="1.5" stroke-miterlimit="10" stroke-linecap="round" stroke-linejoin="round"/>
<path d="M22.0726 10.8624L19.2363 5.22676C19.2363 5.22676 27.8869 1 31.9995 1C36.1121 1 44.7626 5.22676 44.7626 5.22676L41.9264 10.8624" stroke="#1AB248" stroke-width="1.5" stroke-miterlimit="10" stroke-linecap="round" stroke-linejoin="round"/>
<path d="M34.1274 6.63584C34.1274 5.5087 33.1347 4.52246 32.0002 4.52246C30.8657 4.52246 29.873 5.5087 29.873 6.63584C29.873 7.76298 30.8657 8.74922 32.0002 8.74922C33.1347 8.74922 34.1274 7.76298 34.1274 6.63584Z" fill="#1AB248"/>
</svg>
