<svg width="31" height="31" viewBox="0 0 31 31" fill="none" xmlns="http://www.w3.org/2000/svg">
<path d="M29.1836 5.57031H16.7109C16.4986 5.57031 16.2949 5.60721 16.1055 5.67438V1.81641C16.1055 0.814781 15.2907 0 14.2891 0H1.81641C0.814781 0 0 0.814781 0 1.81641V14.2891C0 14.754 0.175728 15.1783 0.464035 15.5C0.175728 15.8217 0 16.246 0 16.7109V29.1836C0 30.1852 0.814781 31 1.81641 31H14.2891C14.754 31 15.1783 30.8243 15.5 30.536C15.8217 30.8243 16.246 31 16.7109 31H29.1836C30.1852 31 31 30.1852 31 29.1836V7.38672C31 6.38509 30.1852 5.57031 29.1836 5.57031ZM9.79913 1.21094V6.27133H6.30634V1.21094H9.79913ZM14.8945 29.1836C14.8945 29.5175 14.623 29.7891 14.2891 29.7891H1.81641C1.48245 29.7891 1.21094 29.5175 1.21094 29.1836V16.7109C1.21094 16.377 1.48245 16.1055 1.81641 16.1055H5.0954V21.7713C5.0954 22.1058 5.36668 22.3768 5.70087 22.3768H10.4046C10.739 22.3768 11.0101 22.1058 11.0101 21.7713V16.1055H14.2891C14.623 16.1055 14.8945 16.377 14.8945 16.7109V29.1836ZM6.30634 16.1055H9.79913V21.1659H6.30634V16.1055ZM14.8945 7.38672V14.2891C14.8945 14.623 14.623 14.8945 14.2891 14.8945H1.81641C1.48245 14.8945 1.21094 14.623 1.21094 14.2891V1.81641C1.21094 1.48245 1.48245 1.21094 1.81641 1.21094H5.0954V6.8768C5.0954 7.21123 5.36668 7.48227 5.70087 7.48227H10.4046C10.739 7.48227 11.0101 7.21123 11.0101 6.8768V1.21094H14.2891C14.623 1.21094 14.8945 1.48245 14.8945 1.81641V7.38672ZM24.6937 6.78125V11.8416H21.2009V6.78125H24.6937ZM29.7891 29.1836C29.7891 29.5175 29.5175 29.7891 29.1836 29.7891H16.7109C16.377 29.7891 16.1055 29.5175 16.1055 29.1836V7.38672C16.1055 7.05276 16.377 6.78125 16.7109 6.78125H19.9899V12.4471C19.9899 12.7815 20.2612 13.0526 20.5954 13.0526H25.2991C25.6336 13.0526 25.9046 12.7815 25.9046 12.4471V6.78125H29.1836C29.5175 6.78125 29.7891 7.05276 29.7891 7.38672V29.1836Z" fill="#1AB248"/>
</svg>
