<svg width="70" height="70" viewBox="0 0 70 70" fill="none" xmlns="http://www.w3.org/2000/svg">
<path d="M2 27V65.5M2 27L12.7432 34.5M2 27L12.7432 19.5123M68 27V65.5M68 27L57.2973 34.5M68 27L57.1022 19.4045M68 65.5H2M68 65.5L41.6 45.5M2 65.5L28.5 45.5M28.5 45.5L35 40.5L41.6 45.5M28.5 45.5L12.7432 34.5M41.6 45.5L57.2973 34.5M12.7432 34.5V19.5123M57.2973 34.5L57.1022 19.4045M45.7609 11.5H57L57.1022 19.4045M45.7609 11.5L35 4L24.2391 11.5M45.7609 11.5H24.2391M24.2391 11.5H12.7432V19.5123" stroke="#1AB248" stroke-width="1.5" stroke-linejoin="round"/>
<line x1="24.75" y1="22.25" x2="46.25" y2="22.25" stroke="#1AB248" stroke-width="1.5" stroke-linecap="round"/>
<line x1="24.75" y1="29.25" x2="46.25" y2="29.25" stroke="#1AB248" stroke-width="1.5" stroke-linecap="round"/>
</svg>
