<svg width="26" height="26" viewBox="0 0 26 26" fill="none" xmlns="http://www.w3.org/2000/svg">
<path d="M25 7.09212V19.1535L12.9756 25M25 7.09212L12.9756 1L9.28513 2.87737M25 7.09212L21.0163 9.1023M12.9756 13.1597V25M12.9756 13.1597L1 7.09212M12.9756 13.1597L17.5 10.8766M12.9756 25L1 19.1535V7.09212M1 7.09212L6 4.54856M9.28513 2.87737L21.0163 9.1023M9.28513 2.87737L6.89002 4.09579L6 4.54856M21.0163 9.1023V13.9573C21.0163 14.3204 20.8195 14.6549 20.5021 14.8313L18.9858 15.6741C18.3193 16.0446 17.5 15.5627 17.5 14.8001V10.8766M6 4.54856L17.5 10.8766" stroke="white" stroke-width="1.4"/>
</svg>
