<svg width="23" height="26" viewBox="0 0 23 26" fill="none" xmlns="http://www.w3.org/2000/svg">
<path d="M15.4676 23.7582H13.8378C13.5006 23.7582 13.227 24.0359 13.227 24.3788C13.227 24.7218 13.5006 24.9995 13.8378 24.9995H15.4676C15.8048 24.9995 16.0784 24.7218 16.0784 24.3788C16.0784 24.0359 15.8048 23.7582 15.4676 23.7582Z" fill="white"/>
<path d="M6.67332 13.4135H4.66708C4.32982 13.4135 4.05624 13.6913 4.05624 14.0342V19.6203H2.22168V14.0342C2.22168 13.6913 1.9481 13.4135 1.61084 13.4135C1.27358 13.4135 1 13.6913 1 14.0342V20.241C1 20.5839 1.27358 20.8617 1.61084 20.8617H6.67383C7.59034 20.8617 8.33568 20.1045 8.33568 19.174V15.1008C8.33517 14.1708 7.58983 13.4135 6.67332 13.4135ZM7.11349 19.1745C7.11349 19.4207 6.91531 19.6203 6.67383 19.6203H5.27843V14.6549H6.67332C6.91531 14.6549 7.11298 14.8551 7.11298 15.1008L7.11349 19.1745Z" fill="white"/>
<path d="M12.7552 1H10.8448C5.41598 1 1 5.06335 1 10.0582V10.9308C1 11.2737 1.27358 11.5515 1.61084 11.5515C1.9481 11.5515 2.22168 11.2737 2.22168 10.9308V10.0582C2.22168 5.74817 6.0905 2.24187 10.8448 2.24187H12.7552C17.5095 2.24187 21.3783 5.74817 21.3783 10.0582V13.4135H16.9267C16.0102 13.4135 15.2648 14.1707 15.2648 15.1012V19.1744C15.2648 20.1049 16.0102 20.8622 16.9267 20.8622H18.9324C19.2697 20.8622 19.5433 20.5844 19.5433 20.2415V14.6554H21.3783V21.7932C21.3783 22.8773 20.5097 23.7586 19.4419 23.7586H17.9135C17.5762 23.7586 17.3027 24.0364 17.3027 24.3793C17.3027 24.7222 17.5762 25 17.9135 25H19.4419C21.1832 25 22.6 23.5611 22.6 21.7927V10.0582C22.6 5.06335 18.184 1 12.7552 1ZM18.3216 19.6203H16.9267C16.6847 19.6203 16.487 19.4201 16.487 19.1744V15.1012C16.487 14.855 16.6852 14.6554 16.9267 14.6554H18.3216V19.6203Z" fill="white"/>
<path d="M16.8956 7.10126C17.0576 7.10126 17.2191 7.03609 17.3393 6.9073C17.5711 6.65851 17.5614 6.26594 17.3164 6.03008C16.0239 4.78821 14.2912 4.1034 12.4368 4.1034H11.1632C9.30926 4.1034 7.57609 4.78718 6.28564 6.02905C6.04008 6.26439 6.02989 6.65748 6.2617 6.90627C6.49452 7.15557 6.88272 7.16592 7.12522 6.93006C8.17419 5.92301 9.64551 5.34527 11.1632 5.34527H12.4368C13.955 5.34527 15.4268 5.92301 16.4748 6.93109C16.593 7.04488 16.7443 7.10126 16.8956 7.10126Z" fill="white"/>
<path d="M1.61084 13.4135C1.9481 13.4135 2.22168 13.6913 2.22168 14.0342L2.22168 10.9308C2.22168 11.2737 1.9481 11.5515 1.61084 11.5515C1.27358 11.5515 1 11.2737 1 10.9308V14.0342C1 13.6913 1.27358 13.4135 1.61084 13.4135Z" fill="white"/>
<path d="M2.22168 14.0342V19.6203H4.05624V14.0342C4.05624 13.6913 4.32982 13.4135 4.66708 13.4135H6.67332C7.58983 13.4135 8.33517 14.1708 8.33568 15.1008V19.174C8.33568 20.1045 7.59034 20.8617 6.67383 20.8617H1.61084C1.27358 20.8617 1 20.5839 1 20.241V14.0342M2.22168 14.0342C2.22168 13.6913 1.9481 13.4135 1.61084 13.4135C1.27358 13.4135 1 13.6913 1 14.0342M2.22168 14.0342L2.22168 10.9308M1 14.0342V10.9308M1 10.9308V10.0582C1 5.06335 5.41598 1 10.8448 1H12.7552C18.184 1 22.6 5.06335 22.6 10.0582V21.7927C22.6 23.5611 21.1832 25 19.4419 25H17.9135C17.5762 25 17.3027 24.7222 17.3027 24.3793C17.3027 24.0364 17.5762 23.7586 17.9135 23.7586H19.4419C20.5097 23.7586 21.3783 22.8773 21.3783 21.7932V14.6554H19.5433V20.2415C19.5433 20.5844 19.2697 20.8622 18.9324 20.8622H16.9267C16.0102 20.8622 15.2648 20.1049 15.2648 19.1744V15.1012C15.2648 14.1707 16.0102 13.4135 16.9267 13.4135H21.3783V10.0582C21.3783 5.74817 17.5095 2.24187 12.7552 2.24187H10.8448C6.0905 2.24187 2.22168 5.74817 2.22168 10.0582V10.9308M1 10.9308C1 11.2737 1.27358 11.5515 1.61084 11.5515C1.9481 11.5515 2.22168 11.2737 2.22168 10.9308M15.4676 23.7582H13.8378C13.5006 23.7582 13.227 24.0359 13.227 24.3788C13.227 24.7218 13.5006 24.9995 13.8378 24.9995H15.4676C15.8048 24.9995 16.0784 24.7218 16.0784 24.3788C16.0784 24.0359 15.8048 23.7582 15.4676 23.7582ZM7.11349 19.1745C7.11349 19.4207 6.91531 19.6203 6.67383 19.6203H5.27843V14.6549H6.67332C6.91531 14.6549 7.11298 14.8551 7.11298 15.1008L7.11349 19.1745ZM18.3216 19.6203H16.9267C16.6847 19.6203 16.487 19.4201 16.487 19.1744V15.1012C16.487 14.855 16.6852 14.6554 16.9267 14.6554H18.3216V19.6203ZM16.8956 7.10126C17.0576 7.10126 17.2191 7.03609 17.3393 6.9073C17.5711 6.65851 17.5614 6.26594 17.3164 6.03008C16.0239 4.78821 14.2912 4.1034 12.4368 4.1034H11.1632C9.30926 4.1034 7.57609 4.78718 6.28564 6.02905C6.04008 6.26439 6.02989 6.65748 6.2617 6.90627C6.49452 7.15557 6.88272 7.16592 7.12522 6.93006C8.17419 5.92301 9.64551 5.34527 11.1632 5.34527H12.4368C13.955 5.34527 15.4268 5.92301 16.4748 6.93109C16.593 7.04488 16.7443 7.10126 16.8956 7.10126Z" stroke="white" stroke-width="0.3"/>
</svg>
