<svg width="43" height="43" viewBox="0 0 43 43" fill="none" xmlns="http://www.w3.org/2000/svg">
<path d="M21.6547 42.6624C33.3427 42.6624 42.8177 33.1874 42.8177 21.4994C42.8177 9.81142 33.3427 0.336426 21.6547 0.336426C9.96669 0.336426 0.491699 9.81142 0.491699 21.4994C0.491699 33.1874 9.96669 42.6624 21.6547 42.6624Z" fill="#F0F0F0"/>
<path d="M41.5013 14.1384H1.80802C0.957285 16.4311 0.491699 18.9108 0.491699 21.4994C0.491699 24.0881 0.957285 26.5678 1.80802 28.8604H41.5014C42.3521 26.5678 42.8177 24.0881 42.8177 21.4994C42.8177 18.9108 42.3521 16.4311 41.5013 14.1384Z" fill="#0052B4"/>
<path d="M21.6554 0.336426C15.2411 0.336426 9.4938 3.19045 5.61279 7.69742H37.6979C33.817 3.19045 28.0697 0.336426 21.6554 0.336426Z" fill="#D80027"/>
<path d="M37.6975 35.3015H5.6123C9.49331 39.8085 15.2406 42.6625 21.6549 42.6625C28.0692 42.6625 33.8165 39.8085 37.6975 35.3015Z" fill="#D80027"/>
</svg>
