<svg width="26" height="32" viewBox="0 0 26 32" fill="none" xmlns="http://www.w3.org/2000/svg">
<path fill-rule="evenodd" clip-rule="evenodd" d="M11.8561 1C14.7559 1 17.4824 2.09301 19.5329 4.07741C22.8102 7.24852 23.6089 12.8338 21.6671 17.0054H20.4105C22.4646 13.184 21.8142 7.834 18.7324 4.85211C16.8953 3.0748 14.4535 2.09575 11.8561 2.09575C9.25866 2.09575 6.81691 3.0748 4.98036 4.85211C1.55522 8.16621 1.13345 14.4054 4.0768 18.2033L11.8561 29.0748L13.3368 27.0054H14.7141L11.8561 31L3.15796 18.8437C-0.0871412 14.658 0.384451 7.74927 4.17927 4.07741C6.22982 2.09301 8.95577 1 11.8561 1Z" fill="#1AB248"/>
<path d="M19.5329 4.07741L19.4634 4.14928L19.4634 4.14928L19.5329 4.07741ZM21.6671 17.0054V17.1054H21.7309L21.7578 17.0476L21.6671 17.0054ZM20.4105 17.0054L20.3224 16.958L20.2432 17.1054H20.4105V17.0054ZM18.7324 4.85211L18.8019 4.78024L18.8019 4.78024L18.7324 4.85211ZM4.98036 4.85211L5.04989 4.92398L5.0499 4.92397L4.98036 4.85211ZM4.0768 18.2033L4.15819 18.145L4.15584 18.142L4.0768 18.2033ZM11.8561 29.0748L11.7748 29.133L11.8561 29.2466L11.9374 29.133L11.8561 29.0748ZM13.3368 27.0054V26.9054H13.2854L13.2555 26.9472L13.3368 27.0054ZM14.7141 27.0054L14.7954 27.0636L14.9086 26.9054H14.7141V27.0054ZM11.8561 31L11.7748 31.0582L11.8561 31.1719L11.9374 31.0582L11.8561 31ZM3.15796 18.8437L3.23935 18.7855L3.23699 18.7825L3.15796 18.8437ZM4.17927 4.07741L4.24881 4.14928L4.24881 4.14928L4.17927 4.07741ZM19.6025 4.00555C17.5329 2.00278 14.7813 0.9 11.8561 0.9V1.1C14.7304 1.1 17.4318 2.18324 19.4634 4.14928L19.6025 4.00555ZM21.7578 17.0476C23.7157 12.8413 22.9134 7.2092 19.6025 4.00555L19.4634 4.14928C22.7071 7.28785 23.5021 12.8263 21.5765 16.9632L21.7578 17.0476ZM20.4105 17.1054H21.6671V16.9054H20.4105V17.1054ZM18.6629 4.92398C21.7099 7.87223 22.3571 13.1727 20.3224 16.958L20.4986 17.0527C22.5721 13.1952 21.9185 7.79578 18.8019 4.78024L18.6629 4.92398ZM11.8561 2.19575C14.428 2.19575 16.8447 3.16503 18.6629 4.92398L18.8019 4.78024C16.9458 2.98457 14.479 1.99575 11.8561 1.99575V2.19575ZM5.0499 4.92397C6.86747 3.16503 9.28415 2.19575 11.8561 2.19575V1.99575C9.23317 1.99575 6.76635 2.98457 4.91081 4.78025L5.0499 4.92397ZM4.15584 18.142C2.70156 16.2655 2.07587 13.7816 2.24017 11.353C2.40447 8.92444 3.35811 6.56092 5.04989 4.92398L4.91082 4.78024C3.17747 6.4574 2.20766 8.87052 2.04063 11.3395C1.87359 13.8086 2.50869 16.3432 3.99776 18.2645L4.15584 18.142ZM11.9374 29.0166L4.15813 18.1451L3.99548 18.2615L11.7748 29.133L11.9374 29.0166ZM13.2555 26.9472L11.7748 29.0166L11.9374 29.133L13.4182 27.0636L13.2555 26.9472ZM14.7141 26.9054H13.3368V27.1054H14.7141V26.9054ZM11.9374 31.0582L14.7954 27.0636L14.6328 26.9472L11.7748 30.9418L11.9374 31.0582ZM3.07663 18.9019L11.7748 31.0582L11.9374 30.9418L3.23929 18.7856L3.07663 18.9019ZM4.10974 4.00555C2.19158 5.86155 1.11688 8.53144 0.928882 11.261C0.740878 13.9906 1.43889 16.7896 3.07893 18.905L3.23699 18.7825C1.63193 16.7121 0.943186 13.9639 1.12841 11.2747C1.31363 8.58553 2.37214 5.96514 4.24881 4.14928L4.10974 4.00555ZM11.8561 0.9C8.93029 0.9 6.17926 2.00278 4.10973 4.00555L4.24881 4.14928C6.28038 2.18324 8.98126 1.1 11.8561 1.1V0.9Z" fill="#1AB248"/>
<path d="M19.7256 20.0054L16.7256 23.0054L19.7256 26.0054" stroke="#1AB248" stroke-width="1.4" stroke-miterlimit="10" stroke-linecap="round" stroke-linejoin="round"/>
<path d="M24.7256 23.0054L17.7256 23.0054" stroke="#1AB248" stroke-width="1.4" stroke-miterlimit="10" stroke-linecap="round" stroke-linejoin="round"/>
<path d="M11.9561 7.57422C9.7714 7.57422 7.99316 9.29509 7.99316 11.4093C7.99316 13.5236 9.7714 15.2445 11.9561 15.2445C14.1409 15.2445 15.9191 13.5236 15.9191 11.4093C15.9191 9.29509 14.1409 7.57422 11.9561 7.57422ZM11.9561 14.1487C10.3953 14.1487 9.12544 12.9198 9.12544 11.4093C9.12544 9.89885 10.3953 8.66997 11.9561 8.66997C13.517 8.66997 14.7868 9.89885 14.7868 11.4093C14.7868 12.9198 13.517 14.1487 11.9561 14.1487Z" fill="#1AB248" stroke="#1AB248" stroke-width="0.2"/>
</svg>
