<svg width="43" height="43" viewBox="0 0 43 43" fill="none" xmlns="http://www.w3.org/2000/svg">
<g clip-path="url(#clip0)">
<path d="M21.2182 42.6624C32.9062 42.6624 42.3811 33.1874 42.3811 21.4994C42.3811 9.81142 32.9062 0.336426 21.2182 0.336426C9.53017 0.336426 0.0551758 9.81142 0.0551758 21.4994C0.0551758 33.1874 9.53017 42.6624 21.2182 42.6624Z" fill="#D80027"/>
<path d="M20.3516 17.6294L22.0881 20.0222L24.9002 19.1104L23.161 21.5011L24.8972 23.8939L22.0861 22.9786L20.347 25.3693L20.3488 22.4131L17.5376 21.4978L20.3498 20.5859L20.3516 17.6294Z" fill="#F0F0F0"/>
<path d="M15.6125 27.4802C12.3094 27.4802 9.63163 24.8025 9.63163 21.4994C9.63163 18.1963 12.3094 15.5185 15.6125 15.5185C16.6424 15.5185 17.6114 15.779 18.4574 16.2374C17.1302 14.9394 15.315 14.1383 13.3122 14.1383C9.24673 14.1383 5.95117 17.4339 5.95117 21.4993C5.95117 25.5647 9.24681 28.8603 13.3122 28.8603C15.3152 28.8603 17.1303 28.0592 18.4574 26.7612C17.6114 27.2198 16.6424 27.4802 15.6125 27.4802Z" fill="#F0F0F0"/>
</g>
<defs>
<clipPath id="clip0">
<rect width="42.326" height="42.326" fill="white" transform="translate(0.0551758 0.336426)"/>
</clipPath>
</defs>
</svg>
