<svg width="42" height="38" viewBox="0 0 42 38" fill="none" xmlns="http://www.w3.org/2000/svg">
<path d="M16.2439 2.47551C18.1452 -0.825168 22.8548 -0.825169 24.7561 2.4755L40.3214 29.4962C42.2375 32.8226 39.8681 37 36.0653 37H4.93475C1.13188 37 -1.23753 32.8226 0.678627 29.4962L16.2439 2.47551Z" fill="#FFE1E1"/>
<path d="M19.0795 13.5031C19.0363 12.6861 19.6871 12 20.5052 12C21.3194 12 21.9687 12.6799 21.9313 13.4933L21.4415 24.1408C21.4193 24.6216 21.0231 25 20.5418 25C20.0629 25 19.6678 24.6252 19.6425 24.147L19.0795 13.5031Z" fill="#E91717"/>
<path d="M19 28.5C19 27.6716 19.6716 27 20.5 27C21.3284 27 22 27.6716 22 28.5C22 29.3284 21.3284 30 20.5 30C19.6716 30 19 29.3284 19 28.5Z" fill="#E91717"/>
</svg>
