<svg width="40" height="29" viewBox="0 0 40 29" fill="none" xmlns="http://www.w3.org/2000/svg">
<path d="M38.6421 12.4937L35.9184 11.3148L33.6054 6.81391C32.9803 5.58151 31.7121 4.81349 30.3279 4.82242H26.345V3.69719C26.345 1.66106 24.7196 0 22.6835 0H3.64385C1.60771 0 0.000237619 1.66999 0.000237619 3.69719V20.9329C-0.0176232 22.1742 0.973653 23.1923 2.21498 23.2101C2.22391 23.2101 2.23284 23.2101 2.2507 23.2101H2.72401C2.72401 23.2994 2.71508 23.3352 2.71508 23.3888C2.70615 25.9429 4.76908 28.0236 7.32318 28.0326C9.87728 28.0415 11.9581 25.9786 11.967 23.4245C11.967 23.4066 11.967 23.3977 11.967 23.3798C11.967 23.3173 11.967 23.2905 11.9581 23.2012H27.3452C27.3452 23.2905 27.3452 23.3262 27.3452 23.3798C27.3362 25.9339 29.3992 28.0147 31.9533 28.0236C34.5074 28.0326 36.5882 25.9696 36.5971 23.4155C36.5971 23.3977 36.5971 23.3888 36.5971 23.3709C36.5971 23.3084 36.5971 23.2816 36.5971 23.1923H37.7491C38.9904 23.1923 39.9996 22.1831 39.9996 20.9418C39.9996 20.9329 39.9996 20.924 39.9996 20.9061V14.5655C40.0174 13.6903 39.4816 12.8598 38.6421 12.4937ZM7.34997 26.2554C5.77822 26.2554 4.5101 24.9873 4.5101 23.4155C4.5101 21.8438 5.77822 20.5757 7.34997 20.5757C8.92172 20.5757 10.1898 21.8438 10.1898 23.4155C10.1898 24.9784 8.91279 26.2554 7.34997 26.2554ZM24.5589 21.4419H11.5383C10.7882 19.8077 9.14498 18.7628 7.34997 18.7717C5.54603 18.7628 3.91176 19.7987 3.1616 21.4419H2.2507C1.97386 21.4419 1.78632 21.2276 1.78632 20.9508V16.3516H24.5589V21.4419ZM24.5589 3.70612V14.5655H1.78632V3.70612C1.78632 2.66126 2.59899 1.79501 3.64385 1.79501H22.6835C23.7284 1.80394 24.5678 2.66126 24.5589 3.69719V3.70612ZM26.345 6.61744H30.3279C31.0334 6.60851 31.6943 6.99252 32.0247 7.62657L33.8108 11.0826H26.345V6.61744ZM31.9801 26.2554C30.4083 26.2554 29.1402 24.9873 29.1402 23.4155C29.1402 21.8438 30.4083 20.5757 31.9801 20.5757C33.5518 20.5757 34.8199 21.8438 34.8199 23.4155C34.8199 24.9784 33.5518 26.2554 31.9801 26.2554ZM38.2224 20.9508C38.2224 21.2276 38.0349 21.4419 37.758 21.4419H36.1684C35.0878 19.1289 32.3373 18.1287 30.0243 19.2093C29.0419 19.6648 28.2471 20.4596 27.7917 21.4419H26.345V12.8687H35.0968L37.9366 14.119C38.1152 14.2083 38.2313 14.4048 38.2224 14.6012V20.9508Z" fill="#222222"/>
</svg>
