<svg width="43" height="43" viewBox="0 0 43 43" fill="none" xmlns="http://www.w3.org/2000/svg">
<mask id="mask0" mask-type="alpha" maskUnits="userSpaceOnUse" x="0" y="-1" width="43" height="44">
<circle cx="21.4721" cy="21.1627" r="21.163" fill="#C4C4C4"/>
</mask>
<g mask="url(#mask0)">
<path d="M42.635 -0.000244141H0.309082V42.3257H42.635V-0.000244141Z" fill="#F0F0F0"/>
<path d="M0.309082 25.1308H17.504V42.3257H25.4401V25.1308H42.635V17.1947H25.4401V-0.000244141H17.504V17.1947H0.309082V25.1308Z" fill="#D80027"/>
<path d="M33.9478 27.6033L42.6345 36.29V27.6033H33.9478Z" fill="#2981EB"/>
<path d="M27.9131 27.604L42.6352 42.3261V38.1629L32.0762 27.604H27.9131Z" fill="#0052B4"/>
<path d="M38.7133 42.3257L27.9126 31.5239V42.3257H38.7133Z" fill="#2981EB"/>
<path d="M27.9131 27.6038L42.6352 42.3258V38.1627L32.0762 27.6038H27.9131Z" fill="#F0F0F0"/>
<path d="M27.9131 27.6038L42.6352 42.3258V38.1627L32.0762 27.6038H27.9131Z" fill="#D80027"/>
<path d="M6.94748 27.6038L0.309082 34.2422V27.6038H6.94748Z" fill="#2981EB"/>
<path d="M15.0309 29.4749V42.3246H2.18213L15.0309 29.4749Z" fill="#2981EB"/>
<path d="M10.8678 27.6038L0.309082 38.1625V42.3256L15.0309 27.6038H10.8678Z" fill="#D80027"/>
<path d="M8.99582 14.7221L0.309082 6.0354V14.7221H8.99582Z" fill="#2981EB"/>
<path d="M15.0312 14.7218L0.309082 -0.000244141V4.16291L10.868 14.7218H15.0312Z" fill="#0052B4"/>
<path d="M4.23047 -0.000244141L15.0311 10.8014V-0.000244141H4.23047Z" fill="#2981EB"/>
<path d="M15.0312 14.7218L0.309082 -0.000244141V4.16291L10.868 14.7218H15.0312Z" fill="#F0F0F0"/>
<path d="M15.0312 14.7218L0.309082 -0.000244141V4.16291L10.868 14.7218H15.0312Z" fill="#D80027"/>
<path d="M35.9966 14.7221L42.635 8.08374V14.7221H35.9966Z" fill="#2981EB"/>
<path d="M27.9131 12.8495V-0.000244141H40.7618L27.9131 12.8495Z" fill="#2981EB"/>
<path d="M32.0762 14.7216L42.6349 4.16283V-0.000244141L27.9131 14.7216H32.0762Z" fill="#D80027"/>
</g>
</svg>
