<svg width="44" height="43" viewBox="0 0 44 43" fill="none" xmlns="http://www.w3.org/2000/svg">
<path d="M22.0355 42.3257C33.7235 42.3257 43.1985 32.8507 43.1985 21.1627C43.1985 9.47475 33.7235 -0.000244141 22.0355 -0.000244141C10.3475 -0.000244141 0.872559 9.47475 0.872559 21.1627C0.872559 32.8507 10.3475 42.3257 22.0355 42.3257Z" fill="#F0F0F0"/>
<path d="M21.1152 21.1634H43.1983C43.1983 19.2533 42.9437 17.4028 42.4693 15.6426H21.1152V21.1634Z" fill="#D80027"/>
<path d="M21.1152 10.1219H40.0922C38.7967 8.0079 37.1402 6.13936 35.209 4.60107H21.1152V10.1219Z" fill="#D80027"/>
<path d="M22.0345 42.326C27.0151 42.326 31.593 40.6045 35.2081 37.7253H8.86084C12.4759 40.6045 17.0538 42.326 22.0345 42.326Z" fill="#D80027"/>
<path d="M3.97819 32.2046H40.0918C41.1319 30.5075 41.9385 28.6525 42.4689 26.6838H1.60107C2.13155 28.6525 2.93815 30.5075 3.97819 32.2046Z" fill="#D80027"/>
<path d="M10.6756 3.30465H12.6042L10.8103 4.60791L11.4955 6.71669L9.70174 5.41343L7.90793 6.71669L8.49983 4.89494C6.92038 6.2106 5.53602 7.75202 4.3952 9.46953H5.01315L3.87125 10.2991C3.69335 10.5959 3.52273 10.8974 3.35921 11.2033L3.90449 12.8816L2.88718 12.1424C2.63429 12.6782 2.40299 13.226 2.19508 13.7853L2.79583 15.6344H5.01315L3.21925 16.9377L3.90449 19.0464L2.11068 17.7432L1.03616 18.5239C0.928607 19.3884 0.872559 20.269 0.872559 21.1627H22.0355C22.0355 9.47482 22.0355 8.09691 22.0355 -0.000244141C17.8549 -0.000244141 13.9576 1.21249 10.6756 3.30465ZM11.4955 19.0464L9.70174 17.7432L7.90793 19.0464L8.59316 16.9377L6.79927 15.6344H9.01659L9.70174 13.5256L10.3869 15.6344H12.6042L10.8103 16.9377L11.4955 19.0464ZM10.8103 10.7728L11.4955 12.8816L9.70174 11.5783L7.90793 12.8816L8.59316 10.7728L6.79927 9.46953H9.01659L9.70174 7.36075L10.3869 9.46953H12.6042L10.8103 10.7728ZM19.0866 19.0464L17.2928 17.7432L15.499 19.0464L16.1842 16.9377L14.3903 15.6344H16.6076L17.2928 13.5256L17.978 15.6344H20.1953L18.4014 16.9377L19.0866 19.0464ZM18.4014 10.7728L19.0866 12.8816L17.2928 11.5783L15.499 12.8816L16.1842 10.7728L14.3903 9.46953H16.6076L17.2928 7.36075L17.978 9.46953H20.1953L18.4014 10.7728ZM18.4014 4.60791L19.0866 6.71669L17.2928 5.41343L15.499 6.71669L16.1842 4.60791L14.3903 3.30465H16.6076L17.2928 1.19588L17.978 3.30465H20.1953L18.4014 4.60791Z" fill="#2981EB"/>
</svg>
