<svg width="43" height="43" viewBox="0 0 43 43" fill="none" xmlns="http://www.w3.org/2000/svg">
<path d="M0.998799 15.0584C0.350519 17.0893 -0.000570934 19.253 -0.000488267 21.499C-0.000570934 23.7451 0.350602 25.9089 0.998882 27.9399L21.1625 28.8602L41.326 27.9401C41.9742 25.909 42.3255 23.7451 42.3255 21.4992C42.3254 19.2531 41.9743 17.0893 41.326 15.0583L21.1625 14.1382L0.998799 15.0584Z" fill="#F0F0F0"/>
<path d="M41.3283 15.0585L21.1647 14.1384L1.00105 15.0585C0.808935 15.6607 0.643517 16.2746 0.504883 16.8988H41.8242C41.6857 16.2746 41.5204 15.6605 41.3283 15.0585Z" fill="#D80027"/>
<path d="M0.504395 26.1001C0.642863 26.7242 0.808281 27.3381 1.0004 27.9403L1.00239 27.9404L21.1639 28.8605L41.3275 27.9404C41.5196 27.3382 41.685 26.7242 41.8236 26.1001H0.504395Z" fill="#D80027"/>
<path d="M21.164 42.6632C30.606 42.6632 38.6024 36.4794 41.3275 27.9412H1.00049C3.72563 36.4793 11.7222 42.6632 21.164 42.6632Z" fill="#6DA544"/>
<path d="M21.1641 0.33667C11.7222 0.336753 3.7258 6.52056 1.00049 15.0587L41.3275 15.0588C38.6026 6.52048 30.606 0.336587 21.1641 0.33667Z" fill="#338AF3"/>
<path d="M9.67103 9.07898C9.67103 7.09685 11.0641 5.44101 12.9243 5.03478C12.6385 4.97229 12.3418 4.93848 12.0371 4.93848C9.75031 4.93848 7.89648 6.79222 7.89648 9.07906C7.89648 11.3659 9.75014 13.2196 12.0371 13.2196C12.3418 13.2196 12.6384 13.1858 12.9243 13.1233C11.0641 12.7169 9.67103 11.0611 9.67103 9.07898Z" fill="#F0F0F0"/>
<path d="M15.373 10.9602L15.6532 11.8228H16.5603L15.8265 12.3561L16.1067 13.2187L15.373 12.6856L14.6391 13.2187L14.9194 12.3561L14.1855 11.8228H15.0926L15.373 10.9602Z" fill="#F0F0F0"/>
<path d="M18.2674 10.9602L18.5477 11.8228H19.4547L18.7209 12.3561L19.0012 13.2187L18.2674 12.6856L17.5335 13.2187L17.8138 12.3561L17.0801 11.8228H17.987L18.2674 10.9602Z" fill="#F0F0F0"/>
<path d="M21.162 10.9602L21.4423 11.8228H22.3494L21.6156 12.3561L21.8958 13.2187L21.162 12.6856L20.4281 13.2187L20.7085 12.3561L19.9746 11.8228H20.8817L21.162 10.9602Z" fill="#F0F0F0"/>
<path d="M24.0566 10.9611L24.3369 11.8237H25.2439L24.5101 12.3569L24.7904 13.2195L24.0566 12.6864L23.3227 13.2195L23.6031 12.3569L22.8691 11.8237H23.7762L24.0566 10.9611Z" fill="#F0F0F0"/>
<path d="M26.9514 10.9611L27.2318 11.8237H28.1388L27.405 12.3569L27.6854 13.2195L26.9514 12.6864L26.2176 13.2195L26.4979 12.3569L25.7642 11.8237H26.6711L26.9514 10.9611Z" fill="#F0F0F0"/>
<path d="M18.2674 7.94751L18.5477 8.81007H19.4547L18.7209 9.34336L19.0012 10.2059L18.2674 9.67279L17.5335 10.2059L17.8138 9.34336L17.0801 8.81007H17.987L18.2674 7.94751Z" fill="#F0F0F0"/>
<path d="M21.162 7.94751L21.4423 8.81007H22.3494L21.6156 9.34336L21.8958 10.2059L21.162 9.67279L20.4281 10.2059L20.7085 9.34336L19.9746 8.81007H20.8817L21.162 7.94751Z" fill="#F0F0F0"/>
<path d="M24.0566 7.94751L24.3369 8.81007H25.2439L24.5101 9.34336L24.7904 10.2059L24.0566 9.67279L23.3227 10.2059L23.6031 9.34336L22.8691 8.81007H23.7762L24.0566 7.94751Z" fill="#F0F0F0"/>
<path d="M26.9509 7.94751L27.2313 8.81007H28.1383L27.4045 9.34336L27.6849 10.2059L26.9509 9.67279L26.2171 10.2059L26.4974 9.34336L25.7637 8.81007H26.6706L26.9509 7.94751Z" fill="#F0F0F0"/>
<path d="M21.162 4.93677L21.4423 5.79949H22.3494L21.6156 6.33262L21.8958 7.19534L21.162 6.66221L20.4281 7.19534L20.7085 6.33262L19.9746 5.79949H20.8817L21.162 4.93677Z" fill="#F0F0F0"/>
<path d="M24.0566 4.93774L24.3369 5.80047H25.2439L24.5101 6.33359L24.7904 7.19631L24.0566 6.66319L23.3227 7.19631L23.6031 6.33359L22.8691 5.80047H23.7762L24.0566 4.93774Z" fill="#F0F0F0"/>
<path d="M26.9529 4.93677L27.2332 5.79949H28.1403L27.4065 6.33262L27.6868 7.19534L26.9529 6.66221L26.2191 7.19534L26.4994 6.33262L25.7656 5.79949H26.6726L26.9529 4.93677Z" fill="#F0F0F0"/>
</svg>
