<svg width="32" height="32" viewBox="0 0 32 32" fill="none" xmlns="http://www.w3.org/2000/svg">
<g clip-path="url(#clip0)">
<path d="M29.1256 11.0003H24.0007V2.25206C24.0007 1.46657 23.6017 0.75108 22.9335 0.338086C22.2655 -0.0748457 21.4471 -0.11172 20.7445 0.239588C20.7355 0.244087 20.7266 0.248712 20.7178 0.253462L2.16926 10.236C0.83184 10.9558 0.000976562 12.3465 0.000976562 13.8653V13.8753V14.5003V29.1251C0.000976562 30.7103 1.29071 32 2.87594 32H29.1256C30.7108 32 32.0005 30.7103 32.0005 29.1251V13.8753C32.0005 12.29 30.7108 11.0003 29.1256 11.0003ZM21.6476 2.02425C21.7468 1.97863 21.8296 2.007 21.8821 2.03944C21.9362 2.07288 22.0006 2.13694 22.0006 2.25212V11.0004H4.96916L21.6476 2.02425ZM30.0006 29.1251C30.0006 29.6076 29.6081 30.0001 29.1256 30.0001H2.87594C2.39344 30.0001 2.00095 29.6076 2.00095 29.1251V14.5003V13.8753C2.00095 13.3928 2.39344 13.0003 2.87594 13.0003H29.1256C29.6081 13.0003 30.0006 13.3928 30.0006 13.8753V29.1251Z" fill="#222222"/>
<path d="M26 23.5C24.8972 23.5 24 22.6028 24 21.5C24 20.3972 24.8972 19.5 26 19.5C27.1028 19.5 28 20.3972 28 21.5C28 22.6028 27.1027 23.5 26 23.5ZM26 21.5C26 21.5009 26.0001 21.5013 26.0001 21.5013L26 21.5Z" fill="#222222"/>
</g>
<defs>
<clipPath id="clip0">
<rect width="32" height="32" fill="white"/>
</clipPath>
</defs>
</svg>
