<svg width="30" height="30" viewBox="0 0 30 30" fill="none" xmlns="http://www.w3.org/2000/svg">
<g clip-path="url(#clip0)">
<path d="M22.2046 12.7656C21.9755 12.5365 21.6046 12.5365 21.3755 12.7656C21.147 12.9941 21.147 13.365 21.3755 13.5941C21.6046 13.8232 21.9755 13.8232 22.2046 13.5941C22.4332 13.365 22.4332 12.9941 22.2046 12.7656Z" fill="#1AB248"/>
<path d="M29.4819 3.83185L26.1672 0.517165C25.4802 -0.169667 24.3686 -0.169901 23.6815 0.517165L22.6186 1.58005C22.1828 2.01587 22.016 2.62952 22.1475 3.21264L17.3421 4.06054C16.2704 4.25021 15.2981 4.75675 14.5305 5.52503L13.5032 6.5517C12.8267 7.22822 12.551 8.15605 12.6758 9.03747C11.7879 8.91208 10.8678 9.18776 10.1892 9.86621C9.51173 10.5433 9.2347 11.4626 9.36003 12.3525C8.4724 12.2276 7.55254 12.503 6.87456 13.181C6.21632 13.8392 5.9165 14.7506 6.04599 15.6682C5.16445 15.5433 4.23657 15.8189 3.55993 16.4955L1.19914 18.8557C-0.399695 20.4547 -0.399754 23.0569 1.1992 24.6567L5.34246 28.7998C6.94188 30.3985 9.54396 30.3989 11.1433 28.7997L13.5034 26.439C14.18 25.7624 14.4557 24.8343 14.3307 23.9527C15.2442 24.0816 16.1572 23.7852 16.818 23.1244C17.4944 22.448 17.77 21.5202 17.6451 20.6386C18.5538 20.7669 19.4682 20.4749 20.1327 19.8098C20.8091 19.1333 21.0847 18.2056 20.9599 17.3243C21.8772 17.4538 22.7889 17.1542 23.4475 16.4956L24.4737 15.4688C25.2424 14.7009 25.7488 13.7285 25.9385 12.6565L26.7864 7.85154C27.3684 7.98273 27.9822 7.81714 28.419 7.38039L29.4819 6.3175C30.1689 5.63055 30.169 4.51886 29.4819 3.83185ZM12.6747 25.6104L10.3146 27.971C9.17253 29.1132 7.3136 29.1131 6.17103 27.971L2.02795 23.8281C0.885786 22.6854 0.885786 20.8265 2.02783 19.6844L4.38862 17.3242C5.07398 16.6388 6.18919 16.6388 6.87462 17.3242L12.6748 23.1243C13.3602 23.8097 13.3602 24.925 12.6747 25.6104ZM15.9893 22.2957C15.3042 22.9808 14.1913 22.9837 13.5033 22.2957L7.70319 16.4956C7.01641 15.8088 7.01624 14.6966 7.70325 14.0096C8.38955 13.3232 9.50095 13.323 10.1887 14.0092C10.1889 14.0094 10.189 14.0095 10.1892 14.0096L15.9891 19.8095L15.9892 19.8096C15.9892 19.8096 15.9892 19.8096 15.9892 19.8096C16.6744 20.4953 16.6745 21.6106 15.9893 22.2957ZM19.3038 18.9814C18.6176 19.6684 17.5046 19.6685 16.818 18.9811L11.0177 13.1808C10.3305 12.4941 10.3302 11.3821 11.0179 10.695C11.7051 10.0077 12.8159 10.0076 13.5033 10.695L19.304 16.4957C19.9893 17.1809 19.9893 18.2959 19.3038 18.9814ZM24.7845 12.4526C24.637 13.2864 24.2431 14.0427 23.6451 14.6401L22.6187 15.6671C21.9333 16.3525 20.8181 16.3525 20.1327 15.6671L14.3319 9.86633C13.6466 9.1809 13.6466 8.06575 14.3318 7.38045L15.3592 6.3536C15.9563 5.75594 16.7127 5.36208 17.5461 5.21454L22.8343 4.28144L25.7176 7.1647L24.7845 12.4526ZM28.6533 5.48887L27.5904 6.55176C27.3614 6.78068 26.991 6.78074 26.762 6.55176L23.4474 3.23707C23.2184 3.00803 23.2184 2.63772 23.4474 2.40868L24.5103 1.34579C24.7393 1.11681 25.1097 1.11687 25.3387 1.34579L28.6533 4.66048C28.8818 4.88911 28.8827 5.25936 28.6533 5.48887Z" fill="#1AB248"/>
<path d="M29.6135 22.1945L27.0025 17.0793C26.9024 16.8832 26.7008 16.7598 26.4806 16.7598C26.2604 16.7598 26.0589 16.8832 25.9587 17.0793L23.348 22.1942C22.1614 24.5158 23.8523 27.3066 26.4806 27.3066C29.1085 27.3066 30.8 24.5162 29.6135 22.1945ZM26.4806 26.1347C24.7267 26.1347 23.6021 24.272 24.3917 22.7273L26.4806 18.6345L28.5698 22.7275C29.3584 24.2706 28.2363 26.1347 26.4806 26.1347Z" fill="#1AB248"/>
<path d="M20.5469 11.1079L17.7181 8.27903C17.4892 8.05022 17.1183 8.05022 16.8894 8.27903C16.6606 8.50783 16.6606 8.87885 16.8894 9.10766L19.7183 11.9365C19.9471 12.1654 20.318 12.1654 20.5469 11.9365C20.7757 11.7077 20.7757 11.3367 20.5469 11.1079Z" fill="#1AB248"/>
</g>
<defs>
<clipPath id="clip0">
<rect width="30" height="30" fill="white"/>
</clipPath>
</defs>
</svg>
