<svg width="27" height="29" viewBox="0 0 27 29" fill="none" xmlns="http://www.w3.org/2000/svg">
<path d="M25.6203 28H1.37778C1.26869 28 1.16566 27.9448 1.09369 27.8486C1.02172 27.7533 0.988382 27.6251 1.00202 27.4978L2.96566 9.38912C2.9899 9.1674 3.15127 9 3.34142 9H23.6566C23.8468 9 24.0081 9.1674 24.0324 9.38912L25.996 27.4978C26.0097 27.6251 25.9763 27.7525 25.9044 27.8486C25.8324 27.9457 25.7294 28 25.6203 28ZM1.80808 27.1096H25.19L23.3233 9.89132H3.67475L1.80808 27.1096Z" fill="#1AB248" stroke="#1AB248" stroke-width="0.2"/>
<path d="M12.8426 9.85033C10.4022 9.85033 8.41699 7.86513 8.41699 5.4256C8.41699 2.98519 10.4022 1 12.8426 1C15.283 1 17.2682 2.98519 17.2682 5.4256C17.2682 7.86513 15.283 9.85033 12.8426 9.85033ZM12.8426 1.87879C10.8873 1.87879 9.29579 3.47029 9.29579 5.4256C9.29579 7.38092 10.8873 8.97153 12.8426 8.97153C14.7979 8.97153 16.3894 7.38004 16.3894 5.4256C16.3894 3.47029 14.7979 1.87879 12.8426 1.87879Z" fill="#1AB248" stroke="#1AB248" stroke-width="0.2"/>
<path d="M11.7431 17.2034C11.3099 17.9109 10.728 18.4125 10.158 18.6406C10.0786 18.6748 10.0666 18.7432 10.158 18.7773C10.8194 19.0628 11.3782 19.6087 11.8225 20.3384L13.2478 22.6762C13.3051 22.7557 13.2598 22.824 13.1563 22.824H12.0045C11.9361 22.824 11.8909 22.8019 11.8447 22.7446L10.716 20.9194C10.1802 20.0179 9.39323 19.3002 8.54897 19.3002H8.28665V22.6984C8.28665 22.7778 8.24139 22.824 8.16103 22.824H7.12464C7.04521 22.824 6.99902 22.7778 6.99902 22.6984V14.9791C6.99902 14.8997 7.04521 14.8535 7.12464 14.8535H8.16287C8.24231 14.8535 8.28849 14.8997 8.28849 14.9791V18.1603H8.53881C9.35997 18.1603 10.1349 17.4768 10.6365 16.6547L11.6969 14.9339C11.7422 14.8757 11.7884 14.8535 11.8567 14.8535H12.9965C13.088 14.8535 13.1332 14.9219 13.076 15.0022L11.7431 17.2034Z" fill="#1AB248"/>
<path d="M20.1785 22.1865C20.1785 22.2669 20.1443 22.3121 20.076 22.3343L19.5864 22.4941L19.0276 22.6881C18.4235 22.8821 18.0355 22.9504 17.3511 22.9504C15.1739 22.9504 13.8623 21.3654 13.8623 18.8455C13.8623 16.3257 15.1739 14.7416 17.3511 14.7416C17.9894 14.7416 18.4235 14.821 19.0276 15.015L19.5522 15.197C19.6317 15.2311 19.6658 15.2893 19.6317 15.3568L19.313 16.2121C19.2788 16.2925 19.2216 16.3146 19.1532 16.2925L18.6516 16.1206C18.2073 15.9729 17.8647 15.9156 17.352 15.9156C15.984 15.9156 15.1749 17.0102 15.1749 18.8455C15.1749 20.6818 15.984 21.7644 17.352 21.7644C17.8314 21.7644 18.2073 21.7191 18.6175 21.5824L18.9371 21.4799V19.7581H17.5561C17.4647 19.7581 17.4194 19.6999 17.4416 19.6214L17.6928 18.7097C17.7159 18.6414 17.7612 18.6072 17.8416 18.6072H20.0538C20.1332 18.6072 20.1794 18.6534 20.1794 18.7328V22.1865H20.1785Z" fill="#1AB248"/>
</svg>
