<svg width="39" height="29" viewBox="0 0 39 29" fill="none" xmlns="http://www.w3.org/2000/svg">
<path d="M37.8279 7.68343C27.7306 -2.33408 11.3379 -2.35551 1.21384 7.63553C1.19771 7.6515 1.18157 7.66746 1.16543 7.68343C0.939314 7.91511 0.945798 8.28437 1.17995 8.5081C1.40835 8.72638 1.77048 8.72638 1.99889 8.5081C11.6372 -1.05296 27.2838 -1.07257 36.9467 8.46429C36.9615 8.47887 36.9762 8.49352 36.9909 8.5081C37.2211 8.7368 37.595 8.7376 37.8262 8.50985C38.0573 8.28211 38.058 7.91212 37.8279 7.68343Z" fill="#1AB248" stroke="#1AB248" stroke-width="0.2"/>
<path d="M34.4959 10.981C30.5275 7.02957 25.1265 4.81332 19.4967 4.82623C13.8668 4.81332 8.4658 7.02957 4.49747 10.981C4.27135 11.2127 4.27783 11.5819 4.51198 11.8057C4.74038 12.0239 5.10251 12.0239 5.33092 11.8057C13.1407 4.06454 25.814 4.05353 33.6376 11.7811C33.6459 11.7893 33.6542 11.7975 33.6624 11.8057C33.8966 12.0295 34.2697 12.0231 34.4959 11.7914C34.7165 11.5653 34.7165 11.207 34.4959 10.981Z" fill="#1AB248" stroke="#1AB248" stroke-width="0.2"/>
<path d="M31.1596 14.2822C28.0756 11.2064 23.8748 9.48123 19.496 9.49224C15.1172 9.48123 10.9164 11.2064 7.8324 14.2822C7.60237 14.5103 7.60282 14.8797 7.83328 15.1072C8.06375 15.3347 8.43708 15.3344 8.66703 15.1063C14.6298 9.1886 24.3119 9.17424 30.2925 15.0742C30.3034 15.0849 30.3142 15.0956 30.325 15.1063C30.555 15.3344 30.9283 15.3347 31.1588 15.1072C31.3892 14.8796 31.3896 14.5103 31.1596 14.2822Z" fill="#1AB248" stroke="#1AB248" stroke-width="0.2"/>
<path d="M27.8291 17.5757C25.6245 15.3804 22.624 14.1491 19.4963 14.1563C16.3686 14.1491 13.3681 15.3804 11.1635 17.5757C10.9374 17.8074 10.9438 18.1766 11.178 18.4004C11.4064 18.6187 11.7685 18.6187 11.997 18.4004C16.1309 14.3022 22.8396 14.296 26.9814 18.3863C26.9861 18.391 26.9909 18.3957 26.9956 18.4004C27.2298 18.6242 27.6029 18.6178 27.8291 18.3861C28.0497 18.1601 28.0497 17.8017 27.8291 17.5757Z" fill="#1AB248" stroke="#1AB248" stroke-width="0.2"/>
<path d="M24.5125 20.8841C24.5078 20.8793 24.503 20.8746 24.4981 20.87C23.1729 19.556 21.3729 18.8191 19.4968 18.8223C17.6207 18.8191 15.8208 19.556 14.4955 20.87C14.2608 21.0931 14.2533 21.4623 14.4788 21.6946C14.7044 21.9268 15.0775 21.9342 15.3122 21.7111C15.3171 21.7065 15.3219 21.7017 15.3266 21.6969C17.6302 19.4191 21.3634 19.4191 23.667 21.6969C23.8939 21.9279 24.2671 21.9332 24.5005 21.7087C24.734 21.4843 24.7393 21.1151 24.5125 20.8841Z" fill="#1AB248" stroke="#1AB248" stroke-width="0.2"/>
<path d="M21.1644 24.1752C21.1638 24.1746 21.1633 24.1741 21.1627 24.1735C20.2308 23.2911 18.762 23.2911 17.8301 24.1735C16.9089 25.084 16.9081 26.5612 17.8284 27.4727C18.7486 28.3842 20.2415 28.3849 21.1627 27.4744C22.0839 26.5637 22.0846 25.0867 21.1644 24.1752ZM19.4964 26.9887C18.8453 26.9887 18.3175 26.4665 18.3175 25.8222C18.3175 25.178 18.8453 24.6558 19.4964 24.6558C20.1475 24.6558 20.6752 25.178 20.6752 25.8222C20.6752 26.4665 20.1474 26.9887 19.4964 26.9887Z" fill="#1AB248" stroke="#1AB248" stroke-width="0.2"/>
</svg>
