<svg width="26" height="26" viewBox="0 0 26 26" fill="none" xmlns="http://www.w3.org/2000/svg">
<path d="M22.5845 9.27586H20.861V3.68966C20.861 2.20672 19.6548 1 18.1719 1H7.82707C6.34414 1 5.13793 2.20672 5.13793 3.68966V9.27586H3.41448C2.0831 9.27586 1 10.3595 1 11.6909V22.585C1 23.9164 2.0831 25 3.41448 25H16.1029C16.4453 25 16.7231 24.7222 16.7231 24.3793C16.7231 24.0364 16.4453 23.7586 16.1029 23.7586H16H3.41448C2.76689 23.7586 2.24034 23.2321 2.24034 22.585V11.6909C2.24034 11.0438 2.76689 10.5172 3.41448 10.5172H5.13793V12.5366L5.11465 12.5179C4.84672 12.3022 4.4562 12.3426 4.24155 12.61C4.02534 12.8764 4.06672 13.2674 4.33258 13.4831L11.5083 19.2953C11.9407 19.6497 12.4698 19.826 13.0005 19.826C13.5291 19.826 14.0583 19.6497 14.4886 19.2974L21.6664 13.4831C21.9322 13.2674 21.9736 12.8764 21.7574 12.61C21.5412 12.3426 21.1502 12.3022 20.8843 12.5179L20.861 12.5366V10.5172H22.5845C23.2321 10.5172 23.7586 11.0438 23.7586 11.6909V22.585C23.7586 23.2321 23.2321 23.7586 22.5845 23.7586H20.2409C19.8985 23.7586 19.6207 24.0364 19.6207 24.3793C19.6207 24.7222 19.8985 25 20.2409 25H22.5845C23.9159 25 24.999 23.9164 24.999 22.585V11.6909C24.999 10.3595 23.9159 9.27586 22.5845 9.27586ZM19.6207 13.5416L13.7045 18.3343C13.2953 18.669 12.7016 18.6684 12.2924 18.3322L6.37828 13.5416V3.68966C6.37828 2.89103 7.02897 2.24138 7.82707 2.24138H18.1719C18.97 2.24138 19.6207 2.89103 19.6207 3.68966V13.5416Z" fill="white"/>
<path d="M10.9305 6.37931H15.0684C15.4109 6.37931 15.6886 6.10155 15.6886 5.75862C15.6886 5.41569 15.4109 5.13793 15.0684 5.13793H10.9305C10.5881 5.13793 10.3103 5.41569 10.3103 5.75862C10.3103 6.10155 10.5881 6.37931 10.9305 6.37931Z" fill="white"/>
<path d="M16.1029 8.24138H9.89603C9.55362 8.24138 9.27586 8.51914 9.27586 8.86207C9.27586 9.205 9.55362 9.48276 9.89603 9.48276H16.1029C16.4453 9.48276 16.7231 9.205 16.7231 8.86207C16.7231 8.51914 16.4453 8.24138 16.1029 8.24138Z" fill="white"/>
<path d="M16.1029 11.3448H9.89603C9.55362 11.3448 9.27586 11.6226 9.27586 11.9655C9.27586 12.3085 9.55362 12.5862 9.89603 12.5862H16.1029C16.4453 12.5862 16.7231 12.3085 16.7231 11.9655C16.7231 11.6226 16.4453 11.3448 16.1029 11.3448Z" fill="white"/>
<path d="M16.7231 24.3793C16.7231 24.7222 16.4453 25 16.1029 25H20.2409C19.8985 25 19.6207 24.7222 19.6207 24.3793C19.6207 24.0364 19.8985 23.7586 20.2409 23.7586H16.1029C16.4453 23.7586 16.7231 24.0364 16.7231 24.3793Z" fill="white"/>
<path d="M16.1029 25H3.41448C2.0831 25 1 23.9164 1 22.585V11.6909C1 10.3595 2.0831 9.27586 3.41448 9.27586H5.13793V3.68966C5.13793 2.20672 6.34414 1 7.82707 1H18.1719C19.6548 1 20.861 2.20672 20.861 3.68966V9.27586H22.5845C23.9159 9.27586 24.999 10.3595 24.999 11.6909V22.585C24.999 23.9164 23.9159 25 22.5845 25H20.2409M16.1029 25C16.4453 25 16.7231 24.7222 16.7231 24.3793C16.7231 24.0364 16.4453 23.7586 16.1029 23.7586M16.1029 25H20.2409M16.1029 23.7586H16M16.1029 23.7586H20.2409M20.2409 23.7586H22.5845C23.2321 23.7586 23.7586 23.2321 23.7586 22.585V11.6909C23.7586 11.0438 23.2321 10.5172 22.5845 10.5172H20.861V12.5366L20.8843 12.5179C21.1502 12.3022 21.5412 12.3426 21.7574 12.61C21.9736 12.8764 21.9322 13.2674 21.6664 13.4831L14.4886 19.2974C14.0583 19.6497 13.5291 19.826 13.0005 19.826C12.4698 19.826 11.9407 19.6497 11.5083 19.2953L4.33258 13.4831C4.06672 13.2674 4.02534 12.8764 4.24155 12.61C4.4562 12.3426 4.84672 12.3022 5.11465 12.5179L5.13793 12.5366V10.5172H3.41448C2.76689 10.5172 2.24034 11.0438 2.24034 11.6909V22.585C2.24034 23.2321 2.76689 23.7586 3.41448 23.7586H16M20.2409 23.7586C19.8985 23.7586 19.6207 24.0364 19.6207 24.3793C19.6207 24.7222 19.8985 25 20.2409 25M20.2409 23.7586H16M19.6207 13.5416L13.7045 18.3343C13.2953 18.669 12.7016 18.6684 12.2924 18.3322L6.37828 13.5416V3.68966C6.37828 2.89103 7.02897 2.24138 7.82707 2.24138H18.1719C18.97 2.24138 19.6207 2.89103 19.6207 3.68966V13.5416ZM10.9305 6.37931H15.0684C15.4109 6.37931 15.6886 6.10155 15.6886 5.75862C15.6886 5.41569 15.4109 5.13793 15.0684 5.13793H10.9305C10.5881 5.13793 10.3103 5.41569 10.3103 5.75862C10.3103 6.10155 10.5881 6.37931 10.9305 6.37931ZM16.1029 8.24138H9.89603C9.55362 8.24138 9.27586 8.51914 9.27586 8.86207C9.27586 9.205 9.55362 9.48276 9.89603 9.48276H16.1029C16.4453 9.48276 16.7231 9.205 16.7231 8.86207C16.7231 8.51914 16.4453 8.24138 16.1029 8.24138ZM16.1029 11.3448H9.89603C9.55362 11.3448 9.27586 11.6226 9.27586 11.9655C9.27586 12.3085 9.55362 12.5862 9.89603 12.5862H16.1029C16.4453 12.5862 16.7231 12.3085 16.7231 11.9655C16.7231 11.6226 16.4453 11.3448 16.1029 11.3448Z" stroke="white" stroke-width="0.3"/>
</svg>
