<svg width="35" height="35" viewBox="0 0 35 35" fill="none" xmlns="http://www.w3.org/2000/svg">
<path d="M17.4809 1C16.8894 1 16.2983 1.0318 15.7101 1.09519C15.1711 1.15025 14.6386 1.24056 14.1133 1.35013C14.0116 1.3714 13.9099 1.39384 13.8083 1.41731C10.7132 2.12199 7.88708 3.70444 5.66878 5.97491C5.4625 6.18636 5.26056 6.40406 5.06309 6.62797C-0.929192 13.5073 -0.210063 23.9418 6.66935 29.9341C13.2555 35.671 23.1693 35.2892 29.2948 29.063C29.5015 28.8516 29.7034 28.6339 29.9005 28.41C32.545 25.3984 34.0024 21.5268 34 17.519C34 8.39571 26.6042 0.999931 17.4809 1ZM6.40278 6.80087C6.48978 6.71056 6.58008 6.62411 6.66873 6.53656C6.77115 6.43579 6.87302 6.33448 6.97764 6.23702C7.0696 6.15112 7.16431 6.06852 7.25846 5.98482C7.36474 5.89067 7.47046 5.79651 7.57948 5.70565C7.67529 5.62471 7.77386 5.54707 7.87187 5.46888C7.982 5.38078 8.09212 5.29268 8.20555 5.20788C8.30577 5.13244 8.40764 5.05921 8.51006 4.98763C8.62404 4.90613 8.73857 4.82244 8.85475 4.74645C8.95882 4.67597 9.06399 4.60769 9.16971 4.53996C9.28755 4.46452 9.40594 4.39019 9.52542 4.31971C9.63301 4.25549 9.74127 4.1923 9.8503 4.13029C9.97219 4.06091 10.0946 3.99318 10.2176 3.9271C10.3277 3.86839 10.4378 3.81092 10.548 3.75476C10.6735 3.69143 10.8001 3.63031 10.9273 3.57029C11.0375 3.51798 11.152 3.46567 11.2654 3.41612C11.3948 3.36105 11.5259 3.30599 11.6569 3.25092C11.7709 3.20412 11.8843 3.15842 11.9994 3.11437C12.1327 3.06371 12.2676 3.01635 12.4025 2.969C12.5176 2.9288 12.6327 2.88861 12.7494 2.85061C12.8865 2.80656 13.0247 2.76582 13.1635 2.72562C13.2796 2.69203 13.3947 2.65734 13.5115 2.62595C13.5561 2.61439 13.6007 2.60503 13.6453 2.59347C12.0154 4.17606 10.8059 6.14017 10.1262 8.30795C8.81924 7.96325 7.55402 7.47636 6.35322 6.85593C6.37139 6.83666 6.38681 6.81738 6.40278 6.80087ZM5.61097 7.68739C6.93366 8.40404 8.33626 8.96224 9.78973 9.3503C9.07721 11.8279 8.70319 14.3905 8.678 16.9683H2.07589C2.19586 13.5689 3.43899 10.3052 5.61097 7.68739ZM5.61097 27.3505C3.43913 24.7327 2.196 21.4689 2.07589 18.0696H8.678C8.70319 20.6475 9.07714 23.21 9.78973 25.6876C8.33633 26.0758 6.93373 26.634 5.61097 27.3505ZM13.5082 32.4142C13.3969 32.3861 13.2819 32.3498 13.1673 32.3162C13.028 32.2754 12.8881 32.2347 12.7505 32.1901C12.6343 32.1526 12.5198 32.1124 12.4052 32.0722C12.2698 32.0254 12.1343 31.9775 12.0005 31.9263C11.886 31.8828 11.7731 31.8371 11.6597 31.7909C11.5281 31.7358 11.3965 31.6807 11.266 31.6257C11.1537 31.5761 11.0419 31.5251 10.9306 31.4726C10.8023 31.412 10.6746 31.3504 10.5452 31.2865C10.4351 31.2314 10.3249 31.1763 10.2148 31.1163C10.0904 31.0497 9.96703 30.9814 9.84369 30.9109C9.73356 30.8498 9.62894 30.7871 9.52267 30.7232C9.40153 30.6505 9.2826 30.5756 9.16366 30.4991C9.05904 30.4324 8.95442 30.3647 8.85145 30.2953C8.73416 30.216 8.61798 30.1334 8.5029 30.0509C8.40213 29.9787 8.30136 29.9066 8.20225 29.8306C8.08827 29.7447 7.97649 29.656 7.86526 29.5668C7.7678 29.4892 7.67089 29.4121 7.57563 29.3323C7.4655 29.2409 7.35923 29.1456 7.25241 29.0509C7.1588 28.9678 7.06464 28.8857 6.97324 28.8009C6.86806 28.7029 6.7662 28.601 6.66378 28.5003C6.57513 28.4127 6.48482 28.3263 6.39782 28.2365C6.38185 28.2194 6.36644 28.2018 6.35047 28.1853C7.55119 27.5646 8.81641 27.0775 10.1234 26.7327C10.8032 28.9004 12.0127 30.8645 13.6425 32.4472C13.5979 32.4357 13.5528 32.4263 13.5082 32.4142ZM16.9304 32.8932C14.5742 32.5584 12.5088 30.0993 11.2093 26.4679C13.088 26.0472 15.0053 25.8215 16.9304 25.7944V32.8932ZM16.9304 24.6932C14.8882 24.72 12.8546 24.9626 10.8635 25.4167C10.1721 23.0279 9.80735 20.5563 9.77927 18.0696H16.9304V24.6932ZM16.9304 16.9683H9.77927C9.80728 14.4816 10.172 12.0101 10.8635 9.62121C12.8546 10.0753 14.8883 10.3178 16.9304 10.3447V16.9683ZM16.9304 9.24348C15.0052 9.21664 13.088 8.99094 11.2093 8.57005C12.5088 4.93862 14.5742 2.47949 16.9304 2.1447V9.24348ZM29.351 7.68739C31.5229 10.3052 32.766 13.569 32.8861 16.9683H26.284C26.2588 14.3905 25.8848 11.8279 25.1722 9.3503C26.6256 8.96204 28.0282 8.4039 29.351 7.68739ZM21.4494 2.6232C21.565 2.65183 21.6801 2.68818 21.7947 2.72177C21.934 2.76251 22.0738 2.80326 22.2115 2.84786C22.3277 2.8853 22.4422 2.9255 22.5567 2.9657C22.6922 3.0125 22.8276 3.06041 22.9615 3.11161C23.076 3.15511 23.1889 3.20082 23.3023 3.24707C23.4339 3.30213 23.5655 3.3572 23.696 3.41226C23.8083 3.46182 23.9201 3.51282 24.0313 3.56534C24.1596 3.62591 24.2874 3.68758 24.4168 3.75145C24.5269 3.80651 24.637 3.86158 24.7472 3.9216C24.8716 3.98822 24.9949 4.0565 25.1183 4.12698C25.2284 4.1881 25.333 4.25088 25.4393 4.31475C25.5604 4.38743 25.6794 4.46232 25.7983 4.53886C25.9029 4.60549 26.0076 4.67321 26.1105 4.74259C26.2278 4.82188 26.3434 4.90393 26.4585 4.98652C26.5598 5.05866 26.6606 5.13134 26.7603 5.20678C26.8737 5.29213 26.9849 5.38078 27.0967 5.46998C27.1936 5.54707 27.2911 5.62416 27.3863 5.70455C27.4965 5.79596 27.6027 5.89122 27.7096 5.98593C27.8032 6.06907 27.8973 6.15112 27.9887 6.23591C28.0939 6.33393 28.1958 6.43579 28.2982 6.53656C28.3869 6.62411 28.4772 6.71056 28.5642 6.80031C28.5801 6.81738 28.5955 6.835 28.6115 6.85152C27.4108 7.47223 26.1456 7.95933 24.8386 8.3041C24.1574 6.13611 22.9464 4.17221 21.3151 2.59016C21.3597 2.60173 21.4048 2.61109 21.4494 2.6232ZM18.0316 2.1447C20.3878 2.47949 22.4532 4.93862 23.7527 8.57005C21.8739 8.99074 19.9567 9.21643 18.0316 9.24348V2.1447ZM18.0316 10.3447C20.0738 10.3179 22.1073 10.0753 24.0985 9.62121C24.7899 12.0101 25.1546 14.4816 25.1827 16.9683H18.0316V10.3447ZM18.0316 18.0696H25.1827C25.1547 20.5563 24.79 23.0279 24.0985 25.4167C22.1073 24.9626 20.0738 24.7201 18.0316 24.6932V18.0696ZM18.0316 32.8932V25.7944C19.9568 25.8213 21.8739 26.047 23.7527 26.4679C22.4532 30.0993 20.3878 32.5584 18.0316 32.8932ZM28.5592 28.2371C28.4722 28.3268 28.3824 28.4133 28.2938 28.5008C28.1914 28.6016 28.089 28.7035 27.9838 28.8015C27.8924 28.8868 27.7982 28.9667 27.7046 29.052C27.5978 29.1467 27.4915 29.2414 27.3825 29.3328C27.2861 29.4132 27.1881 29.4909 27.0901 29.569C26.98 29.6571 26.8699 29.7453 26.7564 29.83C26.6562 29.9055 26.5543 29.9787 26.4519 30.0503C26.3379 30.1318 26.2234 30.2155 26.1072 30.2915C26.0032 30.362 25.898 30.4302 25.7923 30.4974C25.6744 30.5734 25.5557 30.6468 25.436 30.7177C25.3259 30.7821 25.2207 30.8449 25.1122 30.9071C24.9903 30.9765 24.8677 31.0442 24.7444 31.1103C24.6343 31.169 24.5242 31.2265 24.414 31.2826C24.2885 31.3459 24.1618 31.4071 24.0346 31.4671C23.9245 31.5194 23.81 31.5717 23.6965 31.6213C23.5671 31.6763 23.4361 31.7314 23.305 31.7865C23.1911 31.8327 23.0776 31.879 22.9631 31.9225C22.8287 31.9737 22.6938 32.0216 22.5584 32.0684C22.4439 32.1086 22.3293 32.1488 22.2131 32.1862C22.0755 32.2308 21.9378 32.2716 21.7974 32.3118C21.6823 32.3459 21.5667 32.38 21.4505 32.4114C21.4059 32.423 21.3613 32.4323 21.3167 32.4439C22.9466 30.8613 24.1561 28.8972 24.8358 26.7294C26.1427 27.0741 27.408 27.561 28.6088 28.1814C28.5906 28.2013 28.5752 28.2205 28.5592 28.2371ZM29.351 27.3505C28.0283 26.6339 26.6257 26.0757 25.1722 25.6876C25.8848 23.21 26.2588 20.6475 26.284 18.0696H32.8861C32.7662 21.4689 31.523 24.7328 29.351 27.3505Z" fill="#222222" stroke="#222222" stroke-width="0.6"/>
</svg>
